<?xml version="1.0" standalone="no"?>
<!DOCTYPE svg PUBLIC "-//W3C//DTD SVG 1.1//EN" "http://www.w3.org/Graphics/SVG/1.1/DTD/svg11.dtd" >
<svg xmlns="http://www.w3.org/2000/svg" xmlns:xlink="http://www.w3.org/1999/xlink" version="1.1">
<metadata></metadata>
<defs>
<font id="baseticamedium" horiz-adv-x="564" >
<font-face units-per-em="1000" ascent="750" descent="-250" />
<missing-glyph horiz-adv-x="250" />
<glyph unicode="&#xfb00;" horiz-adv-x="652" d="M538 560v-19h100v-108h-100v-433h-120v433h-184v-433h-120v433h-100v108h100v23q0 75 42 121.5t121 46.5q41 0 70 -8l-11 -108q-17 4 -43 4q-59 0 -59 -60v-19h184v23q0 75 42 121.5t121 46.5q41 0 70 -8l-11 -108q-17 4 -43 4q-59 0 -59 -60z" />
<glyph unicode="&#xfb01;" horiz-adv-x="604" d="M536 541v-541h-120v433h-182v-433h-120v433h-100v108h100v23q0 75 42 121.5t121 46.5q41 0 70 -8l-11 -108q-17 4 -43 4q-59 0 -59 -60v-19h302zM406 660q0 32 19 51t51 19t51 -19t19 -51t-19 -51t-51 -19t-51 19t-19 51z" />
<glyph unicode="&#xfb02;" horiz-adv-x="604" d="M234 560v-19h100v-108h-100v-433h-120v433h-100v108h100v23q0 75 42 121.5t121 46.5q41 0 70 -8l-11 -108q-17 4 -43 4q-59 0 -59 -60zM536 720v-720h-120v720h120z" />
<glyph unicode="&#xfb03;" horiz-adv-x="910" d="M842 541v-541h-120v433h-184v-433h-120v433h-184v-433h-120v433h-100v108h100v23q0 75 42 121.5t121 46.5q41 0 70 -8l-11 -108q-17 4 -43 4q-59 0 -59 -60v-19h184v23q0 75 42 121.5t121 46.5q41 0 70 -8l-11 -108q-17 4 -43 4q-59 0 -59 -60v-19h304zM712 660 q0 32 19 51t51 19t51 -19t19 -51t-19 -51t-51 -19t-51 19t-19 51z" />
<glyph unicode="fj" horiz-adv-x="604" d="M536 541v-690l-120 -20v602h-182v-433h-120v433h-100v108h100v23q0 75 42 121.5t121 46.5q41 0 70 -8l-11 -108q-17 4 -43 4q-59 0 -59 -60v-19h302zM406 660q0 32 19 51t51 19t51 -19t19 -51t-19 -51t-51 -19t-51 19t-19 51z" />
<glyph unicode="ft" horiz-adv-x="666" d="M652 433h-100v-433h-120v433h-198v-433h-120v433h-100v108h100v23q0 75 42 121.5t121 46.5q41 0 70 -8l-11 -108q-17 4 -43 4q-59 0 -59 -60v-19h198v110l120 20v-130h100v-108z" />
<glyph unicode="ffj" horiz-adv-x="910" d="M842 541v-690l-120 -20v602h-184v-433h-120v433h-184v-433h-120v433h-100v108h100v23q0 75 42 121.5t121 46.5q41 0 70 -8l-11 -108q-17 4 -43 4q-59 0 -59 -60v-19h184v23q0 75 42 121.5t121 46.5q41 0 70 -8l-11 -108q-17 4 -43 4q-59 0 -59 -60v-19h304zM712 660 q0 32 19 51t51 19t51 -19t19 -51t-19 -51t-51 -19t-51 19t-19 51zM712 660q0 32 19 51t51 19t51 -19t19 -51t-19 -51t-51 -19t-51 19t-19 51z" />
<glyph unicode="fft" horiz-adv-x="970" d="M538 433v-433h-120v433h-184v-433h-120v433h-100v108h100v23q0 75 42 121.5t121 46.5q41 0 70 -8l-11 -108q-17 4 -43 4q-59 0 -59 -60v-19h184v23q0 75 42 121.5t121 46.5q41 0 70 -8l-11 -108q-17 4 -43 4q-59 0 -59 -60v-19h198v110l120 20v-130h100v-108h-100v-433 h-120v433h-198z" />
<glyph unicode="tt" horiz-adv-x="656" d="M642 433h-100v-433h-120v433h-188v-433h-120v433h-100v108h100v110l120 20v-130h188v110l120 20v-130h100v-108z" />
<glyph horiz-adv-x="0" />
<glyph horiz-adv-x="333" />
<glyph horiz-adv-x="0" />
<glyph horiz-adv-x="0" />
<glyph unicode="&#xd;" horiz-adv-x="250" />
<glyph unicode=" "  horiz-adv-x="250" />
<glyph unicode="&#x09;" horiz-adv-x="250" />
<glyph unicode="&#xa0;" horiz-adv-x="250" />
<glyph unicode="!" horiz-adv-x="250" d="M100 193l-40 321v206h130v-206l-40 -321h-50zM48 65q0 35 21 56t56 21t56 -21t21 -56t-21 -56t-56 -21t-56 21t-21 56z" />
<glyph unicode="&#x22;" horiz-adv-x="430" d="M100 443l-40 277h130l-40 -277h-50zM280 443l-40 277h130l-40 -277h-50z" />
<glyph unicode="#" horiz-adv-x="644" d="M441 541l50 179h102l-50 -179h81v-94h-107l-46 -164h104v-94h-130l-52 -189h-102l52 189h-135l-52 -189h-106l52 189h-78v94h104l46 164h-101v94h127l50 179h102l-50 -179h139zM276 447l-46 -164h139l46 164h-139z" />
<glyph unicode="$" horiz-adv-x="589" d="M272 -169v159q-184 17 -240 193l120 53q35 -105 120 -122v200l-77 30q-136 53 -136 181q0 83 58 141t155 65v147h70v-149q136 -17 197 -152l-114 -57q-34 63 -83 81v-178l65 -25q65 -24 104 -67q50 -55 50 -140q0 -82 -58.5 -138.5t-160.5 -63.5v-158h-70zM342 288v-177 q40 5 63 25.5t23 52.5q0 35 -19.5 58t-66.5 41zM252 459l20 -8v158q-38 -4 -60 -25t-22 -50q0 -51 62 -75z" />
<glyph unicode="%" horiz-adv-x="974" d="M40 539q0 83 55.5 138t137.5 55t137 -55t55 -138q0 -79 -55.5 -135t-136.5 -56q-82 0 -137.5 54.5t-55.5 136.5zM138 539q0 -42 27.5 -70.5t67.5 -28.5q39 0 66.5 29.5t27.5 69.5q0 43 -27 72t-67 29q-41 0 -68 -29t-27 -72zM285 0l298 720h105l-297 -720h-106zM934 181 q0 -83 -55.5 -138t-137.5 -55t-137 55t-55 138q0 79 55.5 135t136.5 56q82 0 137.5 -54.5t55.5 -136.5zM836 181q0 42 -27.5 70.5t-67.5 28.5q-39 0 -66.5 -29.5t-27.5 -69.5q0 -43 27 -72t67 -29q41 0 68 29t27 72z" />
<glyph unicode="&#x26;" horiz-adv-x="665" d="M386 161l-143 173q-92 -42 -92 -130q0 -44 29.5 -71t77.5 -27q73 0 128 55zM301 618q-27 0 -46 -19t-19 -49q0 -14 6 -28.5t11.5 -22.5t19.5 -25t17 -21q39 22 56.5 44t17.5 52t-17.5 49.5t-45.5 19.5zM258 -12q-102 0 -166 56t-64 157q0 135 149 214q-56 71 -56 144 q0 74 53 123.5t127 49.5q73 0 124 -50.5t51 -129.5q0 -55 -30.5 -96.5t-95.5 -77.5l107 -126q27 47 33 108h113q-10 -101 -72 -198l134 -162h-146l-62 77q-87 -89 -199 -89z" />
<glyph unicode="'" horiz-adv-x="250" d="M100 443l-40 277h130l-40 -277h-50z" />
<glyph unicode="(" horiz-adv-x="344" d="M81 278q0 238 139 442h102q-127 -204 -127 -442q0 -243 127 -447h-102q-139 204 -139 447z" />
<glyph unicode=")" horiz-adv-x="344" d="M264 278q0 -246 -140 -447h-102q128 205 128 447q0 237 -128 442h102q140 -201 140 -442z" />
<glyph unicode="*" horiz-adv-x="450" d="M306 348l-82 110l-80 -110l-70 49l83 112l-133 43l26 82l132 -45v131h86v-130l132 44l26 -82l-134 -43l84 -112z" />
<glyph unicode="+" d="M332 410h175v-100h-175v-175h-100v175h-175v100h175v175h100v-175z" />
<glyph unicode="," horiz-adv-x="250" d="M43 -151l29 281h135l-92 -281h-72z" />
<glyph unicode="-" horiz-adv-x="250" d="M230 325v-108h-210v108h210z" />
<glyph unicode="." horiz-adv-x="250" d="M48 65q0 35 21 56t56 21t56 -21t21 -56t-21 -56t-56 -21t-56 21t-21 56z" />
<glyph unicode="/" horiz-adv-x="390" d="M274 720h104l-262 -720h-104z" />
<glyph unicode="0" d="M403 360q0 126 -33 191t-88 65t-88 -65t-33 -191t33 -191t88 -65t88 65t33 191zM530 360q0 -210 -98 -310q-62 -62 -150 -62t-150 62q-98 100 -98 310t98 310q62 62 150 62t150 -62q98 -100 98 -310z" />
<glyph unicode="1" d="M97 513v91h16q140 0 183 116h89v-720h-126v513h-162z" />
<glyph unicode="2" d="M516 115v-115h-467v30q0 67 16 112q25 68 112 138l108 86q55 44 74.5 72.5t19.5 68.5q0 46 -30 76.5t-75 30.5q-84 0 -128 -105l-96 51q27 78 86.5 125t142.5 47q100 0 162.5 -65t62.5 -159q0 -74 -29.5 -121t-110.5 -107l-116 -85q-50 -38 -58 -80h326z" />
<glyph unicode="3" d="M275 106q51 0 82.5 28t31.5 76q0 76 -67 104q-26 10 -85 10h-39v108h24q66 0 94 12q53 21 53 81q0 39 -27 65t-67 26q-68 0 -116 -74l-89 63q75 127 210 127q91 0 148.5 -56.5t57.5 -145.5q0 -102 -93 -150q53 -21 86 -68.5t33 -110.5q0 -98 -66 -155.5t-169 -57.5 q-158 0 -227 135l96 69q46 -86 129 -86z" />
<glyph unicode="4" d="M343 566l-204 -283h204v283zM540 283v-107h-77v-176h-120v176h-315v121l309 423h126v-437h77z" />
<glyph unicode="5" d="M307 476q91 0 155 -66t64 -172t-70.5 -178t-178.5 -72q-84 0 -144.5 47t-86.5 124l98 54q46 -109 131 -109q57 0 92.5 37t35.5 94q0 60 -36 95.5t-92 35.5q-66 0 -110 -58l-103 23l36 389h382v-115h-288l-20 -197q57 68 135 68z" />
<glyph unicode="6" d="M184 225q0 -47 33 -85t82 -38q51 0 83 35t32 87q0 55 -32.5 88.5t-82.5 33.5q-49 0 -82 -34t-33 -87zM310 732q66 0 113 -24t88 -75l-78 -84q-61 69 -127 69q-56 0 -92 -53q-46 -67 -46 -205q54 98 155 98q89 0 150.5 -64.5t61.5 -165.5t-66 -170.5t-167 -69.5 q-112 0 -180 78q-77 89 -77 272q0 214 91 315q70 79 174 79z" />
<glyph unicode="7" d="M42 605v115h492v-101q-224 -269 -248 -619h-141q12 164 84 320t186 285h-373z" />
<glyph unicode="8" d="M282 -12q-103 0 -170 60t-67 157q0 60 29.5 107t75.5 68q-79 54 -79 148q0 87 61 145.5t150 58.5t150 -58.5t61 -145.5q0 -94 -79 -148q46 -21 75.5 -68t29.5 -107q0 -98 -67 -157.5t-170 -59.5zM164 212q0 -48 32.5 -80t85.5 -32q52 0 85 33t33 79q0 48 -32.5 80.5 t-85.5 32.5t-85.5 -32.5t-32.5 -80.5zM183 526q0 -41 27 -69t72 -28q44 0 71.5 28.5t27.5 68.5q0 41 -27.5 68.5t-71.5 27.5q-45 0 -72 -27.5t-27 -68.5z" />
<glyph unicode="9" d="M380 495q0 47 -33 85t-82 38q-51 0 -83 -35t-32 -87q0 -55 32.5 -88.5t82.5 -33.5q49 0 82 34t33 87zM254 -12q-120 0 -204 101l75 83q62 -70 133 -70q56 0 92 53q46 67 46 205q-54 -98 -155 -98q-89 0 -150.5 64.5t-61.5 165.5t66 170.5t167 69.5q112 0 180 -78 q77 -89 77 -272q0 -213 -91 -315q-70 -79 -174 -79z" />
<glyph unicode=":" horiz-adv-x="250" d="M48 65q0 35 21 56t56 21t56 -21t21 -56t-21 -56t-56 -21t-56 21t-21 56zM48 476q0 34 21 55.5t56 21.5t56 -21.5t21 -55.5t-21 -55.5t-56 -21.5t-56 21.5t-21 55.5z" />
<glyph unicode=";" horiz-adv-x="250" d="M47 476q0 34 21.5 55.5t55.5 21.5t55.5 -21.5t21.5 -55.5t-21.5 -55.5t-55.5 -21.5t-55.5 21.5t-21.5 55.5zM43 -151l29 281h135l-92 -281h-72z" />
<glyph unicode="&#x3c;" d="M507 119l-450 210v61l450 210v-114l-296 -126l296 -125v-116z" />
<glyph unicode="=" d="M57 510h450v-100h-450v100zM57 310h450v-100h-450v100z" />
<glyph unicode="&#x3e;" d="M507 329l-450 -210v116l296 125l-296 126v114l450 -210v-61z" />
<glyph unicode="?" horiz-adv-x="481" d="M265 193h-64q-8 30 -8 56q0 75 71 146l21 21q49 50 49 103q0 40 -26 69.5t-67 29.5q-75 0 -114 -91l-92 51q25 69 81 111.5t127 42.5q95 0 153 -60t58 -150q0 -92 -86 -172l-16 -15q-48 -45 -66 -74t-21 -68zM161 65q0 35 21.5 56t55.5 21t55.5 -21t21.5 -56t-21.5 -56 t-55.5 -21t-55.5 21t-21.5 56z" />
<glyph unicode="@" horiz-adv-x="961" d="M691 -23l37 -87q-96 -60 -231 -60q-201 0 -327 125.5t-126 325.5q0 191 127.5 321t314.5 130q194 0 313.5 -117t119.5 -302q0 -72 -18 -127.5t-47.5 -87.5t-63.5 -48t-71 -16q-106 0 -142 89q-56 -89 -143 -89q-68 0 -109 35t-41 95q0 58 38 92t118 50l91 19q39 7 39 41 q0 31 -21 49t-59 18q-75 0 -86 -62l-108 7q8 66 61 109.5t137 43.5q123 0 164 -77q20 -38 20 -107v-172q0 -49 42 -49q41 0 66 48t25 139q0 143 -92 232t-233 89q-143 0 -238.5 -103t-95.5 -250q0 -161 97 -256.5t253 -95.5q108 0 189 48zM570 248v18q-12 -7 -47 -17 l-62 -16q-69 -18 -69 -63q0 -44 61 -44q46 0 81.5 31.5t35.5 90.5z" />
<glyph unicode="A" horiz-adv-x="711" d="M140 0h-130l286 720h126l279 -720h-136l-60 158h-304zM355 551l-109 -279h215z" />
<glyph unicode="B" horiz-adv-x="620" d="M198 116h144q53 0 82 27t29 74t-30 74t-87 27h-138v-202zM323 604h-125v-170h118q45 0 71 23t26 62q0 40 -23.5 62.5t-66.5 22.5zM346 0h-274v720h260q99 0 155 -51.5t56 -139.5q0 -93 -94 -143q62 -14 99.5 -60t37.5 -111q0 -97 -63 -156t-177 -59z" />
<glyph unicode="C" horiz-adv-x="764" d="M410 -12q-158 0 -264 106t-106 266t107 266t263 106q119 0 197 -52.5t118 -139.5l-114 -64q-72 134 -201 134q-100 0 -167.5 -71.5t-67.5 -178.5t67.5 -178.5t167.5 -71.5q146 0 207 150l119 -49q-34 -102 -117 -162.5t-209 -60.5z" />
<glyph unicode="D" horiz-adv-x="701" d="M72 0v720h227q163 0 262.5 -98t99.5 -262q0 -157 -101.5 -258.5t-266.5 -101.5h-221zM198 604v-488h88q112 0 177.5 68t65.5 176q0 111 -64 177.5t-172 66.5h-95z" />
<glyph unicode="E" horiz-adv-x="548" d="M72 0v720h420v-116h-294v-170h284v-116h-284v-202h304v-116h-430z" />
<glyph unicode="F" horiz-adv-x="520" d="M72 0v720h410v-116h-284v-170h254v-116h-254v-318h-126z" />
<glyph unicode="G" horiz-adv-x="790" d="M410 732q208 0 304 -169l-113 -67q-73 114 -191 114q-100 0 -167.5 -71.5t-67.5 -178.5t67.5 -178.5t173.5 -71.5q82 0 135 45.5t66 115.5h-245v115h366v-386h-116v96q-75 -108 -222 -108q-149 0 -254.5 106.5t-105.5 265.5q0 160 107 266t263 106z" />
<glyph unicode="H" horiz-adv-x="724" d="M526 0v318h-328v-318h-126v720h126v-286h328v286h126v-720h-126z" />
<glyph unicode="I" horiz-adv-x="270" d="M198 720v-720h-126v720h126z" />
<glyph unicode="J" horiz-adv-x="392" d="M104 110q47 0 72.5 25t25.5 72v513h126v-525q0 -96 -56.5 -151.5t-156.5 -55.5q-55 0 -89 10l9 120q34 -8 69 -8z" />
<glyph unicode="K" horiz-adv-x="685" d="M675 0h-166l-211 321l-100 -114v-207h-126v720h126v-338l282 338h169l-262 -298z" />
<glyph unicode="L" horiz-adv-x="510" d="M72 0v720h126v-604h284v-116h-410z" />
<glyph unicode="M" horiz-adv-x="871" d="M222 720l212 -371l215 371h150v-720h-126v529l-197 -335h-95l-191 337v-531h-118v720h150z" />
<glyph unicode="N" horiz-adv-x="724" d="M519 0l-329 502v-502h-118v720h126l336 -510v510h118v-720h-133z" />
<glyph unicode="O" horiz-adv-x="820" d="M40 360q0 160 106 266t264 106t264 -106t106 -266q0 -155 -107 -263.5t-263 -108.5q-158 0 -264 106t-106 266zM174 360q0 -106 67.5 -178t168.5 -72q99 0 167.5 74t68.5 176q0 106 -67.5 178t-168.5 72t-168.5 -72t-67.5 -178z" />
<glyph unicode="P" horiz-adv-x="622" d="M342 604h-144v-212h138q58 0 90 28.5t32 77.5t-30.5 77.5t-85.5 28.5zM336 276h-138v-276h-126v720h274q116 0 181 -61t65 -161q0 -101 -67 -161.5t-189 -60.5z" />
<glyph unicode="Q" horiz-adv-x="820" d="M40 360q0 160 106 266t264 106t264 -106t106 -266q0 -89 -38.5 -166.5t-105.5 -129.5l70 -140l-103 -51l-68 136q-63 -21 -125 -21q-158 0 -264 106t-106 266zM520 298l57 -115q69 74 69 177q0 106 -67.5 178t-168.5 72t-168.5 -72t-67.5 -178t67.5 -178t168.5 -72 q34 0 69 11l-62 126z" />
<glyph unicode="R" horiz-adv-x="620" d="M303 297h-105v-297h-126v720h262q110 0 172 -58t62 -154q0 -133 -138 -188l164 -320h-146zM330 604h-132v-191h126q53 0 81.5 25.5t28.5 69.5t-27.5 70t-76.5 26z" />
<glyph unicode="S" horiz-adv-x="589" d="M252 459l155 -61q65 -24 104 -67q50 -55 50 -140q0 -87 -65.5 -145t-179.5 -58q-223 0 -284 195l120 53q21 -63 59 -94.5t105 -31.5q52 0 82 21t30 58q0 35 -19 57.5t-66 40.5l-148 57q-136 53 -136 181q0 88 64 147.5t164 59.5q173 0 242 -155l-114 -57q-48 90 -129 90 q-44 0 -70 -22t-26 -54q0 -51 62 -75z" />
<glyph unicode="T" horiz-adv-x="608" d="M367 604v-604h-126v604h-217v116h560v-116h-217z" />
<glyph unicode="U" horiz-adv-x="692" d="M508 720h118v-459q0 -128 -73.5 -200.5t-206.5 -72.5q-128 0 -204 74t-76 203v455h126v-448q0 -79 43 -120.5t116 -41.5q75 0 116 40t41 116v454z" />
<glyph unicode="V" horiz-adv-x="667" d="M335 177l190 543h132l-259 -720h-136l-252 720h140z" />
<glyph unicode="W" horiz-adv-x="1048" d="M761 202l141 518h134l-213 -720h-137l-162 537l-170 -537h-138l-204 720h141l140 -518l160 518h148z" />
<glyph unicode="X" horiz-adv-x="686" d="M500 720h148l-226 -352l246 -368h-161l-173 275l-163 -275h-153l242 378l-230 342h158l162 -253z" />
<glyph unicode="Y" horiz-adv-x="641" d="M322 429l172 291h139l-252 -418v-302h-126v302l-247 418h142z" />
<glyph unicode="Z" horiz-adv-x="663" d="M59 604v116h556v-110l-404 -494h424v-116h-603v98l414 506h-387z" />
<glyph unicode="[" horiz-adv-x="344" d="M187 -75h135v-94h-235v889h235v-94h-135v-701z" />
<glyph unicode="\" horiz-adv-x="390" d="M12 720h104l262 -720h-104z" />
<glyph unicode="]" horiz-adv-x="344" d="M22 -75h135v701h-135v94h235v-889h-235v94z" />
<glyph unicode="^" horiz-adv-x="500" d="M10 270l210 450h61l209 -450h-114l-125 296l-125 -296h-116z" />
<glyph unicode="_" horiz-adv-x="500" d="M500 -85v-84h-500v84h500z" />
<glyph unicode="`" horiz-adv-x="500" d="M287 720l60 -141h-93l-102 141h135z" />
<glyph unicode="a" horiz-adv-x="548" d="M363 231v25q-17 -10 -55 -21l-71 -19q-82 -22 -82 -74q0 -53 73 -53q54 0 94.5 37t40.5 105zM275 553q66 0 114 -23t71 -65q23 -43 23 -121v-219q0 -32 26 -32q12 0 19 1v-101q-20 -5 -45 -5q-96 0 -117 85l-3 12q-56 -97 -158 -97q-77 0 -123 40t-46 107q0 66 43 104 t133 56l104 21q25 5 36 16t11 34q0 37 -25 58t-68 21q-88 0 -101 -71l-119 8q9 73 69 122t156 49z" />
<glyph unicode="b" horiz-adv-x="649" d="M486 270q0 75 -42 124.5t-109 49.5q-68 0 -109.5 -46t-41.5 -128q0 -78 42.5 -126t109.5 -48q68 0 109 48t41 126zM611 270q0 -125 -72.5 -203.5t-177.5 -78.5q-108 0 -173 86v-74h-120v720h120v-266q64 99 178 99q103 0 174 -79.5t71 -203.5z" />
<glyph unicode="c" horiz-adv-x="587" d="M319 -12q-120 0 -200.5 80t-80.5 202t81.5 202.5t199.5 80.5q173 0 238 -143l-101 -59q-48 90 -136 90q-70 0 -115 -48.5t-45 -122.5q0 -73 45.5 -121.5t114.5 -48.5q97 0 139 102l108 -46q-26 -77 -88.5 -122.5t-159.5 -45.5z" />
<glyph unicode="d" horiz-adv-x="649" d="M163 271q0 -75 42 -124.5t109 -49.5q68 0 109.5 46t41.5 128q0 78 -42.5 126t-109.5 48q-68 0 -109 -48t-41 -126zM38 271q0 125 72.5 203.5t177.5 78.5q112 0 173 -93v260h120v-720h-120v79q-62 -91 -178 -91q-103 0 -174 79.5t-71 203.5z" />
<glyph unicode="e" horiz-adv-x="602" d="M164 322h277q-10 56 -45 88.5t-92 32.5q-52 0 -91 -33.5t-49 -87.5zM561 232h-399q6 -59 48 -96.5t104 -37.5q85 0 118 71l116 -17q-23 -75 -84.5 -119.5t-148.5 -44.5q-123 0 -199 77t-76 205q0 124 78 203.5t187 79.5q117 0 188 -78.5t71 -195.5q0 -27 -3 -47z" />
<glyph unicode="f" horiz-adv-x="348" d="M234 560v-19h100v-108h-100v-433h-120v433h-100v108h100v23q0 75 42 121.5t121 46.5q41 0 70 -8l-11 -108q-17 4 -43 4q-59 0 -59 -60z" />
<glyph unicode="g" horiz-adv-x="634" d="M566 541v-464q0 -121 -67.5 -189t-192.5 -68q-111 0 -176 50t-77 122l119 15q26 -80 135 -80q139 0 139 150v39q-58 -88 -163 -88q-103 0 -173 74.5t-70 188.5q0 115 70.5 188.5t171.5 73.5q104 0 164 -91v79h120zM165 290q0 -65 39.5 -109.5t103.5 -44.5t103.5 41 t39.5 113q0 70 -39.5 112.5t-103.5 42.5q-65 0 -104 -43t-39 -112z" />
<glyph unicode="h" horiz-adv-x="581" d="M347 553q65 0 107.5 -34t56.5 -89q8 -33 8 -103v-327h-120v299q0 44 -4 68q-16 75 -92 75q-41 0 -68.5 -21t-38.5 -57q-8 -28 -8 -73v-291h-120v720h120v-264q55 97 159 97z" />
<glyph unicode="i" horiz-adv-x="256" d="M188 541v-541h-120v541h120zM58 660q0 32 19 51t51 19t51 -19t19 -51t-19 -51t-51 -19t-51 19t-19 51z" />
<glyph unicode="j" horiz-adv-x="256" d="M188 541v-690l-120 -20v710h120zM58 660q0 32 19 51t51 19t51 -19t19 -51t-19 -51t-51 -19t-51 19t-19 51z" />
<glyph unicode="k" horiz-adv-x="561" d="M557 0h-158l-139 212l-72 -84v-128h-120v720h120v-418l197 239h155l-197 -232z" />
<glyph unicode="l" horiz-adv-x="256" d="M188 720v-720h-120v720h120z" />
<glyph unicode="m" horiz-adv-x="868" d="M642 553q64 0 103.5 -32.5t52.5 -84.5q8 -30 8 -96v-340h-120v312q0 41 -4 61q-14 69 -82 69q-34 0 -60.5 -22.5t-35.5 -55.5q-7 -28 -7 -72v-292h-120v312q0 41 -4 61q-14 69 -82 69q-34 0 -60.5 -22.5t-35.5 -55.5q-7 -28 -7 -72v-292h-120v541h120v-84q58 96 148 96 q55 0 92 -29t55 -77q23 45 65 75.5t94 30.5z" />
<glyph unicode="n" horiz-adv-x="581" d="M347 553q65 0 107.5 -34t56.5 -89q8 -33 8 -103v-327h-120v299q0 44 -4 68q-16 75 -92 75q-41 0 -68.5 -21t-38.5 -57q-8 -28 -8 -73v-291h-120v541h120v-85q55 97 159 97z" />
<glyph unicode="o" horiz-adv-x="642" d="M38 270q0 122 81.5 202.5t201.5 80.5t201.5 -80.5t81.5 -202.5q0 -117 -82 -199.5t-201 -82.5q-120 0 -201.5 80.5t-81.5 201.5zM160 270q0 -73 46 -121.5t115 -48.5q68 0 114.5 50t46.5 120q0 73 -46 122t-115 49t-115 -49t-46 -122z" />
<glyph unicode="p" horiz-adv-x="649" d="M486 270q0 75 -42 124.5t-109 49.5q-68 0 -109.5 -46t-41.5 -128q0 -78 42.5 -126t109.5 -48q68 0 109 48t41 126zM611 270q0 -125 -72.5 -203.5t-177.5 -78.5q-108 0 -173 86v-243h-120v710h120v-87q64 99 178 99q103 0 174 -79.5t71 -203.5z" />
<glyph unicode="q" horiz-adv-x="649" d="M163 271q0 -75 42 -124.5t109 -49.5q68 0 109.5 46t41.5 128q0 78 -42.5 126t-109.5 48q-68 0 -109 -48t-41 -126zM38 271q0 125 72.5 203.5t177.5 78.5q112 0 173 -93v81h120v-710h-120v248q-62 -91 -178 -91q-103 0 -174 79.5t-71 203.5z" />
<glyph unicode="r" horiz-adv-x="386" d="M376 551v-128q-25 5 -51 5q-102 0 -129 -97q-8 -30 -8 -88v-243h-120v541h120v-108q22 58 62 89t93 31q22 0 33 -2z" />
<glyph unicode="s" horiz-adv-x="448" d="M422 145q0 -70 -50.5 -113.5t-129.5 -43.5q-157 0 -213 127l98 64q37 -83 117 -83q31 0 47 13.5t16 33.5q0 33 -59 61l-87 41q-111 52 -111 150q0 64 49 111t122 47q117 0 176 -97l-91 -70q-37 59 -86 59q-25 0 -41 -12.5t-16 -31.5q0 -30 40 -49l92 -42q65 -29 96 -68.5 t31 -96.5z" />
<glyph unicode="t" horiz-adv-x="348" d="M334 433h-100v-433h-120v433h-100v108h100v110l120 20v-130h100v-108z" />
<glyph unicode="u" horiz-adv-x="581" d="M239 -12q-68 0 -111 35t-57 92q-9 37 -9 119v307h120v-304q0 -49 5 -71q14 -67 91 -67q41 0 68.5 21t38.5 57q8 28 8 73v291h120v-541h-120v85q-58 -97 -154 -97z" />
<glyph unicode="v" horiz-adv-x="554" d="M419 541h131l-212 -541h-128l-206 541h135l138 -381z" />
<glyph unicode="w" horiz-adv-x="852" d="M716 541h132l-176 -541h-128l-121 370l-124 -370h-132l-163 541h137l98 -370l122 370h135l117 -370z" />
<glyph unicode="x" horiz-adv-x="546" d="M378 541h144l-171 -264l185 -277h-151l-119 187l-106 -187h-150l180 289l-170 252h152l107 -168z" />
<glyph unicode="y" horiz-adv-x="565" d="M429 541h132l-300 -710h-134l91 198l-214 512h137l145 -362z" />
<glyph unicode="z" horiz-adv-x="531" d="M44 433v108h448v-86l-286 -347h301v-108h-483v75l294 358h-274z" />
<glyph unicode="{" horiz-adv-x="344" d="M12 239v74q58 0 76 25t18 77v142q0 78 42.5 120.5t107.5 42.5h66v-94h-50q-66 0 -66 -70v-151q0 -59 -19.5 -87t-68.5 -42q49 -14 68.5 -42t19.5 -87v-152q0 -70 66 -70h50v-94h-66q-65 0 -107.5 42.5t-42.5 120.5v143q0 52 -18 77t-76 25z" />
<glyph unicode="|" horiz-adv-x="250" d="M75 -169v1047h100v-1047h-100z" />
<glyph unicode="}" horiz-adv-x="344" d="M332 313v-74q-58 0 -76 -25t-18 -77v-143q0 -78 -42.5 -120.5t-107.5 -42.5h-66v94h50q66 0 66 70v152q0 59 19.5 87t68.5 42q-49 14 -68.5 42t-19.5 87v151q0 70 -66 70h-50v94h66q65 0 107.5 -42.5t42.5 -120.5v-142q0 -52 18 -77t76 -25z" />
<glyph unicode="~" d="M423 444l88 -8q0 -77 -35.5 -114.5t-91.5 -37.5q-40 0 -88 18l-58 21q-34 13 -54 13q-43 0 -43 -60l-88 8q0 77 35.5 114.5t92.5 37.5q37 0 90 -19l56 -20q37 -13 54 -13q42 0 42 60z" />
<glyph unicode="&#xa1;" horiz-adv-x="250" d="M60 206l40 321h50l40 -321v-206h-130v206zM48 655q0 35 21 56t56 21t56 -21t21 -56t-21 -56t-56 -21t-56 21t-21 56z" />
<glyph unicode="&#xa2;" horiz-adv-x="587" d="M281 -169v160q-106 13 -174.5 90.5t-68.5 188.5t69 189t174 91v170h70v-169q147 -12 206 -141l-101 -59q-39 73 -105 87v-335q72 13 108 99l108 -46q-24 -71 -78.5 -115t-137.5 -51v-159h-70zM160 270q0 -62 33.5 -107t87.5 -58v331q-54 -14 -87.5 -59t-33.5 -107z" />
<glyph unicode="&#xa3;" horiz-adv-x="633" d="M457 331h-194q33 -64 33 -113q0 -32 -15 -63q7 -2 21 -6.5t19 -6.5l70 -23q45 -15 62 -15q48 0 48 69l110 -9q0 -89 -40.5 -132.5t-105.5 -43.5q-52 0 -111 20l-71 24q-48 16 -65 16q-23 0 -35.5 -14.5t-12.5 -53.5l-107 7q0 71 28 113.5t75 56.5q12 27 12 52q0 9 -1 18 t-4.5 19t-5.5 16t-8 17.5t-8.5 16t-10.5 18.5t-10 17h-100v70h68q-14 39 -14 88q0 103 71.5 173t180.5 70q89 0 142 -35t90 -99l-105 -69q-49 81 -126 81q-50 0 -85 -34.5t-35 -88.5q0 -49 14 -86h226v-70z" />
<glyph unicode="&#xa5;" horiz-adv-x="641" d="M75 392h126l-193 328h142l172 -291l172 291h139l-198 -328h130v-70h-172l-12 -20v-60h184v-70h-184v-172h-126v172h-180v70h180v60l-12 20h-168v70z" />
<glyph unicode="&#xa6;" horiz-adv-x="250" d="M75 -169v397h100v-397h-100zM75 481v397h100v-397h-100z" />
<glyph unicode="&#xa7;" d="M349 317l-103 55q-26 14 -43 14q-17 -1 -29 -13t-12 -31q0 -42 59 -72l103 -53q27 -15 42 -15q16 0 29.5 11.5t13.5 33.5q0 38 -60 70zM420 152q71 -62 71 -145q0 -75 -55 -125.5t-144 -50.5q-154 0 -227 141l98 63q51 -92 126 -92q39 0 59.5 17.5t20.5 44.5 q0 28 -18 49.5t-63 45.5l-131 68q-117 61 -117 148q0 50 32.5 80.5t78.5 37.5q-53 57 -53 122q0 73 53.5 124.5t133.5 51.5q133 0 202 -124l-100 -61q-39 73 -99 73q-29 0 -48.5 -17t-19.5 -41q0 -21 15 -38.5t57 -39.5l143 -76q95 -51 95 -140q0 -92 -110 -116z" />
<glyph unicode="&#xa8;" horiz-adv-x="500" d="M100 664q0 28 17 45.5t46 17.5t46 -17.5t17 -45.5t-17 -45.5t-46 -17.5t-46 17.5t-17 45.5zM274 664q0 28 17 45.5t46 17.5t46 -17.5t17 -45.5t-17 -45.5t-46 -17.5t-46 17.5t-17 45.5z" />
<glyph unicode="&#xa9;" horiz-adv-x="824" d="M413 148q-87 0 -146 59.5t-59 148.5t59 148.5t146 59.5q126 0 181 -119l-79 -44q-42 75 -102 75q-48 0 -80 -34.5t-32 -85.5t32 -85.5t80 -34.5q70 0 104 83l82 -35q-21 -62 -68.5 -99t-117.5 -37zM412 -12q-160 0 -266 106t-106 266t106 266t266 106t266 -106t106 -266 t-106 -266t-266 -106zM693 360q0 122 -80 205t-201 83t-201 -83t-80 -205q0 -123 79.5 -205.5t201.5 -82.5q121 0 201 83t80 205z" />
<glyph unicode="&#xaa;" horiz-adv-x="425" d="M272 360v10q-14 -12 -46 -21l-49 -13q-47 -13 -47 -46q0 -15 12 -24.5t32 -9.5q41 0 69.5 26t28.5 78zM212 597q105 0 141 -68q17 -34 17 -91v-166q0 -16 14 -16q8 0 14 1v-83q-12 -3 -29 -3q-76 0 -97 68q-40 -68 -117 -68q-55 0 -89 31t-34 82q0 95 125 121l85 18 q30 6 30 31t-17 39.5t-47 14.5q-59 0 -69 -53l-99 6q8 59 54 97.5t118 38.5z" />
<glyph unicode="&#xab;" horiz-adv-x="484" d="M34 332l204 166v-129l-121 -98l121 -98v-129l-204 166v122zM238 332l204 166v-129l-121 -98l121 -98v-129l-204 166v122z" />
<glyph unicode="&#xac;" d="M507 510v-300h-100v200h-350v100h450z" />
<glyph unicode="&#xad;" horiz-adv-x="250" d="M230 325v-108h-210v108h210z" />
<glyph unicode="&#xae;" horiz-adv-x="824" d="M399 311h-35v-156h-90v402h150q63 0 98.5 -33.5t35.5 -89.5q0 -70 -71 -104l93 -175h-104zM421 473h-57v-78h54q47 0 47 39t-44 39zM412 -12q-160 0 -266 106t-106 266t106 266t266 106t266 -106t106 -266t-106 -266t-266 -106zM693 360q0 122 -80 205t-201 83t-201 -83 t-80 -205q0 -123 79.5 -205.5t201.5 -82.5q121 0 201 83t80 205z" />
<glyph unicode="&#xaf;" horiz-adv-x="500" d="M107 636v84h286v-84h-286z" />
<glyph unicode="&#xb0;" horiz-adv-x="410" d="M32 559q0 74 50 123.5t123 49.5t123 -49.5t50 -123.5q0 -71 -50.5 -121.5t-122.5 -50.5q-73 0 -123 49t-50 123zM125 559q0 -36 23 -58.5t57 -22.5t56.5 23.5t22.5 57.5q0 36 -22.5 59t-56.5 23t-57 -23t-23 -59z" />
<glyph unicode="&#xb1;" d="M332 224h175v-100h-450v100h175v120h-175v100h175v155h100v-155h175v-100h-175v-120z" />
<glyph unicode="&#xb2;" horiz-adv-x="422" d="M386 274v-94h-354v27q0 48 12 84q19 52 85 104l79 63q40 32 54 52.5t14 47.5q0 32 -21 53t-52 21q-58 0 -91 -79l-80 42q23 60 67.5 97t107.5 37q76 0 123 -49t47 -121q0 -57 -22 -91t-83 -81l-85 -64q-37 -28 -40 -49h239z" />
<glyph unicode="&#xb3;" horiz-adv-x="411" d="M201 267q33 0 54 19.5t21 52.5q0 53 -46 72q-17 8 -61 8h-33v89h22q47 0 68 9q35 14 35 55q0 26 -18 44t-46 18q-47 0 -82 -53l-72 54q63 94 158 94q69 0 112.5 -43t43.5 -111q0 -79 -65 -109q38 -15 61.5 -51t23.5 -82q0 -74 -49 -118t-121 -44q-122 0 -180 103l77 56 q40 -63 97 -63z" />
<glyph unicode="&#xb4;" horiz-adv-x="500" d="M152 579l60 141h135l-102 -141h-93z" />
<glyph unicode="&#xb5;" horiz-adv-x="587" d="M68 -169v710h120v-336q0 -39 4 -59q12 -57 83 -57q38 0 71 24.5t45 63.5q8 28 8 73v291h120v-541h-120v85q-58 -97 -154 -97q-30 0 -57 8v-165h-120z" />
<glyph unicode="&#xb6;" horiz-adv-x="638" d="M256 -169v516q-97 0 -156.5 51.5t-59.5 131.5q0 97 62 143.5t172 46.5h292v-889h-101v791h-109v-791h-100z" />
<glyph unicode="&#xb7;" horiz-adv-x="250" d="M48 360q0 34 21 55.5t56 21.5t56 -21.5t21 -55.5t-21 -55.5t-56 -21.5t-56 21.5t-21 55.5z" />
<glyph unicode="&#xb8;" horiz-adv-x="500" d="M146 -159l16 46q35 -15 64 -15q39 0 39 23t-30 23q-18 0 -33 -11l-24 30l60 83h43l-40 -58q12 4 32 4q36 0 58.5 -21t22.5 -51q0 -34 -26.5 -54.5t-80.5 -20.5q-55 0 -101 22z" />
<glyph unicode="&#xb9;" horiz-adv-x="309" d="M24 558v77h17q101 0 131 85h74v-540h-102v378h-120z" />
<glyph unicode="&#xba;" horiz-adv-x="495" d="M32 383q0 92 61.5 153t152.5 61t152 -61t61 -153q0 -88 -61.5 -150t-151.5 -62q-91 0 -152.5 60.5t-61.5 151.5zM132 383q0 -51 32.5 -85.5t81.5 -34.5q48 0 80.5 35.5t32.5 84.5q0 53 -32 87.5t-81 34.5t-81.5 -35t-32.5 -87z" />
<glyph unicode="&#xbb;" horiz-adv-x="484" d="M42 498l204 -166v-122l-204 -166v129l121 98l-121 98v129zM246 498l204 -166v-122l-204 -166v129l121 98l-121 98v129z" />
<glyph unicode="&#xbc;" horiz-adv-x="1005" d="M24 558v77h17q101 0 131 85h74v-540h-102v378h-120zM267 0l298 720h105l-297 -720h-106zM824 406l-135 -188h135v188zM980 218v-88h-57v-130h-99v130h-231v96l229 314h101v-322h57z" />
<glyph unicode="&#xbd;" horiz-adv-x="1050" d="M24 558v77h17q101 0 131 85h74v-540h-102v378h-120zM267 0l298 720h105l-297 -720h-106zM1014 94v-94h-354v27q0 48 12 84q19 52 85 104l79 63q40 32 54 52.5t14 47.5q0 32 -21 53t-52 21q-58 0 -91 -79l-80 42q23 60 67.5 97t107.5 37q76 0 123 -49t47 -121 q0 -57 -22 -91t-83 -81l-85 -64q-37 -28 -40 -49h239z" />
<glyph unicode="&#xbe;" horiz-adv-x="1107" d="M201 267q33 0 54 19.5t21 52.5q0 53 -46 72q-17 8 -61 8h-33v89h22q47 0 68 9q35 14 35 55q0 26 -18 44t-46 18q-47 0 -82 -53l-72 54q63 94 158 94q69 0 112.5 -43t43.5 -111q0 -79 -65 -109q38 -15 61.5 -51t23.5 -82q0 -74 -49 -118t-121 -44q-122 0 -180 103l77 56 q40 -63 97 -63zM369 0l298 720h105l-297 -720h-106zM926 406l-135 -188h135v188zM1082 218v-88h-57v-130h-99v130h-231v96l229 314h101v-322h57z" />
<glyph unicode="&#xbf;" horiz-adv-x="481" d="M216 527h64q8 -30 8 -56q0 -75 -71 -146l-21 -21q-49 -50 -49 -103q0 -40 26 -69.5t67 -29.5q75 0 114 91l92 -51q-25 -69 -81 -111.5t-127 -42.5q-95 0 -153 60t-58 150q0 92 86 172l16 15q48 45 66 74t21 68zM320 655q0 -35 -21 -56t-56 -21t-56 21t-21 56t21 56t56 21 t56 -21t21 -56z" />
<glyph unicode="&#xc0;" horiz-adv-x="711" d="M140 0h-130l286 720h126l279 -720h-136l-60 158h-304zM355 551l-109 -279h215zM364 878l50 -120h-93l-102 120h145z" />
<glyph unicode="&#xc1;" horiz-adv-x="711" d="M140 0h-130l286 720h126l279 -720h-136l-60 158h-304zM355 551l-109 -279h215zM299 758l50 120h145l-102 -120h-93z" />
<glyph unicode="&#xc2;" horiz-adv-x="711" d="M140 0h-130l286 720h126l279 -720h-136l-60 158h-304zM355 551l-109 -279h215zM420 878l120 -121h-119l-64 50l-64 -50h-119l120 121h126z" />
<glyph unicode="&#xc3;" horiz-adv-x="711" d="M140 0h-130l286 720h126l279 -720h-136l-60 158h-304zM355 551l-109 -279h215zM346 768q-43 18 -60 18q-28 0 -32 -40l-70 10q1 57 30 89.5t73 32.5q26 0 77 -22q43 -18 60 -18q28 0 32 40l70 -10q-1 -57 -30 -89.5t-73 -32.5q-26 0 -77 22z" />
<glyph unicode="&#xc4;" horiz-adv-x="711" d="M140 0h-130l286 720h126l279 -720h-136l-60 158h-304zM355 551l-109 -279h215zM207 822q0 28 17.5 45.5t45.5 17.5t45.5 -17.5t17.5 -45.5t-17.5 -45.5t-45.5 -17.5t-45.5 17.5t-17.5 45.5zM381 822q0 28 17.5 45.5t45.5 17.5t45.5 -17.5t17.5 -45.5t-17.5 -45.5 t-45.5 -17.5t-45.5 17.5t-17.5 45.5z" />
<glyph unicode="&#xc5;" horiz-adv-x="711" d="M242 764q0 48 34 81t81 33t81 -33t34 -81t-35 -83l264 -681h-136l-60 158h-304l-61 -158h-130l270 679q-38 33 -38 85zM355 551l-109 -279h215zM311 764q0 -20 13.5 -33.5t32.5 -13.5t32.5 13.5t13.5 33.5t-13.5 33.5t-32.5 13.5t-32.5 -13.5t-13.5 -33.5z" />
<glyph unicode="&#xc6;" horiz-adv-x="996" d="M520 0v158h-264l-97 -158h-149l460 720h470v-116h-294v-170h284v-116h-284v-202h304v-116h-430zM520 588l-194 -316h194v316z" />
<glyph unicode="&#xc7;" horiz-adv-x="764" d="M291 -159l16 46q35 -15 64 -15q39 0 39 23t-30 23q-18 0 -33 -11l-24 30l39 54q-140 17 -231 119.5t-91 249.5q0 160 107 266t263 106q119 0 197 -52.5t118 -139.5l-114 -64q-72 134 -201 134q-100 0 -167.5 -71.5t-67.5 -178.5t67.5 -178.5t167.5 -71.5q146 0 207 150 l119 -49q-34 -102 -117 -162.5t-209 -60.5h-6l-18 -26q12 4 32 4q36 0 58.5 -21t22.5 -51q0 -34 -26.5 -54.5t-80.5 -20.5q-55 0 -101 22z" />
<glyph unicode="&#xc8;" horiz-adv-x="548" d="M72 0v720h420v-116h-294v-170h284v-116h-284v-202h304v-116h-430zM291 878l50 -120h-93l-102 120h145z" />
<glyph unicode="&#xc9;" horiz-adv-x="548" d="M72 0v720h420v-116h-294v-170h284v-116h-284v-202h304v-116h-430zM226 758l50 120h145l-102 -120h-93z" />
<glyph unicode="&#xca;" horiz-adv-x="548" d="M72 0v720h420v-116h-294v-170h284v-116h-284v-202h304v-116h-430zM347 878l120 -121h-119l-64 50l-64 -50h-119l120 121h126z" />
<glyph unicode="&#xcb;" horiz-adv-x="548" d="M72 0v720h420v-116h-294v-170h284v-116h-284v-202h304v-116h-430zM134 822q0 28 17 45.5t46 17.5t46 -17.5t17 -45.5t-17 -45.5t-46 -17.5t-46 17.5t-17 45.5zM308 822q0 28 17 45.5t46 17.5t46 -17.5t17 -45.5t-17 -45.5t-46 -17.5t-46 17.5t-17 45.5z" />
<glyph unicode="&#xcc;" horiz-adv-x="270" d="M198 720v-720h-126v720h126zM143 878l50 -120h-93l-102 120h145z" />
<glyph unicode="&#xcd;" horiz-adv-x="270" d="M198 720v-720h-126v720h126zM78 758l50 120h145l-102 -120h-93z" />
<glyph unicode="&#xce;" horiz-adv-x="270" d="M198 720v-720h-126v720h126zM198 878l120 -121h-119l-64 50l-64 -50h-119l120 121h126z" />
<glyph unicode="&#xcf;" horiz-adv-x="270" d="M198 720v-720h-126v720h126zM-15 822q0 28 17.5 45.5t45.5 17.5t45.5 -17.5t17.5 -45.5t-17.5 -45.5t-45.5 -17.5t-45.5 17.5t-17.5 45.5zM159 822q0 28 17.5 45.5t45.5 17.5t45.5 -17.5t17.5 -45.5t-17.5 -45.5t-45.5 -17.5t-45.5 17.5t-17.5 45.5z" />
<glyph unicode="&#xd0;" horiz-adv-x="734" d="M12 395h93v325h227q163 0 262.5 -98t99.5 -262q0 -157 -101.5 -258.5t-266.5 -101.5h-221v325h-93v70zM231 604v-209h202v-70h-202v-209h88q112 0 177.5 68t65.5 176q0 111 -64 177.5t-172 66.5h-95z" />
<glyph unicode="&#xd1;" horiz-adv-x="724" d="M519 0l-329 502v-502h-118v720h126l336 -510v510h118v-720h-133zM363 768q-43 18 -60 18q-28 0 -32 -40l-70 10q1 57 30 89.5t73 32.5q26 0 77 -22q43 -18 60 -18q28 0 32 40l70 -10q-1 -57 -30 -89.5t-73 -32.5q-26 0 -77 22z" />
<glyph unicode="&#xd2;" horiz-adv-x="820" d="M40 360q0 160 106 266t264 106t264 -106t106 -266q0 -155 -107 -263.5t-263 -108.5q-158 0 -264 106t-106 266zM174 360q0 -106 67.5 -178t168.5 -72q99 0 167.5 74t68.5 176q0 106 -67.5 178t-168.5 72t-168.5 -72t-67.5 -178zM417 878l50 -120h-93l-102 120h145z" />
<glyph unicode="&#xd3;" horiz-adv-x="820" d="M40 360q0 160 106 266t264 106t264 -106t106 -266q0 -155 -107 -263.5t-263 -108.5q-158 0 -264 106t-106 266zM174 360q0 -106 67.5 -178t168.5 -72q99 0 167.5 74t68.5 176q0 106 -67.5 178t-168.5 72t-168.5 -72t-67.5 -178zM352 758l50 120h145l-102 -120h-93z" />
<glyph unicode="&#xd4;" horiz-adv-x="820" d="M40 360q0 160 106 266t264 106t264 -106t106 -266q0 -155 -107 -263.5t-263 -108.5q-158 0 -264 106t-106 266zM174 360q0 -106 67.5 -178t168.5 -72q99 0 167.5 74t68.5 176q0 106 -67.5 178t-168.5 72t-168.5 -72t-67.5 -178zM473 878l120 -121h-119l-64 50l-64 -50 h-119l120 121h126z" />
<glyph unicode="&#xd5;" horiz-adv-x="820" d="M40 360q0 160 106 266t264 106t264 -106t106 -266q0 -155 -107 -263.5t-263 -108.5q-158 0 -264 106t-106 266zM174 360q0 -106 67.5 -178t168.5 -72q99 0 167.5 74t68.5 176q0 106 -67.5 178t-168.5 72t-168.5 -72t-67.5 -178zM401 768q-43 18 -60 18q-28 0 -32 -40 l-70 10q1 57 30 89.5t73 32.5q26 0 77 -22q43 -18 60 -18q28 0 32 40l70 -10q-1 -57 -30 -89.5t-73 -32.5q-26 0 -77 22z" />
<glyph unicode="&#xd6;" horiz-adv-x="820" d="M40 360q0 160 106 266t264 106t264 -106t106 -266q0 -155 -107 -263.5t-263 -108.5q-158 0 -264 106t-106 266zM174 360q0 -106 67.5 -178t168.5 -72q99 0 167.5 74t68.5 176q0 106 -67.5 178t-168.5 72t-168.5 -72t-67.5 -178zM260 822q0 28 17 45.5t46 17.5t46 -17.5 t17 -45.5t-17 -45.5t-46 -17.5t-46 17.5t-17 45.5zM434 822q0 28 17 45.5t46 17.5t46 -17.5t17 -45.5t-17 -45.5t-46 -17.5t-46 17.5t-17 45.5z" />
<glyph unicode="&#xd7;" d="M282 431l124 123l70 -70l-123 -124l123 -124l-70 -70l-124 123l-124 -123l-70 70l123 124l-123 124l70 70z" />
<glyph unicode="&#xd8;" horiz-adv-x="820" d="M15 15l106 106q-81 102 -81 239q0 160 106 266t264 106q138 0 239 -84l107 107l49 -49l-107 -107q82 -103 82 -239q0 -155 -107 -263.5t-263 -108.5q-137 0 -239 83l-106 -106zM174 360q0 -80 41 -145l343 342q-64 53 -148 53q-101 0 -168.5 -72t-67.5 -178zM646 360 q0 79 -42 145l-342 -342q62 -53 148 -53q99 0 167.5 74t68.5 176z" />
<glyph unicode="&#xd9;" horiz-adv-x="692" d="M508 720h118v-459q0 -128 -73.5 -200.5t-206.5 -72.5q-128 0 -204 74t-76 203v455h126v-448q0 -79 43 -120.5t116 -41.5q75 0 116 40t41 116v454zM353 878l50 -120h-93l-102 120h145z" />
<glyph unicode="&#xda;" horiz-adv-x="692" d="M508 720h118v-459q0 -128 -73.5 -200.5t-206.5 -72.5q-128 0 -204 74t-76 203v455h126v-448q0 -79 43 -120.5t116 -41.5q75 0 116 40t41 116v454zM288 758l50 120h145l-102 -120h-93z" />
<glyph unicode="&#xdb;" horiz-adv-x="692" d="M508 720h118v-459q0 -128 -73.5 -200.5t-206.5 -72.5q-128 0 -204 74t-76 203v455h126v-448q0 -79 43 -120.5t116 -41.5q75 0 116 40t41 116v454zM409 878l120 -121h-119l-64 50l-64 -50h-119l120 121h126z" />
<glyph unicode="&#xdc;" horiz-adv-x="692" d="M508 720h118v-459q0 -128 -73.5 -200.5t-206.5 -72.5q-128 0 -204 74t-76 203v455h126v-448q0 -79 43 -120.5t116 -41.5q75 0 116 40t41 116v454zM196 822q0 28 17 45.5t46 17.5t46 -17.5t17 -45.5t-17 -45.5t-46 -17.5t-46 17.5t-17 45.5zM370 822q0 28 17 45.5t46 17.5 t46 -17.5t17 -45.5t-17 -45.5t-46 -17.5t-46 17.5t-17 45.5z" />
<glyph unicode="&#xdd;" horiz-adv-x="641" d="M322 429l172 291h139l-252 -418v-302h-126v302l-247 418h142zM266 758l50 120h145l-102 -120h-93z" />
<glyph unicode="&#xde;" horiz-adv-x="628" d="M336 154h-138v-154h-126v720h126v-122h148q116 0 181 -61t65 -161q0 -101 -67 -161.5t-189 -60.5zM342 482h-144v-212h138q58 0 90 28.5t32 77.5t-30.5 77.5t-85.5 28.5z" />
<glyph unicode="&#xdf;" horiz-adv-x="559" d="M68 0v503q0 103 57.5 166t151.5 63q92 0 151 -56.5t59 -138.5q0 -100 -92 -144q61 -19 99.5 -68t38.5 -126q0 -96 -64.5 -153.5t-166.5 -57.5q-31 0 -65 8l6 109q22 -5 49 -5q54 0 87 29.5t33 80.5q0 79 -71 109q-26 11 -90 11h-16v108q59 0 83 10q48 22 48 82 q0 38 -25.5 64t-63.5 26q-41 0 -65 -29t-24 -80v-511h-120z" />
<glyph unicode="&#xe0;" horiz-adv-x="548" d="M363 231v25q-17 -10 -55 -21l-71 -19q-82 -22 -82 -74q0 -53 73 -53q54 0 94.5 37t40.5 105zM275 553q66 0 114 -23t71 -65q23 -43 23 -121v-219q0 -32 26 -32q12 0 19 1v-101q-20 -5 -45 -5q-96 0 -117 85l-3 12q-56 -97 -158 -97q-77 0 -123 40t-46 107q0 66 43 104 t133 56l104 21q25 5 36 16t11 34q0 37 -25 58t-68 21q-88 0 -101 -71l-119 8q9 73 69 122t156 49zM271 720l60 -141h-93l-102 141h135z" />
<glyph unicode="&#xe1;" horiz-adv-x="548" d="M363 231v25q-17 -10 -55 -21l-71 -19q-82 -22 -82 -74q0 -53 73 -53q54 0 94.5 37t40.5 105zM275 553q66 0 114 -23t71 -65q23 -43 23 -121v-219q0 -32 26 -32q12 0 19 1v-101q-20 -5 -45 -5q-96 0 -117 85l-3 12q-56 -97 -158 -97q-77 0 -123 40t-46 107q0 66 43 104 t133 56l104 21q25 5 36 16t11 34q0 37 -25 58t-68 21q-88 0 -101 -71l-119 8q9 73 69 122t156 49zM216 579l60 141h135l-102 -141h-93z" />
<glyph unicode="&#xe2;" horiz-adv-x="548" d="M363 231v25q-17 -10 -55 -21l-71 -19q-82 -22 -82 -74q0 -53 73 -53q54 0 94.5 37t40.5 105zM275 553q66 0 114 -23t71 -65q23 -43 23 -121v-219q0 -32 26 -32q12 0 19 1v-101q-20 -5 -45 -5q-96 0 -117 85l-3 12q-56 -97 -158 -97q-77 0 -123 40t-46 107q0 66 43 104 t133 56l104 21q25 5 36 16t11 34q0 37 -25 58t-68 21q-88 0 -101 -71l-119 8q9 73 69 122t156 49zM337 720l110 -141h-113l-60 68l-60 -68h-113l110 141h126z" />
<glyph unicode="&#xe3;" horiz-adv-x="548" d="M363 231v25q-17 -10 -55 -21l-71 -19q-82 -22 -82 -74q0 -53 73 -53q54 0 94.5 37t40.5 105zM275 553q66 0 114 -23t71 -65q23 -43 23 -121v-219q0 -32 26 -32q12 0 19 1v-101q-20 -5 -45 -5q-96 0 -117 85l-3 12q-56 -97 -158 -97q-77 0 -123 40t-46 107q0 66 43 104 t133 56l104 21q25 5 36 16t11 34q0 37 -25 58t-68 21q-88 0 -101 -71l-119 8q9 73 69 122t156 49zM265 610q-43 18 -60 18q-28 0 -32 -40l-70 10q1 57 30 89.5t73 32.5q26 0 77 -22q43 -18 60 -18q28 0 32 40l70 -10q-1 -57 -30 -89.5t-73 -32.5q-26 0 -77 22z" />
<glyph unicode="&#xe4;" horiz-adv-x="548" d="M363 231v25q-17 -10 -55 -21l-71 -19q-82 -22 -82 -74q0 -53 73 -53q54 0 94.5 37t40.5 105zM275 553q66 0 114 -23t71 -65q23 -43 23 -121v-219q0 -32 26 -32q12 0 19 1v-101q-20 -5 -45 -5q-96 0 -117 85l-3 12q-56 -97 -158 -97q-77 0 -123 40t-46 107q0 66 43 104 t133 56l104 21q25 5 36 16t11 34q0 37 -25 58t-68 21q-88 0 -101 -71l-119 8q9 73 69 122t156 49zM124 664q0 28 17 45.5t46 17.5t46 -17.5t17 -45.5t-17 -45.5t-46 -17.5t-46 17.5t-17 45.5zM298 664q0 28 17 45.5t46 17.5t46 -17.5t17 -45.5t-17 -45.5t-46 -17.5t-46 17.5 t-17 45.5z" />
<glyph unicode="&#xe5;" horiz-adv-x="548" d="M363 231v25q-17 -10 -55 -21l-71 -19q-82 -22 -82 -74q0 -53 73 -53q54 0 94.5 37t40.5 105zM275 553q66 0 114 -23t71 -65q23 -43 23 -121v-219q0 -32 26 -32q12 0 19 1v-101q-20 -5 -45 -5q-96 0 -117 85l-3 12q-56 -97 -158 -97q-77 0 -123 40t-46 107q0 66 43 104 t133 56l104 21q25 5 36 16t11 34q0 37 -25 58t-68 21q-88 0 -101 -71l-119 8q9 73 69 122t156 49zM159 693q0 48 34 81t81 33t81 -33t34 -81t-34 -81t-81 -33t-81 33t-34 81zM228 693q0 -20 13.5 -33.5t32.5 -13.5t32.5 13.5t13.5 33.5t-13.5 33.5t-32.5 13.5t-32.5 -13.5 t-13.5 -33.5z" />
<glyph unicode="&#xe6;" horiz-adv-x="923" d="M205 -12q-77 0 -123 40t-46 107q0 66 43 104t133 56l104 21q25 5 36 16t11 34q0 37 -25 58t-68 21q-88 0 -101 -71l-119 8q9 73 69 122t156 49q119 0 173 -71q76 71 178 71q117 0 188 -78.5t71 -195.5q0 -27 -3 -47h-399q6 -59 48 -96.5t104 -37.5q85 0 118 71l116 -17 q-23 -75 -84.5 -119.5t-148.5 -44.5q-79 0 -140.5 33t-96.5 94q-59 -127 -194 -127zM485 322h277q-10 56 -45 88.5t-92 32.5q-52 0 -91 -33.5t-49 -87.5zM363 231v25q-17 -10 -55 -21l-71 -19q-82 -22 -82 -74q0 -53 73 -53q54 0 94.5 37t40.5 105z" />
<glyph unicode="&#xe7;" horiz-adv-x="587" d="M196 -159l16 46q35 -15 64 -15q39 0 39 23t-30 23q-18 0 -33 -11l-24 30l40 56q-101 17 -165.5 93t-64.5 184q0 122 81.5 202.5t199.5 80.5q173 0 238 -143l-101 -59q-48 90 -136 90q-70 0 -115 -48.5t-45 -122.5q0 -73 45.5 -121.5t114.5 -48.5q97 0 139 102l108 -46 q-26 -77 -88.5 -122.5t-159.5 -45.5h-10l-18 -26q12 4 32 4q36 0 58.5 -21t22.5 -51q0 -34 -26.5 -54.5t-80.5 -20.5q-55 0 -101 22z" />
<glyph unicode="&#xe8;" horiz-adv-x="602" d="M164 322h277q-10 56 -45 88.5t-92 32.5q-52 0 -91 -33.5t-49 -87.5zM561 232h-399q6 -59 48 -96.5t104 -37.5q85 0 118 71l116 -17q-23 -75 -84.5 -119.5t-148.5 -44.5q-123 0 -199 77t-76 205q0 124 78 203.5t187 79.5q117 0 188 -78.5t71 -195.5q0 -27 -3 -47zM308 720 l60 -141h-93l-102 141h135z" />
<glyph unicode="&#xe9;" horiz-adv-x="602" d="M164 322h277q-10 56 -45 88.5t-92 32.5q-52 0 -91 -33.5t-49 -87.5zM561 232h-399q6 -59 48 -96.5t104 -37.5q85 0 118 71l116 -17q-23 -75 -84.5 -119.5t-148.5 -44.5q-123 0 -199 77t-76 205q0 124 78 203.5t187 79.5q117 0 188 -78.5t71 -195.5q0 -27 -3 -47zM253 579 l60 141h135l-102 -141h-93z" />
<glyph unicode="&#xea;" horiz-adv-x="602" d="M164 322h277q-10 56 -45 88.5t-92 32.5q-52 0 -91 -33.5t-49 -87.5zM561 232h-399q6 -59 48 -96.5t104 -37.5q85 0 118 71l116 -17q-23 -75 -84.5 -119.5t-148.5 -44.5q-123 0 -199 77t-76 205q0 124 78 203.5t187 79.5q117 0 188 -78.5t71 -195.5q0 -27 -3 -47zM374 720 l110 -141h-113l-60 68l-60 -68h-113l110 141h126z" />
<glyph unicode="&#xeb;" horiz-adv-x="602" d="M164 322h277q-10 56 -45 88.5t-92 32.5q-52 0 -91 -33.5t-49 -87.5zM561 232h-399q6 -59 48 -96.5t104 -37.5q85 0 118 71l116 -17q-23 -75 -84.5 -119.5t-148.5 -44.5q-123 0 -199 77t-76 205q0 124 78 203.5t187 79.5q117 0 188 -78.5t71 -195.5q0 -27 -3 -47zM161 664 q0 28 17.5 45.5t45.5 17.5t45.5 -17.5t17.5 -45.5t-17.5 -45.5t-45.5 -17.5t-45.5 17.5t-17.5 45.5zM335 664q0 28 17.5 45.5t45.5 17.5t45.5 -17.5t17.5 -45.5t-17.5 -45.5t-45.5 -17.5t-45.5 17.5t-17.5 45.5z" />
<glyph unicode="&#xec;" horiz-adv-x="256" d="M188 541v-541h-120v541h120zM126 720l60 -141h-93l-102 141h135z" />
<glyph unicode="&#xed;" horiz-adv-x="256" d="M188 541v-541h-120v541h120zM71 579l60 141h135l-102 -141h-93z" />
<glyph unicode="&#xee;" horiz-adv-x="256" d="M188 541v-541h-120v541h120zM191 720l110 -141h-113l-60 68l-60 -68h-113l110 141h126z" />
<glyph unicode="&#xef;" horiz-adv-x="256" d="M188 541v-541h-120v541h120zM-22 664q0 28 17 45.5t46 17.5t46 -17.5t17 -45.5t-17 -45.5t-46 -17.5t-46 17.5t-17 45.5zM152 664q0 28 17 45.5t46 17.5t46 -17.5t17 -45.5t-17 -45.5t-46 -17.5t-46 17.5t-17 45.5z" />
<glyph unicode="&#xf0;" horiz-adv-x="622" d="M240 720h133l28 -54l130 22l12 -69l-106 -19l96 -167q53 -91 53 -179q0 -110 -79.5 -188t-193.5 -78q-116 0 -194.5 75.5t-78.5 190.5q0 113 80 185t193 72q5 0 13 -0.5t17.5 -2t12.5 -1.5l-40 73l-151 -26l-11 70l126 21zM162 252q0 -66 43.5 -109t108.5 -43 q64 0 107 44t43 108q0 67 -42.5 110t-107.5 43q-66 0 -109 -43.5t-43 -109.5z" />
<glyph unicode="&#xf1;" horiz-adv-x="581" d="M347 553q65 0 107.5 -34t56.5 -89q8 -33 8 -103v-327h-120v299q0 44 -4 68q-16 75 -92 75q-41 0 -68.5 -21t-38.5 -57q-8 -28 -8 -73v-291h-120v541h120v-85q55 97 159 97zM291 610q-43 18 -60 18q-28 0 -32 -40l-70 10q1 57 30 89.5t73 32.5q26 0 77 -22q43 -18 60 -18 q28 0 32 40l70 -10q-1 -57 -30 -89.5t-73 -32.5q-26 0 -77 22z" />
<glyph unicode="&#xf2;" horiz-adv-x="642" d="M38 270q0 122 81.5 202.5t201.5 80.5t201.5 -80.5t81.5 -202.5q0 -117 -82 -199.5t-201 -82.5q-120 0 -201.5 80.5t-81.5 201.5zM160 270q0 -73 46 -121.5t115 -48.5q68 0 114.5 50t46.5 120q0 73 -46 122t-115 49t-115 -49t-46 -122zM318 720l60 -141h-93l-102 141h135z " />
<glyph unicode="&#xf3;" horiz-adv-x="642" d="M38 270q0 122 81.5 202.5t201.5 80.5t201.5 -80.5t81.5 -202.5q0 -117 -82 -199.5t-201 -82.5q-120 0 -201.5 80.5t-81.5 201.5zM160 270q0 -73 46 -121.5t115 -48.5q68 0 114.5 50t46.5 120q0 73 -46 122t-115 49t-115 -49t-46 -122zM263 579l60 141h135l-102 -141h-93z " />
<glyph unicode="&#xf4;" horiz-adv-x="642" d="M38 270q0 122 81.5 202.5t201.5 80.5t201.5 -80.5t81.5 -202.5q0 -117 -82 -199.5t-201 -82.5q-120 0 -201.5 80.5t-81.5 201.5zM160 270q0 -73 46 -121.5t115 -48.5q68 0 114.5 50t46.5 120q0 73 -46 122t-115 49t-115 -49t-46 -122zM384 720l110 -141h-113l-60 68 l-60 -68h-113l110 141h126z" />
<glyph unicode="&#xf5;" horiz-adv-x="642" d="M38 270q0 122 81.5 202.5t201.5 80.5t201.5 -80.5t81.5 -202.5q0 -117 -82 -199.5t-201 -82.5q-120 0 -201.5 80.5t-81.5 201.5zM160 270q0 -73 46 -121.5t115 -48.5q68 0 114.5 50t46.5 120q0 73 -46 122t-115 49t-115 -49t-46 -122zM312 610q-43 18 -60 18 q-28 0 -32 -40l-70 10q1 57 30 89.5t73 32.5q26 0 77 -22q43 -18 60 -18q28 0 32 40l70 -10q-1 -57 -30 -89.5t-73 -32.5q-26 0 -77 22z" />
<glyph unicode="&#xf6;" horiz-adv-x="642" d="M38 270q0 122 81.5 202.5t201.5 80.5t201.5 -80.5t81.5 -202.5q0 -117 -82 -199.5t-201 -82.5q-120 0 -201.5 80.5t-81.5 201.5zM160 270q0 -73 46 -121.5t115 -48.5q68 0 114.5 50t46.5 120q0 73 -46 122t-115 49t-115 -49t-46 -122zM171 664q0 28 17.5 45.5t45.5 17.5 t45.5 -17.5t17.5 -45.5t-17.5 -45.5t-45.5 -17.5t-45.5 17.5t-17.5 45.5zM345 664q0 28 17.5 45.5t45.5 17.5t45.5 -17.5t17.5 -45.5t-17.5 -45.5t-45.5 -17.5t-45.5 17.5t-17.5 45.5z" />
<glyph unicode="&#xf7;" d="M57 410h450v-100h-450v100zM226 184q0 25 15.5 40.5t40.5 15.5t40.5 -15.5t15.5 -40.5t-15.5 -40.5t-40.5 -15.5t-40.5 15.5t-15.5 40.5zM226 535q0 25 15.5 40.5t40.5 15.5t40.5 -15.5t15.5 -40.5t-15.5 -40.5t-40.5 -15.5t-40.5 15.5t-15.5 40.5z" />
<glyph unicode="&#xf8;" horiz-adv-x="658" d="M20 13l83 83q-57 74 -57 174q0 122 81.5 202.5t201.5 80.5q100 0 175 -58l85 85l49 -49l-85 -85q59 -75 59 -176q0 -117 -82 -199.5t-201 -82.5q-101 0 -176 58l-83 -83zM490 270q0 47 -23 90l-231 -231q40 -29 93 -29q68 0 114.5 50t46.5 120zM168 270q0 -49 22 -88 l231 230q-42 29 -92 29q-69 0 -115 -49t-46 -122z" />
<glyph unicode="&#xf9;" horiz-adv-x="581" d="M239 -12q-68 0 -111 35t-57 92q-9 37 -9 119v307h120v-304q0 -49 5 -71q14 -67 91 -67q41 0 68.5 21t38.5 57q8 28 8 73v291h120v-541h-120v85q-58 -97 -154 -97zM288 720l60 -141h-93l-102 141h135z" />
<glyph unicode="&#xfa;" horiz-adv-x="581" d="M239 -12q-68 0 -111 35t-57 92q-9 37 -9 119v307h120v-304q0 -49 5 -71q14 -67 91 -67q41 0 68.5 21t38.5 57q8 28 8 73v291h120v-541h-120v85q-58 -97 -154 -97zM233 579l60 141h135l-102 -141h-93z" />
<glyph unicode="&#xfb;" horiz-adv-x="581" d="M239 -12q-68 0 -111 35t-57 92q-9 37 -9 119v307h120v-304q0 -49 5 -71q14 -67 91 -67q41 0 68.5 21t38.5 57q8 28 8 73v291h120v-541h-120v85q-58 -97 -154 -97zM353 720l110 -141h-113l-60 68l-60 -68h-113l110 141h126z" />
<glyph unicode="&#xfc;" horiz-adv-x="581" d="M239 -12q-68 0 -111 35t-57 92q-9 37 -9 119v307h120v-304q0 -49 5 -71q14 -67 91 -67q41 0 68.5 21t38.5 57q8 28 8 73v291h120v-541h-120v85q-58 -97 -154 -97zM140 664q0 28 17 45.5t46 17.5t46 -17.5t17 -45.5t-17 -45.5t-46 -17.5t-46 17.5t-17 45.5zM314 664 q0 28 17 45.5t46 17.5t46 -17.5t17 -45.5t-17 -45.5t-46 -17.5t-46 17.5t-17 45.5z" />
<glyph unicode="&#xfd;" horiz-adv-x="565" d="M429 541h132l-300 -710h-134l91 198l-214 512h137l145 -362zM228 579l60 141h135l-102 -141h-93z" />
<glyph unicode="&#xfe;" horiz-adv-x="649" d="M486 270q0 75 -42 124.5t-109 49.5q-68 0 -109.5 -46t-41.5 -128q0 -78 42.5 -126t109.5 -48q68 0 109 48t41 126zM611 270q0 -125 -72.5 -203.5t-177.5 -78.5q-108 0 -173 86v-243h-120v889h120v-266q64 99 178 99q103 0 174 -79.5t71 -203.5z" />
<glyph unicode="&#xff;" horiz-adv-x="565" d="M429 541h132l-300 -710h-134l91 198l-214 512h137l145 -362zM135 664q0 28 17.5 45.5t45.5 17.5t45.5 -17.5t17.5 -45.5t-17.5 -45.5t-45.5 -17.5t-45.5 17.5t-17.5 45.5zM309 664q0 28 17.5 45.5t45.5 17.5t45.5 -17.5t17.5 -45.5t-17.5 -45.5t-45.5 -17.5t-45.5 17.5 t-17.5 45.5z" />
<glyph unicode="&#x13f;" horiz-adv-x="510" d="M72 0v720h126v-604h284v-116h-410zM317 380q0 32 19.5 51t50.5 19t50.5 -19t19.5 -51t-19.5 -51t-50.5 -19t-50.5 19t-19.5 51z" />
<glyph unicode="&#x140;" horiz-adv-x="396" d="M188 720v-720h-120v720h120zM256 270q0 32 19 51t51 19t51 -19t19 -51t-19 -51t-51 -19t-51 19t-19 51z" />
<glyph unicode="&#x152;" horiz-adv-x="1122" d="M646 0v79q-91 -91 -236 -91q-158 0 -264 106t-106 266t106 266t264 106q138 0 236 -84v72h420v-116h-294v-170h284v-116h-284v-202h304v-116h-430zM174 360q0 -106 67.5 -178t168.5 -72q102 0 169 69.5t67 180.5q0 115 -66.5 182.5t-169.5 67.5q-101 0 -168.5 -72 t-67.5 -178z" />
<glyph unicode="&#x153;" horiz-adv-x="1044" d="M1003 232h-399q6 -59 47.5 -96.5t101.5 -37.5q83 0 117 65h122q-20 -80 -84 -127.5t-155 -47.5q-141 0 -216 100q-84 -100 -216 -100q-120 0 -201.5 80.5t-81.5 201.5q0 122 81.5 202.5t201.5 80.5q137 0 220 -102q80 102 206 102q117 0 188 -78.5t71 -195.5 q0 -27 -3 -47zM160 270q0 -73 46 -121.5t115 -48.5q68 0 114.5 50t46.5 120q0 73 -46 122t-115 49t-115 -49t-46 -122zM606 322h277q-10 56 -45 88.5t-92 32.5q-52 0 -91 -33.5t-49 -87.5z" />
<glyph unicode="&#x178;" horiz-adv-x="641" d="M322 429l172 291h139l-252 -418v-302h-126v302l-247 418h142zM173 822q0 28 17.5 45.5t45.5 17.5t45.5 -17.5t17.5 -45.5t-17.5 -45.5t-45.5 -17.5t-45.5 17.5t-17.5 45.5zM347 822q0 28 17.5 45.5t45.5 17.5t45.5 -17.5t17.5 -45.5t-17.5 -45.5t-45.5 -17.5t-45.5 17.5 t-17.5 45.5z" />
<glyph unicode="&#x17f;" horiz-adv-x="282" d="M188 560v-560h-120v564q0 75 42 121.5t121 46.5q41 0 70 -8l-11 -108q-17 4 -43 4q-59 0 -59 -60z" />
<glyph unicode="&#x2b0;" horiz-adv-x="450" d="M264 597q50 0 83 -26t43 -69q6 -25 6 -77v-245h-98v225q0 31 -3 49q-10 51 -63 51q-57 0 -74 -53q-6 -22 -6 -53v-219h-98v540h98v-183q41 60 112 60z" />
<glyph unicode="&#x2b2;" horiz-adv-x="206" d="M151 588v-517l-98 -17v534h98zM45 671q0 25 16 40.5t41 15.5t40.5 -15.5t15.5 -40.5q0 -26 -15.5 -41.5t-40.5 -15.5q-26 0 -41.5 16t-15.5 41z" />
<glyph unicode="&#x2b7;" horiz-adv-x="659" d="M536 588h108l-132 -408h-102l-86 260l-87 -260h-105l-123 408h112l69 -258l85 258h107l83 -258z" />
<glyph unicode="&#x2b8;" horiz-adv-x="444" d="M324 588h109l-225 -533h-111l69 152l-159 381h113l102 -258z" />
<glyph unicode="&#x2c6;" horiz-adv-x="500" d="M313 720l110 -141h-113l-60 68l-60 -68h-113l110 141h126z" />
<glyph unicode="&#x2dc;" horiz-adv-x="500" d="M241 610q-43 18 -60 18q-28 0 -32 -40l-70 10q1 57 30 89.5t73 32.5q26 0 77 -22q43 -18 60 -18q28 0 32 40l70 -10q-1 -57 -30 -89.5t-73 -32.5q-26 0 -77 22z" />
<glyph unicode="&#x2e3;" horiz-adv-x="429" d="M288 588h117l-129 -199l139 -209h-122l-86 134l-75 -134h-122l135 218l-127 190h124l75 -119z" />
<glyph unicode="&#x2009;" horiz-adv-x="150" />
<glyph unicode="&#x2013;" horiz-adv-x="500" d="M500 313v-84h-500v84h500z" />
<glyph unicode="&#x2014;" horiz-adv-x="1000" d="M1000 313v-84h-1000v84h1000z" />
<glyph unicode="&#x2018;" horiz-adv-x="250" d="M207 720l-29 -261h-135l92 261h72z" />
<glyph unicode="&#x2019;" horiz-adv-x="250" d="M43 459l29 261h135l-92 -261h-72z" />
<glyph unicode="&#x201a;" horiz-adv-x="250" d="M43 -151l29 281h135l-92 -281h-72z" />
<glyph unicode="&#x201c;" horiz-adv-x="430" d="M387 720l-29 -261h-135l92 261h72zM207 720l-29 -261h-135l92 261h72z" />
<glyph unicode="&#x201d;" horiz-adv-x="430" d="M43 459l29 261h135l-92 -261h-72zM223 459l29 261h135l-92 -261h-72z" />
<glyph unicode="&#x201e;" horiz-adv-x="430" d="M43 -151l29 281h135l-92 -281h-72zM223 -151l29 281h135l-92 -281h-72z" />
<glyph unicode="&#x2022;" horiz-adv-x="500" d="M81 376q0 77 48 128t121 51t121 -51t48 -128q0 -74 -48.5 -126t-120.5 -52q-73 0 -121 50.5t-48 127.5z" />
<glyph unicode="&#x2026;" horiz-adv-x="750" d="M48 65q0 35 21 56t56 21t56 -21t21 -56t-21 -56t-56 -21t-56 21t-21 56zM298 65q0 35 21 56t56 21t56 -21t21 -56t-21 -56t-56 -21t-56 21t-21 56zM548 65q0 35 21 56t56 21t56 -21t21 -56t-21 -56t-56 -21t-56 21t-21 56z" />
<glyph unicode="&#x2039;" horiz-adv-x="280" d="M34 332l204 166v-129l-121 -98l121 -98v-129l-204 166v122z" />
<glyph unicode="&#x203a;" horiz-adv-x="280" d="M42 498l204 -166v-122l-204 -166v129l121 98l-121 98v129z" />
<glyph unicode="&#x2044;" horiz-adv-x="319" d="M-42 0l298 720h105l-297 -720h-106z" />
<glyph unicode="&#x2070;" horiz-adv-x="443" d="M304 450q0 91 -23 137.5t-62 46.5q-38 0 -60.5 -46.5t-22.5 -137.5t22.5 -137.5t60.5 -46.5q39 0 62 46.5t23 137.5zM407 450q0 -161 -74 -233q-46 -46 -114 -46q-66 0 -114 46q-73 70 -73 233q0 159 73 232q49 47 114 47q68 0 115 -47q73 -73 73 -232z" />
<glyph unicode="&#x2074;" horiz-adv-x="437" d="M256 586l-135 -188h135v188zM412 398v-88h-57v-130h-99v130h-231v96l229 314h101v-322h57z" />
<glyph unicode="&#x2075;" horiz-adv-x="422" d="M233 540q65 0 113 -50t48 -130t-53.5 -134.5t-135.5 -54.5q-124 0 -176 122l80 45q39 -72 95 -72q39 0 64.5 26.5t25.5 65.5q0 42 -25.5 66.5t-64.5 24.5q-46 0 -79 -43l-83 18l27 296h290v-94h-213l-12 -137q39 51 99 51z" />
<glyph unicode="&#x2076;" horiz-adv-x="437" d="M149 351q0 -33 23 -60t57 -27q35 0 57.5 24.5t22.5 61.5q0 38 -22.5 61t-57.5 23q-34 0 -57 -23t-23 -60zM237 729q92 0 155 -78l-64 -68q-47 52 -94 52q-39 0 -64 -37q-32 -48 -32 -140q37 69 112 69q64 0 111 -49t47 -125q0 -77 -50.5 -129.5t-126.5 -52.5 q-84 0 -137 59q-56 65 -56 203q0 160 67 236q54 60 132 60z" />
<glyph unicode="&#x2077;" horiz-adv-x="416" d="M214 181h-114q9 121 63.5 235.5t140.5 209.5h-279v94h372v-84q-165 -198 -183 -455z" />
<glyph unicode="&#x2078;" horiz-adv-x="429" d="M213 171q-78 0 -128.5 45.5t-50.5 119.5q0 44 21 78t56 52q-59 38 -59 108q0 66 46.5 110.5t114.5 44.5t114 -44.5t46 -110.5q0 -72 -58 -108q34 -18 55.5 -52.5t21.5 -77.5q0 -74 -50.5 -119.5t-128.5 -45.5zM131 341q0 -33 22.5 -55.5t59.5 -22.5q36 0 59 23.5t23 54.5 q0 33 -23 56t-59 23t-59 -23t-23 -56zM144 572q0 -28 19 -47t50 -19q30 0 49 19.5t19 46.5q0 28 -19 47t-49 19q-31 0 -50 -19t-19 -47z" />
<glyph unicode="&#x2079;" horiz-adv-x="437" d="M284 549q0 33 -23 59.5t-57 26.5q-36 0 -58 -24t-22 -61q0 -38 22.5 -61.5t57.5 -23.5q34 0 57 23.5t23 60.5zM195 171q-89 0 -156 73l59 71q48 -51 96 -51q43 0 68 38q34 51 34 142q-38 -72 -109 -72q-68 0 -114.5 49t-46.5 126t49.5 129.5t125.5 52.5q83 0 137 -60 q58 -65 58 -203q0 -156 -68 -235q-54 -60 -133 -60z" />
<glyph unicode="&#x207a;" horiz-adv-x="431" d="M255 491h129v-83h-129v-129h-83v129h-129v83h129v130h83v-130z" />
<glyph unicode="&#x207c;" horiz-adv-x="431" d="M43 565h341v-84h-341v84zM43 418h341v-84h-341v84z" />
<glyph unicode="&#x207d;" horiz-adv-x="272" d="M63 389q0 177 105 331h86q-97 -157 -97 -331q0 -177 97 -334h-86q-105 154 -105 334z" />
<glyph unicode="&#x207e;" horiz-adv-x="273" d="M210 389q0 -182 -105 -334h-87q98 155 98 334q0 176 -98 331h87q105 -150 105 -331z" />
<glyph unicode="&#x207f;" horiz-adv-x="450" d="M264 597q50 0 83 -26t43 -69q6 -25 6 -77v-245h-98v225q0 31 -3 49q-10 51 -63 51q-57 0 -74 -53q-6 -22 -6 -53v-219h-98v408h98v-51q41 60 112 60z" />
<glyph unicode="&#x2080;" horiz-adv-x="443" d="M304 100q0 91 -23 137.5t-62 46.5q-38 0 -60.5 -46.5t-22.5 -137.5t22.5 -137.5t60.5 -46.5q39 0 62 46.5t23 137.5zM407 100q0 -161 -74 -233q-46 -46 -114 -46q-66 0 -114 46q-73 70 -73 233q0 159 73 232q49 47 114 47q68 0 115 -47q73 -73 73 -232z" />
<glyph unicode="&#x2081;" horiz-adv-x="309" d="M24 208v77h17q101 0 131 85h74v-540h-102v378h-120z" />
<glyph unicode="&#x2082;" horiz-adv-x="422" d="M386 -76v-94h-354v27q0 48 12 84q19 52 85 104l79 63q40 32 54 52.5t14 47.5q0 32 -21 53t-52 21q-58 0 -91 -79l-80 42q23 60 67.5 97t107.5 37q76 0 123 -49t47 -121q0 -57 -22 -91t-83 -81l-85 -64q-37 -28 -40 -49h239z" />
<glyph unicode="&#x2083;" horiz-adv-x="411" d="M201 -83q33 0 54 19.5t21 52.5q0 53 -46 72q-17 8 -61 8h-33v89h22q47 0 68 9q35 14 35 55q0 26 -18 44t-46 18q-47 0 -82 -53l-72 54q63 94 158 94q69 0 112.5 -43t43.5 -111q0 -79 -65 -109q38 -15 61.5 -51t23.5 -82q0 -74 -49 -118t-121 -44q-122 0 -180 103l77 56 q40 -63 97 -63z" />
<glyph unicode="&#x2084;" horiz-adv-x="437" d="M256 236l-135 -188h135v188zM412 48v-88h-57v-130h-99v130h-231v96l229 314h101v-322h57z" />
<glyph unicode="&#x2085;" horiz-adv-x="422" d="M233 190q65 0 113 -50t48 -130t-53.5 -134.5t-135.5 -54.5q-124 0 -176 122l80 45q39 -72 95 -72q39 0 64.5 26.5t25.5 65.5q0 42 -25.5 66.5t-64.5 24.5q-46 0 -79 -43l-83 18l27 296h290v-94h-213l-12 -137q39 51 99 51z" />
<glyph unicode="&#x2086;" horiz-adv-x="437" d="M149 1q0 -33 23 -60t57 -27q35 0 57.5 24.5t22.5 61.5q0 38 -22.5 61t-57.5 23q-34 0 -57 -23t-23 -60zM237 379q92 0 155 -78l-64 -68q-47 52 -94 52q-39 0 -64 -37q-32 -48 -32 -140q37 69 112 69q64 0 111 -49t47 -125q0 -77 -50.5 -129.5t-126.5 -52.5q-84 0 -137 59 q-56 65 -56 203q0 160 67 236q54 60 132 60z" />
<glyph unicode="&#x2087;" horiz-adv-x="416" d="M214 -169h-114q9 121 63.5 235.5t140.5 209.5h-279v94h372v-84q-165 -198 -183 -455z" />
<glyph unicode="&#x2088;" horiz-adv-x="429" d="M213 -179q-78 0 -128.5 45.5t-50.5 119.5q0 44 21 78t56 52q-59 38 -59 108q0 66 46.5 110.5t114.5 44.5t114 -44.5t46 -110.5q0 -72 -58 -108q34 -18 55.5 -52.5t21.5 -77.5q0 -74 -50.5 -119.5t-128.5 -45.5zM131 -9q0 -33 22.5 -55.5t59.5 -22.5q36 0 59 23.5t23 54.5 q0 33 -23 56t-59 23t-59 -23t-23 -56zM144 222q0 -28 19 -47t50 -19q30 0 49 19.5t19 46.5q0 28 -19 47t-49 19q-31 0 -50 -19t-19 -47z" />
<glyph unicode="&#x2089;" horiz-adv-x="437" d="M284 199q0 33 -23 59.5t-57 26.5q-36 0 -58 -24t-22 -61q0 -38 22.5 -61.5t57.5 -23.5q34 0 57 23.5t23 60.5zM195 -179q-89 0 -156 73l59 71q48 -51 96 -51q43 0 68 38q34 51 34 142q-38 -72 -109 -72q-68 0 -114.5 49t-46.5 126t49.5 129.5t125.5 52.5q83 0 137 -60 q58 -65 58 -203q0 -156 -68 -235q-54 -60 -133 -60z" />
<glyph unicode="&#x208d;" horiz-adv-x="272" d="M63 39q0 177 105 331h86q-97 -157 -97 -331q0 -177 97 -334h-86q-105 154 -105 334z" />
<glyph unicode="&#x208e;" horiz-adv-x="273" d="M210 39q0 -182 -105 -334h-87q98 155 98 334q0 176 -98 331h87q105 -150 105 -331z" />
<glyph unicode="&#x20ac;" horiz-adv-x="835" d="M26 470h100q34 117 131.5 189.5t223.5 72.5q119 0 197 -52.5t118 -139.5l-114 -64q-72 134 -201 134q-72 0 -128.5 -38t-84.5 -102h268v-70h-287q-3 -19 -3 -40q0 -20 3 -40h287v-70h-268q28 -64 84.5 -102t128.5 -38q146 0 207 150l119 -49q-34 -102 -117 -162.5 t-209 -60.5q-128 0 -225 72t-130 190h-100v70h87q-2 26 -2 40q0 27 2 40h-87v70z" />
<glyph unicode="&#x2116;" horiz-adv-x="1219" d="M519 0l-329 502v-502h-118v720h126l336 -510v510h118v-720h-133zM756 383q0 92 61.5 153t152.5 61t152 -61t61 -153q0 -88 -61.5 -150t-151.5 -62q-91 0 -152.5 60.5t-61.5 151.5zM856 383q0 -51 32.5 -85.5t81.5 -34.5q48 0 80.5 35.5t32.5 84.5q0 53 -32 87.5t-81 34.5 t-81.5 -35t-32.5 -87z" />
<glyph unicode="&#x2122;" horiz-adv-x="635" d="M173 654v-242h-70v242h-87v66h244v-66h-87zM368 720l79 -137l80 137h76v-308h-71v185l-63 -107h-50l-60 106v-184h-67v308h76z" />
<glyph unicode="&#x2190;" horiz-adv-x="1000" d="M431 36l-431 322l431 317v-112l-243 -162h812v-84h-810l241 -166v-115z" />
<glyph unicode="&#x25fc;" horiz-adv-x="540" d="M0 540h540v-540h-540v540z" />
<glyph unicode="&#xf6e1;" horiz-adv-x="195" d="M30 -281l23 216h111l-71 -216h-63z" />
<glyph unicode="&#xf6e2;" horiz-adv-x="195" d="M30 69l23 216h111l-71 -216h-63z" />
<glyph unicode="&#xf6e5;" horiz-adv-x="195" d="M179 79v-89h-164v89h164z" />
<glyph unicode="&#xf6e6;" horiz-adv-x="195" d="M179 429v-89h-164v89h164z" />
<glyph unicode="&#xf6e7;" horiz-adv-x="195" d="M35 -117q0 27 17 44t45 17q27 0 44 -17t17 -44q0 -28 -17 -45t-44 -17q-28 0 -45 17t-17 45z" />
<glyph unicode="&#xf6e8;" horiz-adv-x="195" d="M35 233q0 27 17 44t45 17q27 0 44 -17t17 -44q0 -28 -17 -45t-44 -17q-28 0 -45 17t-17 45z" />
<glyph unicode="&#xf6e9;" horiz-adv-x="425" d="M272 360v10q-14 -12 -46 -21l-49 -13q-47 -13 -47 -46q0 -15 12 -24.5t32 -9.5q41 0 69.5 26t28.5 78zM212 597q105 0 141 -68q17 -34 17 -91v-166q0 -16 14 -16q8 0 14 1v-83q-12 -3 -29 -3q-76 0 -97 68q-40 -68 -117 -68q-55 0 -89 31t-34 82q0 95 125 121l85 18 q30 6 30 31t-17 39.5t-47 14.5q-59 0 -69 -53l-99 6q8 59 54 97.5t118 38.5z" />
<glyph unicode="&#xf6ea;" horiz-adv-x="501" d="M362 383q0 53 -29.5 88.5t-76.5 35.5q-48 0 -77 -32.5t-29 -91.5q0 -54 30 -88t77 -34q48 0 76.5 34t28.5 88zM464 383q0 -93 -54.5 -152.5t-134.5 -59.5q-76 0 -122 54v-45h-98v540h98v-186q48 63 125 63q79 0 132.5 -60t53.5 -154z" />
<glyph unicode="&#xf6eb;" horiz-adv-x="501" d="M134 384q0 -52 29.5 -87.5t76.5 -35.5q48 0 77.5 33t29.5 90q0 56 -30 90t-77 34q-48 0 -77 -34.5t-29 -89.5zM32 384q0 95 55 154t134 59q77 0 123 -59v182h98v-540h-98v48q-50 -57 -127 -57q-78 0 -131.5 60t-53.5 153z" />
<glyph unicode="&#xf6ec;" horiz-adv-x="465" d="M136 426h192q-19 80 -95 80q-37 0 -63 -21t-34 -59zM426 351h-292q6 -40 35 -65t71 -25q61 0 84 54l96 -14q-19 -60 -66 -95t-113 -35q-93 0 -150 58t-57 154q0 94 58.5 154t141.5 60q89 0 142 -59t53 -148q0 -3 -0.5 -9.5t-1.5 -15t-1 -14.5z" />
<glyph unicode="&#xf6ed;" horiz-adv-x="206" d="M151 588v-408h-98v408h98zM45 671q0 25 16 40.5t41 15.5t40.5 -15.5t15.5 -40.5q0 -26 -15.5 -41.5t-40.5 -15.5q-26 0 -41.5 16t-15.5 41z" />
<glyph unicode="&#xf6ee;" horiz-adv-x="206" d="M151 720v-540h-98v540h98z" />
<glyph unicode="&#xf6ef;" horiz-adv-x="665" d="M482 597q47 0 78 -25.5t42 -64.5q6 -20 6 -72v-255h-98v235q0 32 -3 44q-10 46 -55 46q-24 0 -42 -15t-24 -38q-5 -22 -5 -52v-220h-98v235q0 27 -3 44q-12 46 -56 46q-23 0 -41.5 -15.5t-24.5 -37.5q-5 -22 -5 -52v-220h-98v408h98v-50q44 59 104 59q81 0 109 -71 q20 30 51 50.5t65 20.5z" />
<glyph unicode="&#xf6f0;" horiz-adv-x="495" d="M32 383q0 92 61.5 153t152.5 61t152 -61t61 -153q0 -88 -61.5 -150t-151.5 -62q-91 0 -152.5 60.5t-61.5 151.5zM132 383q0 -51 32.5 -85.5t81.5 -34.5q48 0 80.5 35.5t32.5 84.5q0 53 -32 87.5t-81 34.5t-81.5 -35t-32.5 -87z" />
<glyph unicode="&#xf6f1;" horiz-adv-x="305" d="M290 594v-104q-32 5 -42 5q-33 0 -56.5 -19t-33.5 -49q-6 -20 -6 -63v-184h-98v408h98v-60q36 69 109 69q18 0 29 -3z" />
<glyph unicode="&#xf6f2;" horiz-adv-x="350" d="M324 292q0 -54 -38.5 -87.5t-99.5 -33.5q-118 0 -163 100l81 53q29 -63 84 -63q42 0 42 28q0 21 -35 38l-70 34q-85 42 -85 115q0 49 38 85t94 36q89 0 136 -77l-76 -58q-28 46 -64 46q-17 0 -26 -8t-9 -20q0 -19 27 -31l68 -31q96 -44 96 -126z" />
<glyph unicode="&#xf6f3;" horiz-adv-x="278" d="M261 499h-74v-319h-98v319h-74v89h74v80l98 17v-97h74v-89z" />
<glyph horiz-adv-x="572" d="M407 360q0 126 -33 191t-88 65t-88 -65t-33 -191t33 -191t88 -65t88 65t33 191zM534 360q0 -210 -98 -310q-62 -62 -150 -62t-150 62q-98 100 -98 310t98 310q62 62 150 62t150 -62q98 -100 98 -310z" />
<glyph horiz-adv-x="402" d="M32 513v91h16q140 0 183 116h89v-720h-126v513h-162z" />
<glyph horiz-adv-x="544" d="M506 115v-115h-467v30q0 67 16 112q25 68 112 138l108 86q55 44 74.5 72.5t19.5 68.5q0 46 -30 76.5t-75 30.5q-84 0 -128 -105l-96 51q27 78 86.5 125t142.5 47q100 0 162.5 -65t62.5 -159q0 -74 -29.5 -121t-110.5 -107l-116 -85q-50 -38 -58 -80h326z" />
<glyph horiz-adv-x="530" d="M256 106q51 0 82.5 28t31.5 76q0 76 -67 104q-26 10 -85 10h-39v108h24q65 0 94 12q53 21 53 81q0 39 -27 65t-67 26q-68 0 -116 -74l-89 63q75 127 210 127q91 0 148.5 -56.5t57.5 -145.5q0 -102 -93 -150q53 -21 86 -68.5t33 -110.5q0 -98 -66 -155.5t-169 -57.5 q-158 0 -227 135l96 69q46 -86 129 -86z" />
<glyph d="M343 566l-204 -283h204v283zM540 283v-107h-77v-176h-120v176h-315v121l309 423h126v-437h77z" />
<glyph horiz-adv-x="544" d="M297 476q91 0 155 -66t64 -172t-70.5 -178t-178.5 -72q-84 0 -144.5 47t-86.5 124l98 54q46 -109 131 -109q57 0 92.5 37t35.5 94q0 60 -36 95.5t-92 35.5q-66 0 -110 -58l-103 23l36 389h382v-115h-288l-20 -197q57 68 135 68z" />
<glyph d="M184 225q0 -47 33 -85t82 -38q51 0 83 35t32 87q0 55 -32.5 88.5t-82.5 33.5q-49 0 -82 -34t-33 -87zM310 732q66 0 113 -24t88 -75l-78 -84q-61 69 -127 69q-56 0 -92 -53q-46 -67 -46 -205q54 98 155 98q89 0 150.5 -64.5t61.5 -165.5t-66 -170.5t-167 -69.5 q-112 0 -180 78q-77 89 -77 272q0 214 91 315q70 79 174 79z" />
<glyph horiz-adv-x="536" d="M28 605v115h492v-101q-224 -269 -248 -619h-141q12 164 84 320t186 285h-373z" />
<glyph horiz-adv-x="554" d="M277 -12q-103 0 -170 60t-67 157q0 60 29.5 107t75.5 68q-79 54 -79 148q0 87 61 145.5t150 58.5t150 -58.5t61 -145.5q0 -94 -79 -148q46 -21 75.5 -68t29.5 -107q0 -98 -67 -157.5t-170 -59.5zM159 212q0 -48 32.5 -80t85.5 -32q52 0 85 33t33 79q0 48 -32.5 80.5 t-85.5 32.5t-85.5 -32.5t-32.5 -80.5zM178 526q0 -41 27 -69t72 -28q44 0 71.5 28.5t27.5 68.5q0 41 -27.5 68.5t-71.5 27.5q-45 0 -72 -27.5t-27 -68.5z" />
<glyph d="M380 495q0 47 -33 85t-82 38q-51 0 -83 -35t-32 -87q0 -55 32.5 -88.5t82.5 -33.5q49 0 82 34t33 87zM254 -12q-120 0 -204 101l75 83q62 -70 133 -70q56 0 92 53q46 67 46 205q-54 -98 -155 -98q-89 0 -150.5 64.5t-61.5 165.5t66 170.5t167 69.5q112 0 180 -78 q77 -89 77 -272q0 -213 -91 -315q-70 -79 -174 -79z" />
<glyph d="M403 281q0 85 -33 131.5t-88 46.5t-88 -46t-33 -132q0 -85 33 -131t88 -46t88 46t33 131zM530 281q0 -127 -68 -210t-180 -83q-115 0 -181.5 85t-66.5 208q0 127 68 210.5t180 83.5q115 0 181.5 -85.5t66.5 -208.5z" />
<glyph d="M97 356v91h16q140 0 183 116h89v-563h-126v356h-162z" />
<glyph d="M295 575q88 0 142 -51t54 -128q0 -61 -30 -102.5t-99 -76.5l-109 -55q-17 -9 -30.5 -22t-16.5 -25h297v-115h-437v37q0 57 16 95q30 74 130 127l67 35q54 28 70.5 49t16.5 46q0 27 -20 47.5t-58 20.5q-79 0 -117 -90l-96 51q26 73 84.5 115t135.5 42z" />
<glyph horiz-adv-x="570" d="M278 -51q51 0 82.5 28t31.5 76q0 76 -67 104q-26 10 -85 10h-39v108h24q65 0 94 12q53 21 53 81q0 39 -27 65t-67 26q-68 0 -116 -74l-89 63q75 127 210 127q91 0 148.5 -56.5t57.5 -145.5q0 -102 -93 -150q53 -21 86 -68.5t33 -110.5q0 -98 -66 -155.5t-169 -57.5 q-158 0 -227 135l96 69q46 -86 129 -86z" />
<glyph d="M343 405l-204 -298h204v298zM540 107v-107h-77v-169h-120v169h-315v121l309 442h126v-456h77z" />
<glyph d="M307 319q91 0 155 -66t64 -172t-70.5 -178t-178.5 -72q-84 0 -144.5 47t-86.5 124l98 54q46 -109 131 -109q57 0 92.5 37t35.5 94q0 60 -36 95.5t-92 35.5q-66 0 -110 -58l-103 23l36 389h382v-115h-288l-20 -197q57 68 135 68z" />
<glyph d="M184 225q0 -47 33 -85t82 -38q51 0 83 35t32 87q0 55 -32.5 88.5t-82.5 33.5q-49 0 -82 -34t-33 -87zM310 732q66 0 113 -24t88 -75l-78 -84q-61 69 -127 69q-56 0 -92 -53q-46 -67 -46 -205q54 98 155 98q89 0 150.5 -64.5t61.5 -165.5t-66 -170.5t-167 -69.5 q-112 0 -180 78q-77 89 -77 272q0 214 91 315q70 79 174 79z" />
<glyph d="M42 448v115h492v-101q-111 -134 -174 -284.5t-74 -346.5h-141q9 170 81.5 328t188.5 289h-373z" />
<glyph d="M282 -12q-103 0 -170 60t-67 157q0 60 29.5 107t75.5 68q-79 54 -79 148q0 87 61 145.5t150 58.5t150 -58.5t61 -145.5q0 -94 -79 -148q46 -21 75.5 -68t29.5 -107q0 -98 -67 -157.5t-170 -59.5zM164 212q0 -48 32.5 -80t85.5 -32q52 0 85 33t33 79q0 48 -32.5 80.5 t-85.5 32.5t-85.5 -32.5t-32.5 -80.5zM183 526q0 -41 27 -69t72 -28q44 0 71.5 28.5t27.5 68.5q0 41 -27.5 68.5t-71.5 27.5q-45 0 -72 -27.5t-27 -68.5z" />
<glyph d="M380 338q0 47 -33 85t-82 38q-51 0 -83 -34.5t-32 -87.5q0 -55 32.5 -88.5t82.5 -33.5q49 0 82 34t33 87zM254 -169q-120 0 -204 101l75 83q62 -70 133 -70q56 0 92 53q46 67 46 205q-54 -98 -155 -98q-89 0 -150.5 64.5t-61.5 165.5t66 170.5t167 69.5q112 0 180 -78 q77 -89 77 -272q0 -213 -91 -315q-70 -79 -174 -79z" />
<glyph horiz-adv-x="457" d="M244 171q-90 0 -151 60.5t-61 151.5q0 92 61.5 153t150.5 61q132 0 182 -112l-83 -48q-36 68 -98 68q-49 0 -81 -34.5t-32 -87.5q0 -51 32 -85.5t81 -34.5q65 0 99 77l89 -37q-20 -61 -67.5 -96.5t-121.5 -35.5z" />
<glyph horiz-adv-x="278" d="M187 597v-9h74v-89h-74v-319h-98v319h-74v89h74v12q0 57 32 93t93 36q36 0 57 -7l-10 -89q-16 4 -36 4q-38 0 -38 -40z" />
<glyph horiz-adv-x="489" d="M430 588v-346q0 -92 -51 -143.5t-145 -51.5q-84 0 -133 39.5t-58 96.5l97 12q18 -59 95 -59q97 0 97 106v13q-44 -54 -115 -54q-78 0 -130.5 56t-52.5 142q0 87 53 142.5t129 55.5q73 0 116 -57v48h98zM136 398q0 -45 27.5 -76.5t72.5 -31.5t72.5 29t27.5 79t-27.5 80 t-72.5 30t-72.5 -30.5t-27.5 -79.5z" />
<glyph horiz-adv-x="441" d="M429 180h-129l-100 153l-47 -56v-97h-99v540h99v-299l138 167h127l-151 -175z" />
<glyph horiz-adv-x="501" d="M362 383q0 53 -29.5 88.5t-76.5 35.5q-48 0 -77 -32.5t-29 -91.5q0 -54 30 -88t77 -34q48 0 76.5 34t28.5 88zM464 383q0 -93 -54.5 -152.5t-134.5 -59.5q-76 0 -122 54v-170h-98v533h98v-54q48 63 125 63q79 0 132.5 -60t53.5 -154z" />
<glyph horiz-adv-x="501" d="M134 384q0 -52 29.5 -87.5t76.5 -35.5q48 0 77.5 33t29.5 90q0 56 -30 90t-77 34q-48 0 -77 -34.5t-29 -89.5zM32 384q0 95 55 154t134 59q77 0 123 -59v50h98v-533h-98v173q-50 -57 -127 -57q-78 0 -131.5 60t-53.5 153z" />
<glyph horiz-adv-x="450" d="M185 171q-52 0 -85 27t-44 70q-7 26 -7 89v231h98v-228q0 -35 4 -52q5 -21 21.5 -33.5t40.5 -12.5q58 0 75 54q6 20 6 53v219h98v-408h-98v51q-46 -60 -109 -60z" />
<glyph horiz-adv-x="435" d="M316 588h108l-160 -408h-102l-155 408h111l98 -270z" />
<glyph horiz-adv-x="412" d="M36 499v89h340v-70l-205 -249h216v-89h-365v62l210 257h-196z" />
<glyph d="M282 353l124 123l70 -70l-123 -124l123 -124l-70 -70l-124 123l-124 -123l-70 70l123 124l-123 124l70 70z" />
<glyph d="M332 332h175v-100h-175v-175h-100v175h-175v100h175v175h100v-175z" />
<glyph d="M507 41l-450 210v61l450 210v-114l-296 -126l296 -125v-116z" />
<glyph d="M57 432h450v-100h-450v100zM57 232h450v-100h-450v100z" />
<glyph d="M507 251l-450 -210v116l296 125l-296 126v114l450 -210v-61z" />
<glyph d="M423 366l88 -8q0 -77 -35.5 -114.5t-91.5 -37.5q-40 0 -88 18l-58 21q-34 13 -54 13q-43 0 -43 -60l-88 8q0 77 35.5 114.5t92.5 37.5q37 0 90 -19l56 -20q37 -13 54 -13q42 0 42 60z" />
<glyph d="M332 146h175v-100h-450v100h175v120h-175v100h175v155h100v-155h175v-100h-175v-120z" />
<glyph d="M507 432v-300h-100v200h-350v100h450z" />
<glyph d="M57 332h450v-100h-450v100zM226 106q0 25 15.5 40.5t40.5 15.5t40.5 -15.5t15.5 -40.5t-15.5 -40.5t-40.5 -15.5t-40.5 15.5t-15.5 40.5zM226 457q0 25 15.5 40.5t40.5 15.5t40.5 -15.5t15.5 -40.5t-15.5 -40.5t-40.5 -15.5t-40.5 15.5t-15.5 40.5z" />
<glyph horiz-adv-x="250" d="M48 282q0 34 21 55.5t56 21.5t56 -21.5t21 -55.5t-21 -55.5t-56 -21.5t-56 21.5t-21 55.5z" />
<glyph horiz-adv-x="250" d="M230 413v-108h-210v108h210z" />
<glyph horiz-adv-x="500" d="M500 401v-84h-500v84h500z" />
<glyph horiz-adv-x="1000" d="M1000 401v-84h-1000v84h1000z" />
<glyph horiz-adv-x="344" d="M81 366q0 238 139 442h102q-127 -204 -127 -442q0 -243 127 -447h-102q-139 204 -139 447z" />
<glyph horiz-adv-x="320" d="M252 366q0 -246 -140 -447h-102q128 205 128 447q0 237 -128 442h102q140 -201 140 -442z" />
<glyph horiz-adv-x="344" d="M187 13h135v-94h-235v889h235v-94h-135v-701z" />
<glyph horiz-adv-x="344" d="M22 13h135v701h-135v94h235v-889h-235v94z" />
<glyph horiz-adv-x="344" d="M12 327v74q58 0 76 25t18 77v142q0 78 42.5 120.5t107.5 42.5h66v-94h-50q-66 0 -66 -70v-151q0 -59 -19.5 -87t-68.5 -42q49 -14 68.5 -42t19.5 -87v-152q0 -70 66 -70h50v-94h-66q-65 0 -107.5 42.5t-42.5 120.5v143q0 52 -18 77t-76 25z" />
<glyph horiz-adv-x="344" d="M332 401v-74q-58 0 -76 -25t-18 -77v-143q0 -78 -42.5 -120.5t-107.5 -42.5h-66v94h50q66 0 66 70v152q0 59 19.5 87t68.5 42q-49 14 -68.5 42t-19.5 87v151q0 70 -66 70h-50v94h66q65 0 107.5 -42.5t42.5 -120.5v-142q0 -52 18 -77t76 -25z" />
<glyph horiz-adv-x="484" d="M34 420l204 166v-129l-121 -98l121 -98v-129l-204 166v122zM238 420l204 166v-129l-121 -98l121 -98v-129l-204 166v122z" />
<glyph horiz-adv-x="484" d="M42 586l204 -166v-122l-204 -166v129l121 98l-121 98v129zM246 586l204 -166v-122l-204 -166v129l121 98l-121 98v129z" />
<glyph horiz-adv-x="280" d="M34 420l204 166v-129l-121 -98l121 -98v-129l-204 166v122z" />
<glyph horiz-adv-x="280" d="M42 586l204 -166v-122l-204 -166v129l121 98l-121 98v129z" />
<glyph horiz-adv-x="1000" d="M181 424l322 431l317 -431h-112l-162 243v-812h-84v810l-166 -241h-115z" />
<glyph horiz-adv-x="1000" d="M1000 358l-431 -322v115l241 166h-810v84h812l-243 162v112z" />
<glyph horiz-adv-x="1000" d="M503 -145l-322 431h115l166 -241v810h84v-812l162 243h112z" />
<glyph horiz-adv-x="1000" d="M226 178l-77 533l528 -81l-79 -79l-286 57l574 -574l-59 -59l-573 572l53 -287z" />
<glyph horiz-adv-x="1000" d="M886 711l-77 -533l-81 82l53 287l-573 -572l-59 59l574 574l-286 -57l-79 79z" />
<glyph horiz-adv-x="1000" d="M809 508l77 -533l-528 81l79 79l286 -57l-574 574l59 59l573 -572l-53 287z" />
<glyph horiz-adv-x="1000" d="M149 -25l77 533l81 -82l-53 -287l573 572l59 -59l-574 -574l286 57l79 -79z" />
<glyph horiz-adv-x="1569" d="M519 0l-329 502v-502h-118v720h126l336 -510v510h118v-720h-133zM756 383q0 92 61.5 153t152.5 61t152 -61t61 -153q0 -88 -61.5 -150t-151.5 -62q-91 0 -152.5 60.5t-61.5 151.5zM856 383q0 -51 32.5 -85.5t81.5 -34.5q48 0 80.5 35.5t32.5 84.5q0 53 -32 87.5t-81 34.5 t-81.5 -35t-32.5 -87zM1543 292q0 -54 -38.5 -87.5t-99.5 -33.5q-118 0 -163 100l81 53q29 -63 84 -63q42 0 42 28q0 21 -35 38l-70 34q-85 42 -85 115q0 49 38 85t94 36q89 0 136 -77l-76 -58q-28 46 -64 46q-17 0 -26 -8t-9 -20q0 -19 27 -31l68 -31q96 -44 96 -126z" />
<glyph horiz-adv-x="1076" d="M347 553q65 0 107.5 -34t56.5 -89q8 -33 8 -103v-327h-120v299q0 44 -4 68q-16 75 -92 75q-41 0 -68.5 -21t-38.5 -57q-8 -28 -8 -73v-291h-120v541h120v-85q55 97 159 97zM613 383q0 92 61.5 153t152.5 61t152 -61t61 -153q0 -88 -61.5 -150t-151.5 -62 q-91 0 -152.5 60.5t-61.5 151.5zM713 383q0 -51 32.5 -85.5t81.5 -34.5q48 0 80.5 35.5t32.5 84.5q0 53 -32 87.5t-81 34.5t-81.5 -35t-32.5 -87z" />
<glyph horiz-adv-x="1426" d="M347 553q65 0 107.5 -34t56.5 -89q8 -33 8 -103v-327h-120v299q0 44 -4 68q-16 75 -92 75q-41 0 -68.5 -21t-38.5 -57q-8 -28 -8 -73v-291h-120v541h120v-85q55 97 159 97zM613 383q0 92 61.5 153t152.5 61t152 -61t61 -153q0 -88 -61.5 -150t-151.5 -62 q-91 0 -152.5 60.5t-61.5 151.5zM713 383q0 -51 32.5 -85.5t81.5 -34.5q48 0 80.5 35.5t32.5 84.5q0 53 -32 87.5t-81 34.5t-81.5 -35t-32.5 -87zM1400 292q0 -54 -38.5 -87.5t-99.5 -33.5q-118 0 -163 100l81 53q29 -63 84 -63q42 0 42 28q0 21 -35 38l-70 34 q-85 42 -85 115q0 49 38 85t94 36q89 0 136 -77l-76 -58q-28 46 -64 46q-17 0 -26 -8t-9 -20q0 -19 27 -31l68 -31q96 -44 96 -126z" />
<glyph horiz-adv-x="250" d="M230 413v-108h-210v108h210z" />
<glyph d="M530 360q0 -210 -98 -310q-62 -62 -150 -62t-150 62q-98 100 -98 310t98 310q62 62 150 62t150 -62q98 -100 98 -310zM403 360q0 27 -4 69l-221 -221q31 -104 104 -104q55 0 88 65t33 191zM161 360q0 -36 3 -68l221 221q-31 103 -103 103q-55 0 -88 -65t-33 -191z" />
<glyph horiz-adv-x="425" d="M272 360v10q-14 -12 -46 -21l-49 -13q-47 -13 -47 -46q0 -15 12 -24.5t32 -9.5q41 0 69.5 26t28.5 78zM212 597q105 0 141 -68q17 -34 17 -91v-166q0 -16 14 -16q8 0 14 1v-83q-12 -3 -29 -3q-76 0 -97 68q-40 -68 -117 -68q-55 0 -89 31t-34 82q0 95 125 121l85 18 q30 6 30 31t-17 39.5t-47 14.5q-59 0 -69 -53l-99 6q8 59 54 97.5t118 38.5z" />
<glyph horiz-adv-x="501" d="M362 383q0 53 -29.5 88.5t-76.5 35.5q-48 0 -77 -32.5t-29 -91.5q0 -54 30 -88t77 -34q48 0 76.5 34t28.5 88zM464 383q0 -93 -54.5 -152.5t-134.5 -59.5q-76 0 -122 54v-45h-98v540h98v-186q48 63 125 63q79 0 132.5 -60t53.5 -154z" />
<glyph horiz-adv-x="457" d="M244 171q-90 0 -151 60.5t-61 151.5q0 92 61.5 153t150.5 61q132 0 182 -112l-83 -48q-36 68 -98 68q-49 0 -81 -34.5t-32 -87.5q0 -51 32 -85.5t81 -34.5q65 0 99 77l89 -37q-20 -61 -67.5 -96.5t-121.5 -35.5z" />
<glyph horiz-adv-x="501" d="M134 384q0 -52 29.5 -87.5t76.5 -35.5q48 0 77.5 33t29.5 90q0 56 -30 90t-77 34q-48 0 -77 -34.5t-29 -89.5zM32 384q0 95 55 154t134 59q77 0 123 -59v182h98v-540h-98v48q-50 -57 -127 -57q-78 0 -131.5 60t-53.5 153z" />
<glyph horiz-adv-x="465" d="M136 426h192q-19 80 -95 80q-37 0 -63 -21t-34 -59zM426 351h-292q6 -40 35 -65t71 -25q61 0 84 54l96 -14q-19 -60 -66 -95t-113 -35q-93 0 -150 58t-57 154q0 94 58.5 154t141.5 60q89 0 142 -59t53 -148q0 -3 -0.5 -9.5t-1.5 -15t-1 -14.5z" />
<glyph horiz-adv-x="278" d="M187 597v-9h74v-89h-74v-319h-98v319h-74v89h74v12q0 57 32 93t93 36q36 0 57 -7l-10 -89q-16 4 -36 4q-38 0 -38 -40z" />
<glyph horiz-adv-x="489" d="M430 588v-346q0 -92 -51 -143.5t-145 -51.5q-84 0 -133 39.5t-58 96.5l97 12q18 -59 95 -59q97 0 97 106v13q-44 -54 -115 -54q-78 0 -130.5 56t-52.5 142q0 87 53 142.5t129 55.5q73 0 116 -57v48h98zM136 398q0 -45 27.5 -76.5t72.5 -31.5t72.5 29t27.5 79t-27.5 80 t-72.5 30t-72.5 -30.5t-27.5 -79.5z" />
<glyph horiz-adv-x="450" d="M264 597q50 0 83 -26t43 -69q6 -25 6 -77v-245h-98v225q0 31 -3 49q-10 51 -63 51q-57 0 -74 -53q-6 -22 -6 -53v-219h-98v540h98v-183q41 60 112 60z" />
<glyph horiz-adv-x="206" d="M151 588v-408h-98v408h98zM45 671q0 25 16 40.5t41 15.5t40.5 -15.5t15.5 -40.5q0 -26 -15.5 -41.5t-40.5 -15.5q-26 0 -41.5 16t-15.5 41z" />
<glyph horiz-adv-x="206" d="M151 588v-517l-98 -17v534h98zM45 671q0 25 16 40.5t41 15.5t40.5 -15.5t15.5 -40.5q0 -26 -15.5 -41.5t-40.5 -15.5q-26 0 -41.5 16t-15.5 41z" />
<glyph horiz-adv-x="441" d="M429 180h-129l-100 153l-47 -56v-97h-99v540h99v-299l138 167h127l-151 -175z" />
<glyph horiz-adv-x="206" d="M151 720v-540h-98v540h98z" />
<glyph horiz-adv-x="665" d="M482 597q47 0 78 -25.5t42 -64.5q6 -20 6 -72v-255h-98v235q0 32 -3 44q-10 46 -55 46q-24 0 -42 -15t-24 -38q-5 -22 -5 -52v-220h-98v235q0 27 -3 44q-12 46 -56 46q-23 0 -41.5 -15.5t-24.5 -37.5q-5 -22 -5 -52v-220h-98v408h98v-50q44 59 104 59q81 0 109 -71 q20 30 51 50.5t65 20.5z" />
<glyph horiz-adv-x="450" d="M264 597q50 0 83 -26t43 -69q6 -25 6 -77v-245h-98v225q0 31 -3 49q-10 51 -63 51q-57 0 -74 -53q-6 -22 -6 -53v-219h-98v408h98v-51q41 60 112 60z" />
<glyph horiz-adv-x="495" d="M32 383q0 92 61.5 153t152.5 61t152 -61t61 -153q0 -88 -61.5 -150t-151.5 -62q-91 0 -152.5 60.5t-61.5 151.5zM132 383q0 -51 32.5 -85.5t81.5 -34.5q48 0 80.5 35.5t32.5 84.5q0 53 -32 87.5t-81 34.5t-81.5 -35t-32.5 -87z" />
<glyph horiz-adv-x="501" d="M362 383q0 53 -29.5 88.5t-76.5 35.5q-48 0 -77 -32.5t-29 -91.5q0 -54 30 -88t77 -34q48 0 76.5 34t28.5 88zM464 383q0 -93 -54.5 -152.5t-134.5 -59.5q-76 0 -122 54v-170h-98v533h98v-54q48 63 125 63q79 0 132.5 -60t53.5 -154z" />
<glyph horiz-adv-x="501" d="M134 384q0 -52 29.5 -87.5t76.5 -35.5q48 0 77.5 33t29.5 90q0 56 -30 90t-77 34q-48 0 -77 -34.5t-29 -89.5zM32 384q0 95 55 154t134 59q77 0 123 -59v50h98v-533h-98v173q-50 -57 -127 -57q-78 0 -131.5 60t-53.5 153z" />
<glyph horiz-adv-x="305" d="M290 594v-104q-32 5 -42 5q-33 0 -56.5 -19t-33.5 -49q-6 -20 -6 -63v-184h-98v408h98v-60q36 69 109 69q18 0 29 -3z" />
<glyph horiz-adv-x="350" d="M324 292q0 -54 -38.5 -87.5t-99.5 -33.5q-118 0 -163 100l81 53q29 -63 84 -63q42 0 42 28q0 21 -35 38l-70 34q-85 42 -85 115q0 49 38 85t94 36q89 0 136 -77l-76 -58q-28 46 -64 46q-17 0 -26 -8t-9 -20q0 -19 27 -31l68 -31q96 -44 96 -126z" />
<glyph horiz-adv-x="278" d="M261 499h-74v-319h-98v319h-74v89h74v80l98 17v-97h74v-89z" />
<glyph horiz-adv-x="450" d="M185 171q-52 0 -85 27t-44 70q-7 26 -7 89v231h98v-228q0 -35 4 -52q5 -21 21.5 -33.5t40.5 -12.5q58 0 75 54q6 20 6 53v219h98v-408h-98v51q-46 -60 -109 -60z" />
<glyph horiz-adv-x="435" d="M316 588h108l-160 -408h-102l-155 408h111l98 -270z" />
<glyph horiz-adv-x="659" d="M536 588h108l-132 -408h-102l-86 260l-87 -260h-105l-123 408h112l69 -258l85 258h107l83 -258z" />
<glyph horiz-adv-x="429" d="M288 588h117l-129 -199l139 -209h-122l-86 134l-75 -134h-122l135 218l-127 190h124l75 -119z" />
<glyph horiz-adv-x="444" d="M324 588h109l-225 -533h-111l69 152l-159 381h113l102 -258z" />
<glyph horiz-adv-x="412" d="M36 499v89h340v-70l-205 -249h216v-89h-365v62l210 257h-196z" />
<glyph horiz-adv-x="272" d="M63 389q0 177 105 331h86q-97 -157 -97 -331q0 -177 97 -334h-86q-105 154 -105 334z" />
<glyph horiz-adv-x="273" d="M210 389q0 -182 -105 -334h-87q98 155 98 334q0 176 -98 331h87q105 -150 105 -331z" />
<glyph horiz-adv-x="195" d="M179 429v-89h-164v89h164z" />
<glyph horiz-adv-x="195" d="M30 69l23 216h111l-71 -216h-63z" />
<glyph horiz-adv-x="195" d="M35 233q0 27 17 44t45 17q27 0 44 -17t17 -44q0 -28 -17 -45t-44 -17q-28 0 -45 17t-17 45z" />
<glyph horiz-adv-x="431" d="M255 491h129v-83h-129v-129h-83v129h-129v83h129v130h83v-130z" />
<glyph horiz-adv-x="431" d="M43 565h341v-84h-341v84zM43 418h341v-84h-341v84z" />
<glyph horiz-adv-x="425" d="M272 10v10q-14 -12 -46 -21l-49 -13q-47 -13 -47 -46q0 -15 12 -24.5t32 -9.5q41 0 69.5 26t28.5 78zM212 247q105 0 141 -68q17 -34 17 -91v-166q0 -16 14 -16q8 0 14 1v-83q-12 -3 -29 -3q-76 0 -97 68q-40 -68 -117 -68q-55 0 -89 31t-34 82q0 95 125 121l85 18 q30 6 30 31t-17 39.5t-47 14.5q-59 0 -69 -53l-99 6q8 59 54 97.5t118 38.5z" />
<glyph horiz-adv-x="501" d="M362 33q0 53 -29.5 88.5t-76.5 35.5q-48 0 -77 -32.5t-29 -91.5q0 -54 30 -88t77 -34q48 0 76.5 34t28.5 88zM464 33q0 -93 -54.5 -152.5t-134.5 -59.5q-76 0 -122 54v-45h-98v540h98v-186q48 63 125 63q79 0 132.5 -60t53.5 -154z" />
<glyph horiz-adv-x="457" d="M244 -179q-90 0 -151 60.5t-61 151.5q0 92 61.5 153t150.5 61q132 0 182 -112l-83 -48q-36 68 -98 68q-49 0 -81 -34.5t-32 -87.5q0 -51 32 -85.5t81 -34.5q65 0 99 77l89 -37q-20 -61 -67.5 -96.5t-121.5 -35.5z" />
<glyph horiz-adv-x="501" d="M134 34q0 -52 29.5 -87.5t76.5 -35.5q48 0 77.5 33t29.5 90q0 56 -30 90t-77 34q-48 0 -77 -34.5t-29 -89.5zM32 34q0 95 55 154t134 59q77 0 123 -59v182h98v-540h-98v48q-50 -57 -127 -57q-78 0 -131.5 60t-53.5 153z" />
<glyph horiz-adv-x="465" d="M136 76h192q-19 80 -95 80q-37 0 -63 -21t-34 -59zM426 1h-292q6 -40 35 -65t71 -25q61 0 84 54l96 -14q-19 -60 -66 -95t-113 -35q-93 0 -150 58t-57 154q0 94 58.5 154t141.5 60q89 0 142 -59t53 -148q0 -3 -0.5 -9.5t-1.5 -15t-1 -14.5z" />
<glyph horiz-adv-x="278" d="M187 247v-9h74v-89h-74v-319h-98v319h-74v89h74v12q0 57 32 93t93 36q36 0 57 -7l-10 -89q-16 4 -36 4q-38 0 -38 -40z" />
<glyph horiz-adv-x="489" d="M430 238v-346q0 -92 -51 -143.5t-145 -51.5q-84 0 -133 39.5t-58 96.5l97 12q18 -59 95 -59q97 0 97 106v13q-44 -54 -115 -54q-78 0 -130.5 56t-52.5 142q0 87 53 142.5t129 55.5q73 0 116 -57v48h98zM136 48q0 -45 27.5 -76.5t72.5 -31.5t72.5 29t27.5 79 q0 49 -27.5 79.5t-72.5 30.5t-72.5 -30.5t-27.5 -79.5z" />
<glyph horiz-adv-x="450" d="M264 247q50 0 83 -26t43 -69q6 -25 6 -77v-245h-98v225q0 31 -3 49q-10 51 -63 51q-57 0 -74 -53q-6 -22 -6 -53v-219h-98v540h98v-183q41 60 112 60z" />
<glyph horiz-adv-x="206" d="M151 238v-408h-98v408h98zM45 321q0 25 16 40.5t41 15.5t40.5 -15.5t15.5 -40.5q0 -26 -15.5 -41.5t-40.5 -15.5q-26 0 -41.5 16t-15.5 41z" />
<glyph horiz-adv-x="206" d="M151 238v-517l-98 -17v534h98zM45 321q0 25 16 40.5t41 15.5t40.5 -15.5t15.5 -40.5q0 -26 -15.5 -41.5t-40.5 -15.5q-26 0 -41.5 16t-15.5 41z" />
<glyph horiz-adv-x="441" d="M429 -170h-129l-100 153l-47 -56v-97h-99v540h99v-299l138 167h127l-151 -175z" />
<glyph horiz-adv-x="206" d="M151 370v-540h-98v540h98z" />
<glyph horiz-adv-x="665" d="M482 247q47 0 78 -25.5t42 -64.5q6 -20 6 -72v-255h-98v235q0 32 -3 44q-10 46 -55 46q-24 0 -42 -15t-24 -38q-5 -22 -5 -52v-220h-98v235q0 28 -3 44q-12 46 -56 46q-23 0 -41.5 -15.5t-24.5 -37.5q-5 -23 -5 -52v-220h-98v408h98v-50q44 59 104 59q81 0 109 -71 q20 30 51 50.5t65 20.5z" />
<glyph horiz-adv-x="450" d="M264 247q50 0 83 -26t43 -69q6 -25 6 -77v-245h-98v225q0 31 -3 49q-10 51 -63 51q-57 0 -74 -53q-6 -22 -6 -53v-219h-98v408h98v-51q41 60 112 60z" />
<glyph horiz-adv-x="495" d="M32 33q0 92 61.5 153t152.5 61t152 -61t61 -153q0 -88 -61.5 -150t-151.5 -62q-91 0 -152.5 60.5t-61.5 151.5zM132 33q0 -51 32.5 -85.5t81.5 -34.5q48 0 80.5 35.5t32.5 84.5q0 53 -32 87.5t-81 34.5t-81.5 -35t-32.5 -87z" />
<glyph horiz-adv-x="501" d="M362 33q0 53 -29.5 88.5t-76.5 35.5q-48 0 -77 -32.5t-29 -91.5q0 -54 30 -88t77 -34q48 0 76.5 34t28.5 88zM464 33q0 -93 -54.5 -152.5t-134.5 -59.5q-76 0 -122 54v-170h-98v533h98v-54q48 63 125 63q79 0 132.5 -60t53.5 -154z" />
<glyph horiz-adv-x="501" d="M134 34q0 -52 29.5 -87.5t76.5 -35.5q48 0 77.5 33t29.5 90q0 56 -30 90t-77 34q-48 0 -77 -34.5t-29 -89.5zM32 34q0 95 55 154t134 59q77 0 123 -59v50h98v-533h-98v173q-50 -57 -127 -57q-78 0 -131.5 60t-53.5 153z" />
<glyph horiz-adv-x="305" d="M290 244v-104q-33 5 -42 5q-33 0 -56.5 -19t-33.5 -49q-6 -20 -6 -63v-184h-98v408h98v-60q36 69 109 69q18 0 29 -3z" />
<glyph horiz-adv-x="350" d="M324 -58q0 -54 -38.5 -87.5t-99.5 -33.5q-118 0 -163 100l81 53q29 -63 84 -63q42 0 42 28q0 21 -35 38l-70 34q-85 42 -85 115q0 49 38 85t94 36q89 0 136 -77l-76 -58q-28 46 -64 46q-17 0 -26 -8t-9 -20q0 -19 27 -31l68 -31q96 -44 96 -126z" />
<glyph horiz-adv-x="278" d="M261 149h-74v-319h-98v319h-74v89h74v80l98 17v-97h74v-89z" />
<glyph horiz-adv-x="450" d="M185 -179q-52 0 -85 27t-44 70q-7 26 -7 89v231h98v-228q0 -35 4 -52q5 -21 21.5 -33.5t40.5 -12.5q58 0 75 54q6 20 6 53v219h98v-408h-98v51q-46 -60 -109 -60z" />
<glyph horiz-adv-x="435" d="M316 238h108l-160 -408h-102l-155 408h111l98 -270z" />
<glyph horiz-adv-x="659" d="M536 238h108l-132 -408h-102l-86 260l-87 -260h-105l-123 408h112l69 -258l85 258h107l83 -258z" />
<glyph horiz-adv-x="429" d="M288 238h117l-129 -199l139 -209h-122l-86 134l-75 -134h-122l135 218l-127 190h124l75 -119z" />
<glyph horiz-adv-x="444" d="M324 238h109l-225 -533h-111l69 152l-159 381h113l102 -258z" />
<glyph horiz-adv-x="412" d="M36 149v89h340v-70l-205 -249h216v-89h-365v62l210 257h-196z" />
<glyph horiz-adv-x="443" d="M304 450q0 91 -23 137.5t-62 46.5q-38 0 -60.5 -46.5t-22.5 -137.5t22.5 -137.5t60.5 -46.5q39 0 62 46.5t23 137.5zM407 450q0 -161 -74 -233q-46 -46 -114 -46q-66 0 -114 46q-73 70 -73 233q0 159 73 232q49 47 114 47q68 0 115 -47q73 -73 73 -232z" />
<glyph horiz-adv-x="309" d="M24 558v77h17q101 0 131 85h74v-540h-102v378h-120z" />
<glyph horiz-adv-x="422" d="M386 274v-94h-354v27q0 48 12 84q19 52 85 104l79 63q40 32 54 52.5t14 47.5q0 32 -21 53t-52 21q-58 0 -91 -79l-80 42q23 60 67.5 97t107.5 37q76 0 123 -49t47 -121q0 -57 -22 -91t-83 -81l-85 -64q-37 -28 -40 -49h239z" />
<glyph horiz-adv-x="411" d="M201 267q33 0 54 19.5t21 52.5q0 53 -46 72q-17 8 -61 8h-33v89h22q47 0 68 9q35 14 35 55q0 26 -18 44t-46 18q-47 0 -82 -53l-72 54q63 94 158 94q69 0 112.5 -43t43.5 -111q0 -79 -65 -109q38 -15 61.5 -51t23.5 -82q0 -74 -49 -118t-121 -44q-122 0 -180 103l77 56 q40 -63 97 -63z" />
<glyph horiz-adv-x="437" d="M256 586l-135 -188h135v188zM412 398v-88h-57v-130h-99v130h-231v96l229 314h101v-322h57z" />
<glyph horiz-adv-x="422" d="M233 540q65 0 113 -50t48 -130t-53.5 -134.5t-135.5 -54.5q-124 0 -176 122l80 45q39 -72 95 -72q39 0 64.5 26.5t25.5 65.5q0 42 -25.5 66.5t-64.5 24.5q-46 0 -79 -43l-83 18l27 296h290v-94h-213l-12 -137q39 51 99 51z" />
<glyph horiz-adv-x="437" d="M149 351q0 -33 23 -60t57 -27q35 0 57.5 24.5t22.5 61.5q0 38 -22.5 61t-57.5 23q-34 0 -57 -23t-23 -60zM237 729q92 0 155 -78l-64 -68q-47 52 -94 52q-39 0 -64 -37q-32 -48 -32 -140q37 69 112 69q64 0 111 -49t47 -125q0 -77 -50.5 -129.5t-126.5 -52.5 q-84 0 -137 59q-56 65 -56 203q0 160 67 236q54 60 132 60z" />
<glyph horiz-adv-x="416" d="M214 181h-114q9 121 63.5 235.5t140.5 209.5h-279v94h372v-84q-165 -198 -183 -455z" />
<glyph horiz-adv-x="429" d="M213 171q-78 0 -128.5 45.5t-50.5 119.5q0 44 21 78t56 52q-59 38 -59 108q0 66 46.5 110.5t114.5 44.5t114 -44.5t46 -110.5q0 -72 -58 -108q34 -18 55.5 -52.5t21.5 -77.5q0 -74 -50.5 -119.5t-128.5 -45.5zM131 341q0 -33 22.5 -55.5t59.5 -22.5q36 0 59 23.5t23 54.5 q0 33 -23 56t-59 23t-59 -23t-23 -56zM144 572q0 -28 19 -47t50 -19q30 0 49 19.5t19 46.5q0 28 -19 47t-49 19q-31 0 -50 -19t-19 -47z" />
<glyph horiz-adv-x="437" d="M284 549q0 33 -23 59.5t-57 26.5q-36 0 -58 -24t-22 -61q0 -38 22.5 -61.5t57.5 -23.5q34 0 57 23.5t23 60.5zM195 171q-89 0 -156 73l59 71q48 -51 96 -51q43 0 68 38q34 51 34 142q-38 -72 -109 -72q-68 0 -114.5 49t-46.5 126t49.5 129.5t125.5 52.5q83 0 137 -60 q58 -65 58 -203q0 -156 -68 -235q-54 -60 -133 -60z" />
<glyph horiz-adv-x="443" d="M304 270q0 91 -23 137.5t-62 46.5q-38 0 -60.5 -46.5t-22.5 -137.5t22.5 -137.5t60.5 -46.5q39 0 62 46.5t23 137.5zM407 270q0 -161 -74 -233q-46 -46 -114 -46q-66 0 -114 46q-73 70 -73 233q0 159 73 232q49 47 114 47q68 0 115 -47q73 -73 73 -232z" />
<glyph horiz-adv-x="309" d="M24 378v77h17q101 0 131 85h74v-540h-102v378h-120z" />
<glyph horiz-adv-x="422" d="M386 94v-94h-354v27q0 48 12 84q19 52 85 104l79 63q40 32 54 52.5t14 47.5q0 32 -21 53t-52 21q-58 0 -91 -79l-80 42q23 60 67.5 97t107.5 37q76 0 123 -49t47 -121q0 -57 -22 -91t-83 -81l-85 -64q-37 -28 -40 -49h239z" />
<glyph horiz-adv-x="411" d="M201 87q33 0 54 19.5t21 52.5q0 53 -46 72q-17 8 -61 8h-33v89h22q47 0 68 9q35 14 35 55q0 26 -18 44t-46 18q-47 0 -82 -53l-72 54q63 94 158 94q69 0 112.5 -43t43.5 -111q0 -79 -65 -109q38 -15 61.5 -51t23.5 -82q0 -74 -49 -118t-121 -44q-122 0 -180 103l77 56 q40 -63 97 -63z" />
<glyph horiz-adv-x="437" d="M256 406l-135 -188h135v188zM412 218v-88h-57v-130h-99v130h-231v96l229 314h101v-322h57z" />
<glyph horiz-adv-x="422" d="M233 360q65 0 113 -50t48 -130t-53.5 -134.5t-135.5 -54.5q-124 0 -176 122l80 45q39 -72 95 -72q39 0 64.5 26.5t25.5 65.5q0 42 -25.5 66.5t-64.5 24.5q-46 0 -79 -43l-83 18l27 296h290v-94h-213l-12 -137q39 51 99 51z" />
<glyph horiz-adv-x="437" d="M149 171q0 -33 23 -60t57 -27q35 0 57.5 24.5t22.5 61.5q0 38 -22.5 61t-57.5 23q-34 0 -57 -23t-23 -60zM237 549q92 0 155 -78l-64 -68q-47 52 -94 52q-39 0 -64 -37q-32 -48 -32 -140q37 69 112 69q64 0 111 -49t47 -125q0 -77 -50.5 -129.5t-126.5 -52.5 q-84 0 -137 59q-56 65 -56 203q0 160 67 236q54 60 132 60z" />
<glyph horiz-adv-x="416" d="M214 1h-114q9 121 63.5 235.5t140.5 209.5h-279v94h372v-84q-165 -198 -183 -455z" />
<glyph horiz-adv-x="429" d="M213 -9q-78 0 -128.5 45.5t-50.5 119.5q0 44 21 78t56 52q-59 38 -59 108q0 66 46.5 110.5t114.5 44.5t114 -44.5t46 -110.5q0 -72 -58 -108q34 -18 55.5 -52.5t21.5 -77.5q0 -74 -50.5 -119.5t-128.5 -45.5zM131 161q0 -33 22.5 -55.5t59.5 -22.5q36 0 59 23.5t23 54.5 q0 33 -23 56t-59 23t-59 -23t-23 -56zM144 392q0 -28 19 -47t50 -19q30 0 49 19.5t19 46.5q0 28 -19 47t-49 19q-31 0 -50 -19t-19 -47z" />
<glyph horiz-adv-x="437" d="M284 369q0 33 -23 59.5t-57 26.5q-36 0 -58 -24t-22 -61q0 -38 22.5 -61.5t57.5 -23.5q34 0 57 23.5t23 60.5zM195 -9q-89 0 -156 73l59 71q48 -51 96 -51q43 0 68 38q34 51 34 142q-38 -72 -109 -72q-68 0 -114.5 49t-46.5 126t49.5 129.5t125.5 52.5q83 0 137 -60 q58 -65 58 -203q0 -156 -68 -235q-54 -60 -133 -60z" />
</font>
</defs>
</svg>
