<?xml version="1.0" standalone="no"?>
<!DOCTYPE svg PUBLIC "-//W3C//DTD SVG 1.1//EN" "http://www.w3.org/Graphics/SVG/1.1/DTD/svg11.dtd" >
<svg xmlns="http://www.w3.org/2000/svg" xmlns:xlink="http://www.w3.org/1999/xlink" version="1.1">
<metadata></metadata>
<defs>
<font id="baseticaitalic" horiz-adv-x="564" >
<font-face units-per-em="1000" ascent="750" descent="-250" />
<missing-glyph horiz-adv-x="235" />
<glyph unicode="&#xfb00;" horiz-adv-x="618" d="M554 580l-7 -39h103l-15 -84h-103l-80 -457h-94l80 457h-192l-80 -457h-94l80 457h-103l15 84h103l10 53q12 64 53.5 101t106.5 37q37 0 66 -11l-14 -83q-26 6 -48 6q-61 0 -73 -64l-7 -39h192l10 53q12 64 53.5 101t106.5 37q37 0 66 -11l-14 -83q-26 6 -48 6 q-61 0 -73 -64z" />
<glyph unicode="&#xfb01;" horiz-adv-x="567" d="M546 541l-95 -541h-94l80 457h-191l-80 -457h-94l80 457h-103l15 84h103l9 53q11 63 53.5 100.5t107.5 37.5q37 0 65 -11l-14 -83q-26 6 -47 6q-64 0 -74 -64l-6 -39h285zM460 673q0 25 16 41t41 16t41 -16t16 -41t-16 -41t-41 -16t-41 16t-16 41z" />
<glyph unicode="&#xfb02;" d="M268 580l-7 -39h103l-15 -84h-103l-80 -457h-94l80 457h-103l15 84h103l10 53q12 64 53.5 101t106.5 37q37 0 66 -11l-14 -83q-26 6 -48 6q-61 0 -73 -64zM574 720l-126 -720h-94l126 720h94z" />
<glyph unicode="&#xfb03;" horiz-adv-x="854" d="M833 541l-95 -541h-94l80 457h-193l-80 -457h-94l80 457h-191l-80 -457h-94l80 457h-103l15 84h103l10 53q12 64 53.5 101t106.5 37q37 0 66 -11l-14 -83q-26 6 -48 6q-61 0 -73 -64l-7 -39h191l10 53q12 64 53.5 101t106.5 37q37 0 66 -11l-14 -83q-26 6 -48 6 q-61 0 -73 -64l-7 -39h287zM748 673q0 25 16 41t41 16t41 -16t16 -41t-16 -41t-41 -16t-41 16t-16 41z" />
<glyph unicode="fj" horiz-adv-x="567" d="M546 541l-122 -690l-97 -20l110 626h-191l-80 -457h-94l80 457h-103l15 84h103l9 53q11 63 53.5 100.5t107.5 37.5q37 0 65 -11l-14 -83q-26 6 -47 6q-64 0 -74 -64l-6 -39h285zM460 673q0 25 16 41t41 16t41 -16t16 -41t-16 -41t-41 -16t-41 16t-16 41z" />
<glyph unicode="ft" horiz-adv-x="634" d="M651 457h-103l-80 -457h-94l80 457h-208l-80 -457h-94l80 457h-103l15 84h103l10 53q12 64 53.5 101t106.5 37q37 0 66 -11l-14 -83q-26 6 -48 6q-61 0 -73 -64l-7 -39h208l19 110l98 20l-23 -130h103z" />
<glyph unicode="ffj" horiz-adv-x="854" d="M833 541l-122 -690l-97 -20l110 626h-193l-80 -457h-94l80 457h-191l-80 -457h-94l80 457h-103l15 84h103l10 53q11 64 53 101t107 37q37 0 66 -11l-14 -83q-26 6 -48 6q-63 0 -73 -64l-7 -39h191l10 53q11 64 53 101t107 37q37 0 66 -11l-14 -83q-26 6 -48 6 q-63 0 -73 -64l-7 -39h287zM748 673q0 25 16 41t41 16t41 -16t16 -41t-16 -41t-41 -16t-41 16t-16 41z" />
<glyph unicode="fft" horiz-adv-x="920" d="M937 457h-103l-80 -457h-94l80 457h-208l-80 -457h-94l80 457h-192l-80 -457h-94l80 457h-103l15 84h103l10 53q12 64 53.5 101t106.5 37q37 0 66 -11l-14 -83q-26 6 -48 6q-61 0 -73 -64l-7 -39h192l10 53q12 64 53.5 101t106.5 37q37 0 66 -11l-14 -83q-26 6 -48 6 q-61 0 -73 -64l-7 -39h208l19 110l98 20l-23 -130h103z" />
<glyph unicode="tt" horiz-adv-x="620" d="M637 457h-103l-80 -457h-94l80 457h-194l-80 -457h-94l80 457h-103l15 84h103l19 110l98 20l-23 -130h194l19 110l98 20l-23 -130h103z" />
<glyph horiz-adv-x="0" />
<glyph horiz-adv-x="333" />
<glyph horiz-adv-x="0" />
<glyph horiz-adv-x="0" />
<glyph unicode="&#xd;" horiz-adv-x="235" />
<glyph unicode=" "  horiz-adv-x="235" />
<glyph unicode="&#x09;" horiz-adv-x="235" />
<glyph unicode="&#xa0;" horiz-adv-x="235" />
<glyph unicode="!" horiz-adv-x="235" d="M110 519l35 201h103l-35 -201l-88 -335h-45zM15 50q0 28 17 45.5t45 17.5q29 0 46 -17.5t17 -45.5t-17.5 -45t-45.5 -17t-45 17t-17 45z" />
<glyph unicode="&#x22;" horiz-adv-x="396" d="M248 720l-74 -242h-40l10 242h104zM410 720l-74 -242h-40l10 242h104z" />
<glyph unicode="#" horiz-adv-x="626" d="M90 0h-87l85 189h-70v79h106l88 194h-97v79h133l81 179h85l-81 -179h155l81 179h85l-81 -179h71v-79h-107l-88 -194h100v-79h-136l-85 -189h-85l85 189h-153zM297 462l-88 -194h155l88 194h-155z" />
<glyph unicode="$" horiz-adv-x="581" d="M539 197q0 -91 -69 -150t-182 -59l-27 -157h-65l29 163q-83 14 -135 64.5t-72 124.5l92 39q34 -112 131 -134l43 244q-173 58 -173 198q0 82 64.5 142t161.5 60q3 0 9 -0.5t8 -0.5l26 147h65l-27 -156q103 -27 157 -136l-86 -46q-39 68 -88 86l-39 -220l40 -17 q72 -31 104.5 -77t32.5 -115zM436 197q0 38 -20.5 63.5t-70.5 46.5l-40 -224q59 3 95 34.5t36 79.5zM213 531q0 -65 89 -99l35 205q-55 0 -89.5 -30.5t-34.5 -75.5z" />
<glyph unicode="%" horiz-adv-x="943" d="M88 518q0 88 62.5 151t149.5 63q78 0 124.5 -48t46.5 -123q0 -88 -60.5 -150.5t-146.5 -62.5q-81 0 -128.5 47t-47.5 123zM298 657q-53 0 -92.5 -40t-39.5 -98q0 -42 27.5 -69.5t70.5 -27.5q51 0 89 41t38 99q0 42 -26 68.5t-67 26.5zM656 720h85l-424 -720h-85zM506 158 q0 88 62.5 151t149.5 63q78 0 124.5 -48t46.5 -123q0 -88 -60.5 -150.5t-146.5 -62.5q-81 0 -128.5 47t-47.5 123zM716 297q-53 0 -92.5 -40t-39.5 -98q0 -42 27.5 -69.5t70.5 -27.5q51 0 89 41t38 99q0 42 -26 68.5t-67 26.5z" />
<glyph unicode="&#x26;" horiz-adv-x="653" d="M520 572q0 -65 -40.5 -109t-134.5 -79l106 -156q41 56 64 132h94q-11 -52 -41 -109.5t-65 -100.5l102 -150h-111l-57 84q-98 -96 -213 -96q-94 0 -152.5 51.5t-58.5 136.5q0 163 198 243q-41 66 -41 129q0 77 54.5 130.5t131.5 53.5q74 0 119 -45.5t45 -114.5zM229 79 q78 0 159 77l-132 196q-145 -66 -145 -173q0 -44 31.5 -72t86.5 -28zM263 547q0 -40 38 -98q70 23 98.5 52.5t28.5 67.5q0 32 -19.5 52.5t-52.5 20.5q-37 0 -65 -27.5t-28 -67.5z" />
<glyph unicode="'" horiz-adv-x="235" d="M248 720l-74 -242h-40l10 242h104z" />
<glyph unicode="(" horiz-adv-x="320" d="M72 128q0 316 213 592h91q-214 -280 -214 -605q0 -149 58 -284h-80q-68 138 -68 297z" />
<glyph unicode=")" horiz-adv-x="320" d="M251 423q0 -318 -213 -592h-91q213 278 213 604q0 149 -57 285h79q69 -141 69 -297z" />
<glyph unicode="*" horiz-adv-x="444" d="M323 344l-65 129l-104 -99l-50 50l107 101l-131 70l34 63l128 -71l24 136l71 -12l-24 -135l145 21l10 -71l-148 -20l67 -132z" />
<glyph unicode="+" d="M339 401h184v-82h-184v-184h-82v184h-184v82h184v184h82v-184z" />
<glyph unicode="," horiz-adv-x="235" d="M-25 -151l66 253h113l-121 -253h-58z" />
<glyph unicode="-" horiz-adv-x="235" d="M225 313l-15 -84h-200l15 84h200z" />
<glyph unicode="." horiz-adv-x="235" d="M16 50q0 28 17 45.5t46 17.5q28 0 45 -17.5t17 -45.5t-17 -45t-45 -17t-45.5 17t-17.5 45z" />
<glyph unicode="/" horiz-adv-x="373" d="M348 720h91l-383 -720h-90z" />
<glyph unicode="0" d="M39 248q0 66 14 141q30 163 109 253t182 90q93 0 149 -62q62 -67 62 -198q0 -68 -14 -141q-31 -164 -108.5 -253.5t-182.5 -89.5q-94 0 -148 62q-63 70 -63 198zM139 244q0 -81 29 -123t82 -42q66 0 115.5 66t75.5 188q15 70 15 141q0 81 -29.5 124t-82.5 43 q-66 0 -114.5 -66t-75.5 -189q-15 -69 -15 -142z" />
<glyph unicode="1" d="M162 535l12 69h16q135 0 183 116h73l-126 -720h-98l94 535h-154z" />
<glyph unicode="2" d="M482 90l-15 -90h-462l5 36q11 84 49.5 135t115.5 101l134 87q79 52 109 88.5t30 86.5q0 48 -28.5 77t-76.5 29q-94 0 -165 -121l-76 48q36 75 101 120t143 45q90 0 145.5 -55t55.5 -143q0 -76 -37 -127.5t-130 -109.5l-154 -96q-86 -53 -97 -111h353z" />
<glyph unicode="3" d="M256 80q63 0 104 39.5t41 99.5q0 117 -143 117h-47l15 84h26q89 0 136.5 32.5t47.5 91.5q0 42 -26.5 69.5t-70.5 27.5q-77 0 -142 -84l-66 57q86 118 210 118q86 0 137.5 -51.5t51.5 -130.5q0 -128 -127 -174q96 -42 96 -162q0 -100 -68 -163t-175 -63q-156 0 -225 131 l75 51q52 -90 150 -90z" />
<glyph unicode="4" d="M413 584l-284 -317h228zM536 267l-15 -87h-84l-32 -180h-95l32 180h-326l17 100l395 440h103l-79 -453h84z" />
<glyph unicode="5" d="M321 472q83 0 140 -61t57 -159q0 -113 -75.5 -188.5t-188.5 -75.5q-89 0 -147 47t-77 126l85 33q30 -115 138 -115q73 0 120 51t47 122q0 60 -33.5 96t-89.5 36q-75 0 -140 -70l-77 30l97 376h374l-15 -91h-294l-56 -213q64 56 135 56z" />
<glyph unicode="6" d="M378 732q124 0 193 -104l-70 -57q-27 37 -55.5 54t-67.5 17q-65 0 -119 -55q-72 -75 -100 -227q70 98 172 98q85 0 141 -60t56 -151q0 -107 -75.5 -183t-182.5 -76q-124 0 -181 91q-40 63 -40 168q0 257 144 403q80 82 185 82zM431 248q0 53 -32 87t-84 34 q-65 0 -115 -50.5t-50 -120.5q0 -53 32 -86.5t88 -33.5q67 0 114 50t47 120z" />
<glyph unicode="7" d="M110 630l15 90h484l-15 -85q-137 -136 -227.5 -289.5t-133.5 -345.5h-117q31 174 133 336.5t245 293.5h-384z" />
<glyph unicode="8" d="M446 548q0 42 -28 69t-72 27q-59 0 -97 -38t-38 -90q0 -42 28 -69t73 -27q57 0 95.5 38.5t38.5 89.5zM411 221q0 50 -34 82t-87 32q-67 0 -113 -43t-46 -103q0 -49 34 -80.5t89 -31.5q70 0 113.5 42t43.5 102zM254 -12q-96 0 -157.5 56t-61.5 145q0 71 42 122.5t109 77.5 q-67 50 -67 132q0 88 67.5 149.5t159.5 61.5q85 0 138.5 -52.5t53.5 -129.5q0 -122 -121 -178q90 -45 90 -155q0 -99 -71 -164t-182 -65z" />
<glyph unicode="9" d="M218 -12q-125 0 -193 104l70 57q27 -37 55.5 -54t67.5 -17q66 0 120 57q71 74 99 224q-69 -97 -172 -97q-85 0 -141 60t-56 150q0 108 76 184t182 76q125 0 181 -92q40 -64 40 -165q0 -141 -42.5 -244t-101.5 -163q-79 -80 -185 -80zM165 472q0 -54 32 -87.5t84 -33.5 q65 0 115 50t50 118q0 55 -32 89t-88 34q-66 0 -113.5 -50.5t-47.5 -119.5z" />
<glyph unicode=":" horiz-adv-x="235" d="M16 50q0 28 17 45.5t46 17.5q28 0 45 -17.5t17 -45.5t-17 -45t-45 -17t-45.5 17t-17.5 45zM93 490q0 28 17.5 45.5t45.5 17.5t45 -17.5t17 -45.5t-17 -45t-45 -17t-45.5 17t-17.5 45z" />
<glyph unicode=";" horiz-adv-x="235" d="M-25 -151l66 253h113l-121 -253h-58zM93 490q0 28 17.5 45.5t45.5 17.5t45 -17.5t17 -45.5t-17 -45t-45 -17t-45.5 17t-17.5 45z" />
<glyph unicode="&#x3c;" d="M523 136l-450 197v53l450 197v-93l-320 -130l320 -130v-94z" />
<glyph unicode="=" d="M73 501h450v-82h-450v82zM73 301h450v-82h-450v82z" />
<glyph unicode="&#x3e;" d="M523 333l-450 -197v94l320 130l-320 130v93l450 -197v-53z" />
<glyph unicode="?" horiz-adv-x="471" d="M239 184h-52q-3 27 -3 31q2 93 75 156l64 55q38 33 54.5 60t16.5 62q0 40 -26 67t-69 27q-82 0 -139 -105l-72 48q32 66 86.5 106.5t124.5 40.5q84 0 137.5 -52.5t53.5 -130.5q0 -57 -22.5 -96t-72.5 -80l-57 -47q-46 -38 -67.5 -69.5t-31.5 -72.5zM130 50q0 28 17 45.5 t45 17.5t45.5 -17.5t17.5 -45.5t-17.5 -45t-45.5 -17t-45 17t-17 45z" />
<glyph unicode="@" horiz-adv-x="961" d="M630 -43l31 -71q-103 -56 -226 -56q-182 0 -289.5 102.5t-107.5 272.5q0 145 67.5 266t186 191t261.5 70q174 0 275.5 -102t101.5 -267q0 -82 -23.5 -148t-60 -103.5t-75.5 -57.5t-74 -20q-55 0 -88.5 25t-41.5 68q-67 -93 -157 -93q-62 0 -100.5 34t-38.5 88 q0 112 147 142l125 26q57 13 57 60q0 30 -22 48.5t-60 18.5q-81 0 -106 -81l-87 15q15 66 68 106t128 40t120 -39t45 -98q0 -18 -8 -68l-26 -148q-2 -12 -2 -21q0 -44 48 -44q54 0 99 69.5t45 181.5q0 131 -79 208.5t-210 77.5q-179 0 -301 -128.5t-122 -314.5 q0 -139 82.5 -217.5t224.5 -78.5q98 0 193 46zM579 256l4 22q-21 -13 -57 -23l-88 -22q-79 -21 -79 -78q0 -20 17 -32.5t47 -12.5q51 0 97 37t59 109z" />
<glyph unicode="A" horiz-adv-x="694" d="M535 0l-37 177h-321l-101 -177h-112l418 720h99l155 -720h-101zM412 582l-185 -315h253z" />
<glyph unicode="B" horiz-adv-x="607" d="M140 91h156q76 0 119 36.5t43 97.5q0 48 -31 76.5t-87 28.5h-157zM198 421h138q65 0 102.5 32t37.5 85q0 42 -27 66.5t-74 24.5h-140zM307 0h-281l126 720h231q90 0 142.5 -50t52.5 -128q0 -124 -124 -165q48 -16 78 -57.5t30 -102.5q0 -95 -68.5 -156t-186.5 -61z" />
<glyph unicode="C" horiz-adv-x="762" d="M470 637q-132 0 -223 -95.5t-91 -233.5q0 -103 61 -164t166 -61q162 0 255 161l84 -47q-50 -99 -137.5 -153.5t-201.5 -54.5q-151 0 -241 87.5t-90 230.5q0 176 123.5 300.5t295.5 124.5q112 0 185 -54.5t103 -139.5l-89 -39q-59 138 -200 138z" />
<glyph unicode="D" horiz-adv-x="685" d="M26 0l126 720h197q144 0 230.5 -86t86.5 -239q0 -174 -119.5 -284.5t-317.5 -110.5h-203zM235 629l-94 -538h84q160 0 249 85.5t89 218.5q0 113 -58 173.5t-164 60.5h-106z" />
<glyph unicode="E" horiz-adv-x="538" d="M26 0l126 720h409l-16 -91h-310l-36 -208h301l-16 -91h-301l-42 -239h319l-16 -91h-418z" />
<glyph unicode="F" horiz-adv-x="510" d="M26 0l126 720h399l-16 -91h-300l-36 -208h271l-16 -91h-271l-58 -330h-99z" />
<glyph unicode="G" horiz-adv-x="789" d="M472 732q106 0 176 -46.5t105 -122.5l-91 -47q-57 121 -191 121q-127 0 -221 -97t-94 -233q0 -103 62.5 -163.5t171.5 -60.5q96 0 164.5 55t87.5 145h-273l16 90h368l-66 -373h-90l17 95q-90 -105 -229 -105q-150 0 -241.5 87t-91.5 230q0 174 127 299.5t293 125.5z" />
<glyph unicode="H" horiz-adv-x="718" d="M499 0l58 330h-374l-58 -330h-99l126 720h99l-52 -299h374l52 299h99l-126 -720h-99z" />
<glyph unicode="I" horiz-adv-x="245" d="M251 720l-126 -720h-99l126 720h99z" />
<glyph unicode="J" horiz-adv-x="389" d="M78 82q113 0 136 125l90 513h99l-94 -542q-16 -91 -74.5 -140.5t-150.5 -49.5q-56 0 -98 14l11 91q42 -11 81 -11z" />
<glyph unicode="K" horiz-adv-x="675" d="M617 0h-122l-178 335l-157 -135l-35 -200h-99l126 720h99l-66 -378l394 378h140l-334 -312z" />
<glyph unicode="L" horiz-adv-x="500" d="M26 0l126 720h99l-110 -629h299l-16 -91h-398z" />
<glyph unicode="M" horiz-adv-x="849" d="M255 720l166 -406l312 406h122l-126 -720h-99l98 558l-284 -364h-77l-149 369l-99 -563h-93l126 720h103z" />
<glyph unicode="N" horiz-adv-x="717" d="M499 0l-283 557l-96 -557h-94l126 720h93l286 -562l98 562h94l-126 -720h-98z" />
<glyph unicode="O" horiz-adv-x="812" d="M383 -11q-151 0 -241 88t-90 231q0 114 59.5 212.5t156 155t204.5 56.5q143 0 231 -90.5t88 -231.5q0 -178 -120.5 -299.5t-287.5 -121.5zM687 410q0 103 -59.5 165t-155.5 62q-127 0 -221.5 -96.5t-94.5 -232.5q0 -103 61.5 -164t165.5 -61q121 0 212.5 95t91.5 232z " />
<glyph unicode="P" horiz-adv-x="612" d="M400 629h-165l-43 -244h161q77 0 121 36.5t44 97.5q0 49 -32 79.5t-86 30.5zM354 294h-178l-51 -294h-99l126 720h255q97 0 156 -55.5t59 -144.5q0 -101 -71 -163.5t-197 -62.5z" />
<glyph unicode="Q" horiz-adv-x="812" d="M383 -11q-151 0 -241 88t-90 231q0 114 59.5 212.5t156 155t204.5 56.5q143 0 231 -90.5t88 -231.5q0 -117 -55.5 -213t-148.5 -152l50 -132l-84 -32l-48 128q-65 -20 -122 -20zM687 410q0 103 -59.5 165t-155.5 62q-127 0 -221.5 -96.5t-94.5 -232.5q0 -103 61.5 -164 t165.5 -61q47 0 90 15l-62 161l85 31l57 -149q61 44 97.5 114.5t36.5 154.5z" />
<glyph unicode="R" horiz-adv-x="605" d="M320 312h-140l-55 -312h-99l126 720h241q93 0 150 -53t57 -141q0 -161 -183 -205l113 -321h-108zM384 629h-149l-39 -226h149q69 0 110 34t41 90q0 47 -29.5 74.5t-82.5 27.5z" />
<glyph unicode="S" horiz-adv-x="581" d="M293 83q64 0 103.5 31.5t39.5 82.5q0 38 -20.5 63.5t-68.5 45.5l-90 37q-77 31 -112 76t-35 111q0 82 65 142t162 60q164 0 234 -146l-85 -46q-29 52 -64 74.5t-85 22.5q-56 0 -90.5 -30.5t-34.5 -75.5q0 -31 19.5 -54.5t66.5 -43.5l103 -44q72 -31 105 -77t33 -115 q0 -90 -68 -149.5t-179 -59.5q-112 0 -181 53t-94 142l92 39q45 -139 184 -139z" />
<glyph unicode="T" horiz-adv-x="604" d="M414 629l-110 -629h-99l110 629h-227l16 91h554l-16 -91h-228z" />
<glyph unicode="U" horiz-adv-x="678" d="M597 720h93l-86 -487q-20 -115 -95.5 -180t-190.5 -65q-116 0 -184.5 63t-68.5 166q0 40 12 112l69 391h99l-73 -421q-10 -60 -10 -77q0 -60 43.5 -99.5t115.5 -39.5q77 0 129.5 48.5t66.5 131.5z" />
<glyph unicode="V" horiz-adv-x="647" d="M296 138l307 582h112l-387 -720h-106l-132 720h101z" />
<glyph unicode="W" horiz-adv-x="1031" d="M724 154l262 566h110l-342 -720h-111l-73 574l-284 -574h-110l-83 720h103l62 -566l279 566h111z" />
<glyph unicode="X" horiz-adv-x="664" d="M224 720l139 -272l219 272h123l-297 -358l191 -362h-118l-149 293l-233 -293h-128l314 381l-176 339h115z" />
<glyph unicode="Y" horiz-adv-x="621" d="M326 402l248 318h118l-329 -418l-53 -302h-99l53 302l-177 418h104z" />
<glyph unicode="Z" horiz-adv-x="650" d="M123 629l16 91h541l-16 -93l-519 -536h445l-16 -91h-588l14 84l530 545h-407z" />
<glyph unicode="[" horiz-adv-x="320" d="M106 -93h127l-13 -76h-209l156 889h209l-13 -76h-127z" />
<glyph unicode="\" horiz-adv-x="373" d="M92 720h79l142 -720h-79z" />
<glyph unicode="]" horiz-adv-x="320" d="M-41 -93h127l130 737h-127l13 76h209l-156 -889h-208z" />
<glyph unicode="^" horiz-adv-x="500" d="M27 270l276 450h52l118 -450h-88l-73 320l-186 -320h-99z" />
<glyph unicode="_" horiz-adv-x="500" d="M-76 -169l13 72h500l-13 -72h-500z" />
<glyph unicode="`" horiz-adv-x="500" d="M280 720l41 -136h-66l-81 136h106z" />
<glyph unicode="a" horiz-adv-x="530" d="M365 246l4 21q-25 -16 -68 -26q-13 -3 -35.5 -8t-34 -7.5t-29.5 -7t-28 -8.5t-23 -9.5t-19.5 -12t-13.5 -15t-9.5 -19t-2.5 -22.5q0 -29 21 -46.5t58 -17.5q61 0 112 45.5t68 132.5zM298 553q85 0 134 -43.5t49 -115.5q0 -29 -9 -79l-37 -206q-2 -14 -2 -17q0 -21 22 -21 q6 0 16 2l-4 -81q-14 -4 -31 -4q-41 0 -67 24t-26 65v11q-68 -100 -176 -100q-68 0 -111.5 37.5t-43.5 102.5q0 61 44 104t126 57l134 22q75 12 75 76q0 36 -24.5 58t-68.5 22q-50 0 -85.5 -25t-49.5 -70l-88 20q17 68 77.5 114.5t145.5 46.5z" />
<glyph unicode="b" horiz-adv-x="643" d="M242 720l-46 -265q79 98 188 98q97 0 160 -70t63 -184q0 -129 -83.5 -220t-201.5 -91q-127 0 -189 106l-17 -94h-94l126 720h94zM509 302q0 74 -39.5 119t-106.5 45q-82 0 -144.5 -67.5t-62.5 -167.5q0 -71 41.5 -114t109.5 -43q83 0 142.5 65.5t59.5 162.5z" />
<glyph unicode="c" horiz-adv-x="584" d="M351 465q-88 0 -153.5 -66.5t-65.5 -165.5q0 -71 43.5 -114t116.5 -43q111 0 176 115l80 -48q-39 -75 -105 -115t-151 -40q-118 0 -187 67.5t-69 177.5q0 135 93.5 227.5t221.5 92.5q90 0 145.5 -41t77.5 -104l-86 -39q-40 96 -137 96z" />
<glyph unicode="d" horiz-adv-x="643" d="M134 239q0 -75 40 -120t106 -45q81 0 144 68t63 167q0 72 -41.5 115t-109.5 43q-82 0 -142 -65.5t-60 -162.5zM263 -12q-100 0 -163.5 69t-63.5 183q0 130 84.5 221.5t202.5 91.5q126 0 187 -110l49 277h94l-127 -720h-94l15 82q-78 -94 -184 -94z" />
<glyph unicode="e" horiz-adv-x="600" d="M144 319h331q0 69 -36.5 108t-101.5 39q-68 0 -120.5 -41.5t-72.5 -105.5zM560 244h-429v-12q0 -75 41.5 -116t114.5 -41q55 0 94 26.5t59 67.5l91 -27q-30 -69 -93 -111.5t-152 -42.5q-116 0 -183 65.5t-67 182.5q0 135 90.5 226t210.5 91q107 0 168.5 -66t61.5 -165 q0 -43 -7 -78z" />
<glyph unicode="f" horiz-adv-x="332" d="M268 580l-7 -39h103l-15 -84h-103l-80 -457h-94l80 457h-103l15 84h103l10 53q12 64 53.5 101t106.5 37q37 0 66 -11l-14 -83q-26 6 -48 6q-61 0 -73 -64z" />
<glyph unicode="g" horiz-adv-x="629" d="M608 541l-87 -495q-18 -104 -91 -165t-185 -61q-104 0 -164.5 46t-73.5 115l93 16q30 -92 146 -92q75 0 124.5 46t62.5 125l6 38q-72 -96 -174 -96q-98 0 -160.5 63t-62.5 170q0 126 82.5 214t193.5 88q124 0 181 -108l15 96h94zM336 467q-78 0 -136.5 -62.5 t-58.5 -153.5q0 -64 38 -106t102 -42q79 0 137.5 64t58.5 151q0 67 -38 108t-103 41z" />
<glyph unicode="h" horiz-adv-x="565" d="M359 553q73 0 115.5 -46t42.5 -111q0 -44 -10 -100l-52 -296h-94q38 218 52 296q9 54 9 80q0 40 -25.5 64.5t-68.5 24.5q-130 0 -162 -182q-31 -172 -50 -283h-94l126 720h94l-45 -257q68 90 162 90z" />
<glyph unicode="i" horiz-adv-x="232" d="M211 541l-95 -541h-94l95 541h94zM119 673q0 25 15.5 41t41.5 16t41.5 -16t15.5 -41t-15.5 -41t-41.5 -16t-41.5 16t-15.5 41z" />
<glyph unicode="j" horiz-adv-x="232" d="M211 541l-122 -690l-97 -20l125 710h94zM119 673q0 25 15.5 41t41.5 16t41.5 -16t15.5 -41t-15.5 -41t-41.5 -16t-41.5 16t-15.5 41z" />
<glyph unicode="k" horiz-adv-x="545" d="M490 0h-115l-130 230l-106 -103l-23 -127h-94l126 720h94l-79 -448l275 269h132l-252 -243z" />
<glyph unicode="l" horiz-adv-x="232" d="M242 720l-126 -720h-94l126 720h94z" />
<glyph unicode="m" horiz-adv-x="860" d="M490 448q71 105 172 105q70 0 110.5 -44.5t40.5 -108.5q0 -35 -11 -99l-53 -301h-94l55 311q8 47 8 72q0 37 -22.5 59.5t-62.5 22.5q-39 0 -72 -25t-53 -65q-16 -31 -28 -103l-47 -272h-94l54 311q8 47 8 72q0 37 -22.5 59.5t-62.5 22.5q-118 0 -152 -193l-48 -272h-94 l95 541h94l-14 -77q69 89 153 89q55 0 91.5 -30.5t48.5 -74.5z" />
<glyph unicode="n" horiz-adv-x="565" d="M359 553q73 0 115.5 -46t42.5 -111q0 -44 -10 -100l-52 -296h-94l52 296q9 54 9 80q0 41 -24.5 65t-69.5 24q-130 0 -162 -182l-50 -283h-94l95 541h94l-14 -78q68 90 162 90z" />
<glyph unicode="o" horiz-adv-x="638" d="M292 -12q-118 0 -187 67.5t-69 177.5q0 132 94 226t224 94q115 0 181.5 -68.5t66.5 -178.5q0 -135 -89.5 -226.5t-220.5 -91.5zM506 306q0 73 -41.5 116t-110.5 43q-89 0 -155 -67.5t-66 -164.5q0 -71 43 -114t116 -43q86 0 150 66.5t64 163.5z" />
<glyph unicode="p" horiz-adv-x="643" d="M509 302q0 74 -39.5 119t-106.5 45q-82 0 -144.5 -67.5t-62.5 -167.5q0 -71 41.5 -114t109.5 -43q83 0 142.5 65.5t59.5 162.5zM384 553q97 0 160 -70t63 -184q0 -129 -83.5 -220t-201.5 -91q-127 0 -189 106l-47 -263h-94l125 710h94l-15 -86q79 98 188 98z" />
<glyph unicode="q" horiz-adv-x="643" d="M134 239q0 -75 40 -120t106 -45q81 0 144 68t63 167q0 72 -41.5 115t-109.5 43q-82 0 -142 -65.5t-60 -162.5zM263 -12q-100 0 -163.5 69t-63.5 183q0 130 85 221.5t202 91.5q126 0 187 -110l18 98h94l-125 -710h-94l44 251q-78 -94 -184 -94z" />
<glyph unicode="r" horiz-adv-x="365" d="M395 551l-7 -98q-18 3 -40 3q-109 0 -163 -116q-16 -34 -31 -120l-38 -220h-94l95 541h94l-18 -101q66 113 170 113q14 0 32 -2z" />
<glyph unicode="s" horiz-adv-x="443" d="M212 74q41 0 66 19.5t25 48.5q0 43 -52 71l-80 43q-52 28 -74.5 62t-22.5 81q0 62 49.5 108t122.5 46q107 0 172 -93l-69 -54q-48 61 -104 61q-36 0 -58.5 -20t-22.5 -47q0 -39 51 -66l84 -44q95 -51 95 -147q0 -69 -48.5 -112t-132.5 -43q-157 0 -208 130l77 45 q40 -89 130 -89z" />
<glyph unicode="t" horiz-adv-x="332" d="M349 457h-103l-80 -457h-94l80 457h-103l15 84h103l19 110l98 20l-23 -130h103z" />
<glyph unicode="u" horiz-adv-x="565" d="M210 -12q-75 0 -118 46.5t-43 116.5q0 33 10 93l52 297h94l-52 -296q-10 -54 -10 -82q0 -41 24.5 -64.5t70.5 -23.5q62 0 104 46.5t58 135.5l50 284h94l-95 -541h-94l13 78q-67 -90 -158 -90z" />
<glyph unicode="v" horiz-adv-x="539" d="M471 541h109l-311 -541h-98l-116 541h99l83 -414z" />
<glyph unicode="w" horiz-adv-x="845" d="M778 541h108l-277 -541h-100l-64 406l-214 -406h-103l-73 541h99l48 -404l212 404h105l61 -404z" />
<glyph unicode="x" horiz-adv-x="542" d="M183 541l104 -188l153 188h123l-230 -272l149 -269h-112l-114 204l-162 -204h-128l242 291l-137 250h112z" />
<glyph unicode="y" horiz-adv-x="550" d="M481 541h110l-427 -710h-111l129 205l-127 505h101l94 -396z" />
<glyph unicode="z" horiz-adv-x="522" d="M80 457l15 84h435l-13 -77l-382 -380h329l-14 -84h-471l12 70l387 387h-298z" />
<glyph unicode="{" horiz-adv-x="320" d="M112 270q58 -21 58 -86q0 -20 -6 -55l-27 -152q-2 -14 -2 -20q0 -50 56 -50h42l-13 -76h-35q-61 0 -96 33.5t-35 86.5q0 26 7 61l25 138q3 18 3 34q0 29 -18 44t-62 15l12 65q55 0 78 23t31 70l33 186q12 65 51.5 99t98.5 34h63l-13 -76h-42q-65 0 -78 -70l-36 -197 q-8 -46 -30 -71.5t-65 -35.5z" />
<glyph unicode="|" horiz-adv-x="235" d="M265 878l-184 -1047h-81l184 1047h81z" />
<glyph unicode="}" horiz-adv-x="320" d="M211 281q-59 20 -59 86q0 15 7 54l26 153q2 14 2 20q0 50 -55 50h-42l13 76h35q60 0 95 -33t35 -87q0 -26 -6 -61l-25 -138q-4 -24 -4 -34q0 -60 80 -60l-11 -64q-55 0 -78.5 -23t-31.5 -70l-33 -187q-12 -65 -51.5 -98.5t-97.5 -33.5h-63l13 76h42q65 0 78 70l35 197 q8 45 30.5 70.5t65.5 36.5z" />
<glyph unicode="~" d="M194 436q37 0 86 -23l62 -29q37 -18 58 -18q52 0 52 70l75 -6q0 -70 -35 -108t-90 -38q-37 0 -86 23l-62 29q-37 18 -58 18q-52 0 -52 -70l-75 6q0 70 35 108t90 38z" />
<glyph unicode="&#xa1;" horiz-adv-x="235" d="M153 201l-35 -201h-103l35 201l88 335h45zM248 670q0 -28 -17 -45.5t-45 -17.5t-45.5 17.5t-17.5 45.5t17.5 45t45.5 17t45 -17t17 -45z" />
<glyph unicode="&#xa2;" horiz-adv-x="584" d="M206 -169l28 162q-92 16 -145 80.5t-53 159.5q0 125 87.5 217.5t208.5 101.5l30 168h65l-30 -171q133 -19 178 -141l-86 -39q-35 81 -108 93l-67 -386q94 10 154 115l80 -48q-38 -73 -102.5 -113.5t-147.5 -41.5l-27 -157h-65zM133 233q0 -60 31 -100.5t85 -52.5l67 381 q-77 -14 -130 -78t-53 -150z" />
<glyph unicode="&#xa3;" horiz-adv-x="635" d="M469 333h-218q17 -48 17 -91q0 -52 -29 -98q16 -4 48 -18l58 -25q48 -21 79 -21q69 0 79 94l90 -13q-5 -86 -50.5 -129.5t-113.5 -43.5q-61 0 -113 23l-66 30q-38 17 -72 17q-27 0 -48.5 -19t-24.5 -60l-89 13q6 66 42 105t88 49q29 41 29 85q0 33 -23 102h-110l12 65h78 q-8 34 -8 68q0 114 77 190t191 76q152 0 228 -129l-82 -53q-27 45 -61 66t-85 21q-71 0 -118.5 -49t-47.5 -132q0 -28 6 -58h249z" />
<glyph unicode="&#xa5;" horiz-adv-x="621" d="M94 377h138l-145 343h104l135 -319l249 319h117l-270 -343h142l-11 -65h-181l-8 -10l-13 -75h187l-12 -65h-187l-28 -162h-99l28 162h-184l12 65h184l12 77l-3 8h-178z" />
<glyph unicode="&#xa6;" horiz-adv-x="235" d="M265 878l-70 -397h-81l70 397h81zM151 228l-70 -397h-81l70 397h81z" />
<glyph unicode="&#xa7;" horiz-adv-x="566" d="M376 328l-98 52q-35 19 -65 19q-28 0 -46 -19.5t-18 -47.5q0 -46 55 -73l99 -50q38 -19 64 -19q27 0 45.5 19t18.5 45q0 25 -12.5 41.5t-42.5 32.5zM402 138q45 -51 45 -121q0 -79 -57.5 -132.5t-148.5 -53.5q-164 0 -224 144l79 44q48 -100 145 -100q50 0 79.5 29 t29.5 70q0 32 -18 56t-62 47l-114 59q-57 29 -81 60t-24 77q0 55 38 90.5t96 41.5q-35 39 -35 97q0 79 57 132.5t143 53.5q141 0 196 -130l-82 -38q-38 80 -114 80q-47 0 -75.5 -27t-28.5 -64q0 -53 68 -88q16 -8 48.5 -24.5t46.5 -24.5t38 -22t35 -25.5t24 -27.5t18 -34 t5 -39q0 -55 -35 -88.5t-92 -41.5z" />
<glyph unicode="&#xa8;" horiz-adv-x="500" d="M115 676q0 23 14.5 37.5t37.5 14.5q24 0 38.5 -14.5t14.5 -37.5q0 -24 -14.5 -38.5t-38.5 -14.5q-23 0 -37.5 14.5t-14.5 38.5zM280 676q0 23 14.5 37.5t37.5 14.5q24 0 38.5 -14.5t14.5 -37.5q0 -24 -14.5 -38.5t-38.5 -14.5q-23 0 -37.5 14.5t-14.5 38.5z" />
<glyph unicode="&#xa9;" horiz-adv-x="826" d="M431 148q-87 0 -146 59.5t-59 148.5t59 148.5t146 59.5q123 0 178 -113l-69 -40q-45 76 -109 76q-52 0 -87 -37.5t-35 -93.5t35 -93.5t87 -37.5q76 0 112 84l72 -32q-22 -58 -69.5 -93.5t-114.5 -35.5zM429 -12q-161 0 -266.5 105.5t-105.5 266.5q0 160 105.5 266 t266.5 106t266.5 -106t105.5 -266q0 -161 -105.5 -266.5t-266.5 -105.5zM719 360q0 126 -82.5 211.5t-207.5 85.5q-126 0 -208 -85.5t-82 -211.5q0 -127 82 -212.5t208 -85.5q125 0 207.5 86t82.5 212z" />
<glyph unicode="&#xaa;" horiz-adv-x="413" d="M293 361l3 15q-17 -11 -44 -17q-10 -3 -29 -7.5t-29 -7t-25 -7.5t-23.5 -9.5t-17 -11.5t-12.5 -15.5t-4 -18.5q0 -42 53 -42q43 0 80 32.5t48 88.5zM247 597q66 0 103.5 -35t37.5 -90q0 -19 -7 -59l-25 -141q-2 -16 -2 -18q0 -12 12 -12q7 0 16 3l-5 -70q-9 -4 -27 -4 q-63 0 -74 64q-51 -64 -125 -64q-52 0 -85 28.5t-33 77.5q0 99 121 122l109 21q48 8 48 49q0 25 -16.5 40t-48.5 15q-71 0 -93 -71l-76 18q14 54 59.5 90t110.5 36z" />
<glyph unicode="&#xab;" horiz-adv-x="486" d="M43 315l234 173l-20 -114l-151 -111l112 -111l-17 -98l-173 173zM247 315l234 173l-19 -114l-151 -111l111 -111l-17 -98l-173 173z" />
<glyph unicode="&#xac;" d="M523 501v-282h-82v200h-368v82h450z" />
<glyph unicode="&#xad;" horiz-adv-x="235" d="M225 313l-15 -84h-200l15 84h200z" />
<glyph unicode="&#xae;" horiz-adv-x="826" d="M420 316h-48v-161h-79v402h148q63 0 97.5 -33t34.5 -88q0 -68 -77 -104l95 -177h-91zM438 484h-66v-95h62q27 0 41.5 13t14.5 34q0 22 -14 35t-38 13zM429 -12q-161 0 -266.5 105.5t-105.5 266.5q0 160 105.5 266t266.5 106t266.5 -106t105.5 -266q0 -161 -105.5 -266.5 t-266.5 -105.5zM719 360q0 126 -82.5 211.5t-207.5 85.5q-126 0 -208 -85.5t-82 -211.5q0 -127 82 -212.5t208 -85.5q125 0 207.5 86t82.5 212z" />
<glyph unicode="&#xaf;" horiz-adv-x="500" d="M109 648l13 72h268l-13 -72h-268z" />
<glyph unicode="&#xb0;" horiz-adv-x="412" d="M84 559q0 74 50 123.5t123 49.5t123 -49.5t50 -123.5q0 -71 -50.5 -121.5t-122.5 -50.5q-73 0 -123 49t-50 123zM163 559q0 -42 27 -69t67 -27q39 0 66 28t27 68q0 42 -26.5 69t-66.5 27t-67 -27t-27 -69z" />
<glyph unicode="&#xb1;" d="M339 215h184v-82h-450v82h184v138h-184v82h184v164h82v-164h184v-82h-184v-138z" />
<glyph unicode="&#xb2;" horiz-adv-x="432" d="M391 256l-13 -76h-351l4 29q9 68 38.5 106.5t94.5 80.5l93 60q56 36 77.5 62t21.5 59t-20 53.5t-53 20.5q-68 0 -118 -89l-65 41q28 55 76.5 90.5t107.5 35.5q70 0 112 -42.5t42 -108.5q0 -56 -28.5 -96t-98.5 -83l-112 -70q-56 -35 -64 -73h256z" />
<glyph unicode="&#xb3;" horiz-adv-x="407" d="M200 248q46 0 74 28t28 69q0 43 -25.5 62.5t-79.5 19.5h-33l13 72h19q133 0 133 86q0 29 -18 48t-49 19q-58 0 -100 -63l-58 48q62 92 158 92q65 0 105.5 -40t40.5 -100q0 -88 -87 -128q64 -35 64 -120q0 -77 -53 -123.5t-131 -46.5q-61 0 -104.5 28t-66.5 76l66 43 q37 -70 104 -70z" />
<glyph unicode="&#xb4;" horiz-adv-x="500" d="M153 584l79 136h116l-119 -136h-76z" />
<glyph unicode="&#xb5;" horiz-adv-x="571" d="M-8 -169l125 710h94l-54 -304q-9 -51 -9 -85q0 -36 23.5 -59t68.5 -23q43 0 80 26t61 76q16 32 26 88l49 281h94l-95 -541h-94l14 82q-64 -94 -158 -94q-58 0 -97 28l-34 -185h-94z" />
<glyph unicode="&#xb6;" horiz-adv-x="594" d="M180 -169l91 516q-85 6 -135 48.5t-50 120.5q0 94 65.5 149t182.5 55h266l-156 -889h-83l142 808h-99l-142 -808h-82z" />
<glyph unicode="&#xb7;" horiz-adv-x="235" d="M72 359q0 29 17 46t46 17q28 0 45 -17.5t17 -45.5t-17 -45t-45 -17t-45.5 17t-17.5 45z" />
<glyph unicode="&#xb8;" horiz-adv-x="500" d="M238 -181q-57 0 -100 23l14 41q34 -16 73 -16q22 0 33 8t11 20q0 23 -31 23q-17 0 -39 -10l-21 27l76 85h46l-54 -62q9 3 25 3q33 0 53.5 -18.5t20.5 -46.5q0 -35 -27 -56t-80 -21z" />
<glyph unicode="&#xb9;" horiz-adv-x="287" d="M80 574l10 60h17q45 0 79.5 22t50.5 64h64l-95 -540h-82l70 394h-114z" />
<glyph unicode="&#xba;" horiz-adv-x="493" d="M246 171q-89 0 -142 51t-53 134q0 99 71.5 170t167.5 71q86 0 137 -52t51 -135q0 -102 -68 -170.5t-164 -68.5zM397 410q0 51 -29.5 81.5t-77.5 30.5q-63 0 -110 -48.5t-47 -116.5q0 -51 30.5 -81.5t81.5 -30.5q61 0 106.5 48t45.5 117z" />
<glyph unicode="&#xbb;" horiz-adv-x="486" d="M443 227l-234 -173l20 113l151 111l-112 111l17 99l173 -173zM239 227l-234 -173l19 113l151 111l-111 111l17 99l173 -173z" />
<glyph unicode="&#xbc;" horiz-adv-x="963" d="M80 574l10 60h17q45 0 79.5 22t50.5 64h64l-95 -540h-82l70 394h-114zM618 720h91l-418 -720h-92zM828 421l-193 -215h155zM933 206l-13 -73h-63l-23 -133h-81l24 133h-239l14 82l291 325h86l-59 -334h63z" />
<glyph unicode="&#xbd;" horiz-adv-x="1021" d="M80 574l10 60h17q45 0 79.5 22t50.5 64h64l-95 -540h-82l70 394h-114zM618 720h91l-418 -720h-92zM955 76l-13 -76h-351l4 29q9 68 38.5 106.5t94.5 80.5l93 60q56 36 77.5 62t21.5 59t-20 53.5t-53 20.5q-68 0 -118 -89l-65 41q28 55 76.5 90.5t107.5 35.5 q70 0 112 -42.5t42 -108.5q0 -56 -28.5 -96t-98.5 -83l-112 -70q-56 -35 -64 -73h256z" />
<glyph unicode="&#xbe;" horiz-adv-x="1083" d="M200 248q46 0 74 28t28 69q0 43 -25.5 62.5t-79.5 19.5h-33l13 72h19q133 0 133 86q0 29 -18 48t-49 19q-58 0 -100 -63l-58 48q62 92 158 92q65 0 105.5 -40t40.5 -100q0 -88 -87 -128q64 -35 64 -120q0 -77 -53 -123.5t-131 -46.5q-61 0 -104.5 28t-66.5 76l66 43 q37 -70 104 -70zM738 720h91l-418 -720h-92zM948 421l-193 -215h155zM1053 206l-13 -73h-63l-23 -133h-81l24 133h-239l14 82l291 325h86l-59 -334h63z" />
<glyph unicode="&#xbf;" horiz-adv-x="471" d="M272 536h52q3 -27 3 -31q-2 -93 -75 -156l-64 -55q-38 -33 -54.5 -60t-16.5 -62q0 -40 26 -67t69 -27q82 0 139 105l72 -48q-32 -66 -86.5 -106.5t-124.5 -40.5q-84 0 -137.5 52.5t-53.5 130.5q0 57 22.5 96t72.5 80l57 47q46 38 67.5 69.5t31.5 72.5zM381 670 q0 -28 -17 -45.5t-45 -17.5q-29 0 -46 17.5t-17 45.5t17.5 45t45.5 17t45 -17t17 -45z" />
<glyph unicode="&#xc0;" horiz-adv-x="694" d="M535 0l-37 177h-321l-101 -177h-112l418 720h99l155 -720h-101zM412 582l-185 -315h253zM450 878l33 -115h-67l-83 115h117z" />
<glyph unicode="&#xc1;" horiz-adv-x="694" d="M535 0l-37 177h-321l-101 -177h-112l418 720h99l155 -720h-101zM412 582l-185 -315h253zM396 763l67 115h125l-117 -115h-75z" />
<glyph unicode="&#xc2;" horiz-adv-x="694" d="M535 0l-37 177h-321l-101 -177h-112l418 720h99l155 -720h-101zM412 582l-185 -315h253zM266 762l140 116h99l97 -116h-82l-68 53l-92 -53h-94z" />
<glyph unicode="&#xc3;" horiz-adv-x="694" d="M535 0l-37 177h-321l-101 -177h-112l418 720h99l155 -720h-101zM412 582l-185 -315h253zM440 784q-39 19 -56 19q-30 0 -33 -40l-58 7q1 51 26.5 79.5t65.5 28.5q29 0 75 -23q39 -20 56 -20q28 0 33 41l58 -7q-1 -51 -26.5 -80t-65.5 -29q-27 0 -75 24z" />
<glyph unicode="&#xc4;" horiz-adv-x="694" d="M535 0l-37 177h-321l-101 -177h-112l418 720h99l155 -720h-101zM412 582l-185 -315h253zM316 832q0 24 14.5 38.5t37.5 14.5q24 0 38.5 -14.5t14.5 -38.5q0 -23 -14.5 -37.5t-38.5 -14.5q-23 0 -37.5 14.5t-14.5 37.5zM481 832q0 24 14.5 38.5t37.5 14.5q24 0 38.5 -14.5 t14.5 -38.5q0 -23 -14.5 -37.5t-38.5 -14.5q-23 0 -37.5 14.5t-14.5 37.5z" />
<glyph unicode="&#xc5;" horiz-adv-x="694" d="M323 764q0 48 34 81t81 33t81 -33t34 -81q0 -67 -60 -100l143 -664h-101l-37 177h-321l-101 -177h-112l395 680q-36 34 -36 84zM412 582l-185 -315h253zM384 764q0 -23 15.5 -39t38.5 -16t38.5 16t15.5 39t-16 39t-38 16q-23 0 -38.5 -16t-15.5 -39z" />
<glyph unicode="&#xc6;" horiz-adv-x="979" d="M467 0l31 177h-271l-139 -177h-124l584 720h454l-16 -91h-310l-36 -208h301l-16 -91h-301l-42 -239h319l-16 -91h-418zM574 610l-274 -343h214z" />
<glyph unicode="&#xc7;" horiz-adv-x="762" d="M318 -181q-57 0 -100 23l14 41q34 -16 73 -16q22 0 33 8t11 20q0 23 -31 23q-17 0 -39 -10l-21 27l53 60q-120 20 -189.5 103.5t-69.5 208.5q0 176 123.5 300.5t295.5 124.5q112 0 185 -54.5t103 -139.5l-89 -39q-59 138 -200 138q-132 0 -223 -95.5t-91 -233.5 q0 -103 61 -164t166 -61q162 0 255 161l84 -47q-50 -99 -137.5 -153.5t-201.5 -54.5q-5 0 -15 0.5t-14 0.5l-28 -32q9 3 25 3q33 0 53.5 -18.5t20.5 -46.5q0 -35 -27 -56t-80 -21z" />
<glyph unicode="&#xc8;" horiz-adv-x="538" d="M26 0l126 720h409l-16 -91h-310l-36 -208h301l-16 -91h-301l-42 -239h319l-16 -91h-418zM375 878l33 -115h-67l-83 115h117z" />
<glyph unicode="&#xc9;" horiz-adv-x="538" d="M26 0l126 720h409l-16 -91h-310l-36 -208h301l-16 -91h-301l-42 -239h319l-16 -91h-418zM314 763l67 115h125l-117 -115h-75z" />
<glyph unicode="&#xca;" horiz-adv-x="538" d="M26 0l126 720h409l-16 -91h-310l-36 -208h301l-16 -91h-301l-42 -239h319l-16 -91h-418zM195 762l140 116h99l97 -116h-82l-68 53l-92 -53h-94z" />
<glyph unicode="&#xcb;" horiz-adv-x="538" d="M26 0l126 720h409l-16 -91h-310l-36 -208h301l-16 -91h-301l-42 -239h319l-16 -91h-418zM239 832q0 24 14.5 38.5t37.5 14.5q24 0 38.5 -14.5t14.5 -38.5q0 -23 -14.5 -37.5t-38.5 -14.5q-23 0 -37.5 14.5t-14.5 37.5zM404 832q0 24 14.5 38.5t37.5 14.5q24 0 38.5 -14.5 t14.5 -38.5q0 -23 -14.5 -37.5t-38.5 -14.5q-23 0 -37.5 14.5t-14.5 37.5z" />
<glyph unicode="&#xcc;" horiz-adv-x="245" d="M251 720l-126 -720h-99l126 720h99zM222 878l33 -115h-67l-83 115h117z" />
<glyph unicode="&#xcd;" horiz-adv-x="245" d="M251 720l-126 -720h-99l126 720h99zM162 763l67 115h125l-117 -115h-75z" />
<glyph unicode="&#xce;" horiz-adv-x="245" d="M251 720l-126 -720h-99l126 720h99zM37 762l140 116h99l97 -116h-82l-68 53l-92 -53h-94z" />
<glyph unicode="&#xcf;" horiz-adv-x="245" d="M251 720l-126 -720h-99l126 720h99zM78 832q0 24 14.5 38.5t37.5 14.5q24 0 38.5 -14.5t14.5 -38.5q0 -23 -14.5 -37.5t-38.5 -14.5q-23 0 -37.5 14.5t-14.5 37.5zM243 832q0 24 14.5 38.5t37.5 14.5q24 0 38.5 -14.5t14.5 -38.5q0 -23 -14.5 -37.5t-38.5 -14.5 q-23 0 -37.5 14.5t-14.5 37.5z" />
<glyph unicode="&#xd0;" horiz-adv-x="719" d="M24 328l12 65h93l57 327h197q144 0 230.5 -86t86.5 -239q0 -174 -119.5 -284.5t-317.5 -110.5h-203l57 328h-93zM269 629l-41 -236h219l-12 -65h-219l-41 -237h84q160 0 249 85.5t89 218.5q0 113 -58 173.5t-164 60.5h-106z" />
<glyph unicode="&#xd1;" horiz-adv-x="717" d="M499 0l-283 557l-96 -557h-94l126 720h93l286 -562l98 562h94l-126 -720h-98zM448 784q-39 19 -56 19q-30 0 -33 -40l-58 7q1 51 26.5 79.5t65.5 28.5q29 0 75 -23q39 -20 56 -20q28 0 33 41l58 -7q-1 -51 -26.5 -80t-65.5 -29q-27 0 -75 24z" />
<glyph unicode="&#xd2;" horiz-adv-x="812" d="M383 -11q-151 0 -241 88t-90 231q0 114 59.5 212.5t156 155t204.5 56.5q143 0 231 -90.5t88 -231.5q0 -178 -120.5 -299.5t-287.5 -121.5zM687 410q0 103 -59.5 165t-155.5 62q-127 0 -221.5 -96.5t-94.5 -232.5q0 -103 61.5 -164t165.5 -61q121 0 212.5 95t91.5 232z M490 878l33 -115h-67l-83 115h117z" />
<glyph unicode="&#xd3;" horiz-adv-x="812" d="M383 -11q-151 0 -241 88t-90 231q0 114 59.5 212.5t156 155t204.5 56.5q143 0 231 -90.5t88 -231.5q0 -178 -120.5 -299.5t-287.5 -121.5zM687 410q0 103 -59.5 165t-155.5 62q-127 0 -221.5 -96.5t-94.5 -232.5q0 -103 61.5 -164t165.5 -61q121 0 212.5 95t91.5 232z M436 763l67 115h125l-117 -115h-75z" />
<glyph unicode="&#xd4;" horiz-adv-x="812" d="M383 -11q-151 0 -241 88t-90 231q0 114 59.5 212.5t156 155t204.5 56.5q143 0 231 -90.5t88 -231.5q0 -178 -120.5 -299.5t-287.5 -121.5zM687 410q0 103 -59.5 165t-155.5 62q-127 0 -221.5 -96.5t-94.5 -232.5q0 -103 61.5 -164t165.5 -61q121 0 212.5 95t91.5 232z M319 762l140 116h99l97 -116h-82l-68 53l-92 -53h-94z" />
<glyph unicode="&#xd5;" horiz-adv-x="812" d="M383 -11q-151 0 -241 88t-90 231q0 114 59.5 212.5t156 155t204.5 56.5q143 0 231 -90.5t88 -231.5q0 -178 -120.5 -299.5t-287.5 -121.5zM687 410q0 103 -59.5 165t-155.5 62q-127 0 -221.5 -96.5t-94.5 -232.5q0 -103 61.5 -164t165.5 -61q121 0 212.5 95t91.5 232z M481 784q-39 19 -56 19q-30 0 -33 -40l-58 7q1 51 26.5 79.5t65.5 28.5q29 0 75 -23q39 -20 56 -20q28 0 33 41l58 -7q-1 -51 -26.5 -80t-65.5 -29q-27 0 -75 24z" />
<glyph unicode="&#xd6;" horiz-adv-x="812" d="M383 -11q-151 0 -241 88t-90 231q0 114 59.5 212.5t156 155t204.5 56.5q143 0 231 -90.5t88 -231.5q0 -178 -120.5 -299.5t-287.5 -121.5zM687 410q0 103 -59.5 165t-155.5 62q-127 0 -221.5 -96.5t-94.5 -232.5q0 -103 61.5 -164t165.5 -61q121 0 212.5 95t91.5 232z M356 832q0 24 14.5 38.5t37.5 14.5q24 0 38.5 -14.5t14.5 -38.5q0 -23 -14.5 -37.5t-38.5 -14.5q-23 0 -37.5 14.5t-14.5 37.5zM521 832q0 24 14.5 38.5t37.5 14.5q24 0 38.5 -14.5t14.5 -38.5q0 -23 -14.5 -37.5t-38.5 -14.5q-23 0 -37.5 14.5t-14.5 37.5z" />
<glyph unicode="&#xd7;" d="M298 418l130 130l58 -58l-130 -130l130 -130l-58 -58l-130 130l-130 -130l-58 58l130 130l-130 130l58 58z" />
<glyph unicode="&#xd8;" horiz-adv-x="806" d="M380 -10q-152 0 -242 88l-132 -112l-42 49l133 114q-48 76 -48 179q0 114 59.5 212.5t156 155t204.5 56.5q142 0 231 -91q44 38 132 112l42 -49l-134 -114q48 -77 48 -180q0 -178 -120.5 -299t-287.5 -121zM684 410q0 64 -24 113l-445 -380q60 -60 165 -60 q121 0 212.5 95t91.5 232zM153 308q0 -64 24 -112l446 380q-59 61 -154 61q-127 0 -221.5 -96.5t-94.5 -232.5z" />
<glyph unicode="&#xd9;" horiz-adv-x="678" d="M597 720h93l-86 -487q-20 -115 -95.5 -180t-190.5 -65q-116 0 -184.5 63t-68.5 166q0 40 12 112l69 391h99l-73 -421q-10 -60 -10 -77q0 -60 43.5 -99.5t115.5 -39.5q77 0 129.5 48.5t66.5 131.5zM428 878l33 -115h-67l-83 115h117z" />
<glyph unicode="&#xda;" horiz-adv-x="678" d="M597 720h93l-86 -487q-20 -115 -95.5 -180t-190.5 -65q-116 0 -184.5 63t-68.5 166q0 40 12 112l69 391h99l-73 -421q-10 -60 -10 -77q0 -60 43.5 -99.5t115.5 -39.5q77 0 129.5 48.5t66.5 131.5zM374 763l67 115h125l-117 -115h-75z" />
<glyph unicode="&#xdb;" horiz-adv-x="678" d="M597 720h93l-86 -487q-20 -115 -95.5 -180t-190.5 -65q-116 0 -184.5 63t-68.5 166q0 40 12 112l69 391h99l-73 -421q-10 -60 -10 -77q0 -60 43.5 -99.5t115.5 -39.5q77 0 129.5 48.5t66.5 131.5zM250 762l140 116h99l97 -116h-82l-68 53l-92 -53h-94z" />
<glyph unicode="&#xdc;" horiz-adv-x="678" d="M597 720h93l-86 -487q-20 -115 -95.5 -180t-190.5 -65q-116 0 -184.5 63t-68.5 166q0 40 12 112l69 391h99l-73 -421q-10 -60 -10 -77q0 -60 43.5 -99.5t115.5 -39.5q77 0 129.5 48.5t66.5 131.5zM294 832q0 24 14.5 38.5t37.5 14.5q24 0 38.5 -14.5t14.5 -38.5 q0 -23 -14.5 -37.5t-38.5 -14.5q-23 0 -37.5 14.5t-14.5 37.5zM459 832q0 24 14.5 38.5t37.5 14.5q24 0 38.5 -14.5t14.5 -38.5q0 -23 -14.5 -37.5t-38.5 -14.5q-23 0 -37.5 14.5t-14.5 37.5z" />
<glyph unicode="&#xdd;" horiz-adv-x="621" d="M326 402l248 318h118l-329 -418l-53 -302h-99l53 302l-177 418h104zM337 763l67 115h125l-117 -115h-75z" />
<glyph unicode="&#xde;" horiz-adv-x="618" d="M331 163h-178l-28 -163h-99l126 720h99l-23 -131h154q98 0 158 -54.5t60 -145.5q0 -101 -72 -163.5t-197 -62.5zM378 498h-166l-43 -244h162q76 0 120.5 36t44.5 96q0 51 -32.5 81.5t-85.5 30.5z" />
<glyph unicode="&#xdf;" horiz-adv-x="553" d="M22 0l93 530q16 92 77 147t148 55q84 0 136 -51.5t52 -132.5q0 -61 -32.5 -102.5t-90.5 -60.5q50 -17 79.5 -59t29.5 -105q0 -106 -70 -169.5t-185 -63.5q-44 0 -74 9l11 85q22 -6 62 -6q70 0 115 40.5t45 104.5q0 63 -39.5 92t-119.5 29h-15l14 84q174 0 174 119 q0 46 -25.5 72.5t-69.5 26.5q-52 0 -86 -35t-45 -98l-90 -511h-94z" />
<glyph unicode="&#xe0;" horiz-adv-x="530" d="M365 246l4 21q-25 -16 -68 -26q-13 -3 -35.5 -8t-34 -7.5t-29.5 -7t-28 -8.5t-23 -9.5t-19.5 -12t-13.5 -15t-9.5 -19t-2.5 -22.5q0 -29 21 -46.5t58 -17.5q61 0 112 45.5t68 132.5zM298 553q85 0 134 -43.5t49 -115.5q0 -29 -9 -79l-37 -206q-2 -14 -2 -17q0 -21 22 -21 q6 0 16 2l-4 -81q-14 -4 -31 -4q-41 0 -67 24t-26 65v11q-68 -100 -176 -100q-68 0 -111.5 37.5t-43.5 102.5q0 61 44 104t126 57l134 22q75 12 75 76q0 36 -24.5 58t-68.5 22q-50 0 -85.5 -25t-49.5 -70l-88 20q17 68 77.5 114.5t145.5 46.5zM303 720l41 -136h-66l-81 136 h106z" />
<glyph unicode="&#xe1;" horiz-adv-x="530" d="M365 246l4 21q-25 -16 -68 -26q-13 -3 -35.5 -8t-34 -7.5t-29.5 -7t-28 -8.5t-23 -9.5t-19.5 -12t-13.5 -15t-9.5 -19t-2.5 -22.5q0 -29 21 -46.5t58 -17.5q61 0 112 45.5t68 132.5zM298 553q85 0 134 -43.5t49 -115.5q0 -29 -9 -79l-37 -206q-2 -14 -2 -17q0 -21 22 -21 q6 0 16 2l-4 -81q-14 -4 -31 -4q-41 0 -67 24t-26 65v11q-68 -100 -176 -100q-68 0 -111.5 37.5t-43.5 102.5q0 61 44 104t126 57l134 22q75 12 75 76q0 36 -24.5 58t-68.5 22q-50 0 -85.5 -25t-49.5 -70l-88 20q17 68 77.5 114.5t145.5 46.5zM261 584l79 136h116l-119 -136 h-76z" />
<glyph unicode="&#xe2;" horiz-adv-x="530" d="M365 246l4 21q-25 -16 -68 -26q-13 -3 -35.5 -8t-34 -7.5t-29.5 -7t-28 -8.5t-23 -9.5t-19.5 -12t-13.5 -15t-9.5 -19t-2.5 -22.5q0 -29 21 -46.5t58 -17.5q61 0 112 45.5t68 132.5zM298 553q85 0 134 -43.5t49 -115.5q0 -29 -9 -79l-37 -206q-2 -14 -2 -17q0 -21 22 -21 q6 0 16 2l-4 -81q-14 -4 -31 -4q-41 0 -67 24t-26 65v11q-68 -100 -176 -100q-68 0 -111.5 37.5t-43.5 102.5q0 61 44 104t126 57l134 22q75 12 75 76q0 36 -24.5 58t-68.5 22q-50 0 -85.5 -25t-49.5 -70l-88 20q17 68 77.5 114.5t145.5 46.5zM143 584l132 136h99l85 -136 h-74l-64 71l-90 -71h-88z" />
<glyph unicode="&#xe3;" horiz-adv-x="530" d="M365 246l4 21q-25 -16 -68 -26q-13 -3 -35.5 -8t-34 -7.5t-29.5 -7t-28 -8.5t-23 -9.5t-19.5 -12t-13.5 -15t-9.5 -19t-2.5 -22.5q0 -29 21 -46.5t58 -17.5q61 0 112 45.5t68 132.5zM298 553q85 0 134 -43.5t49 -115.5q0 -29 -9 -79l-37 -206q-2 -14 -2 -17q0 -21 22 -21 q6 0 16 2l-4 -81q-14 -4 -31 -4q-41 0 -67 24t-26 65v11q-68 -100 -176 -100q-68 0 -111.5 37.5t-43.5 102.5q0 61 44 104t126 57l134 22q75 12 75 76q0 36 -24.5 58t-68.5 22q-50 0 -85.5 -25t-49.5 -70l-88 20q17 68 77.5 114.5t145.5 46.5zM308 624q-39 19 -56 19 q-30 0 -33 -40l-58 7q1 51 26.5 79.5t65.5 28.5q29 0 75 -23q39 -20 56 -20q28 0 33 41l58 -7q-1 -51 -26.5 -80t-65.5 -29q-27 0 -75 24z" />
<glyph unicode="&#xe4;" horiz-adv-x="530" d="M365 246l4 21q-25 -16 -68 -26q-13 -3 -35.5 -8t-34 -7.5t-29.5 -7t-28 -8.5t-23 -9.5t-19.5 -12t-13.5 -15t-9.5 -19t-2.5 -22.5q0 -29 21 -46.5t58 -17.5q61 0 112 45.5t68 132.5zM298 553q85 0 134 -43.5t49 -115.5q0 -29 -9 -79l-37 -206q-2 -14 -2 -17q0 -21 22 -21 q6 0 16 2l-4 -81q-14 -4 -31 -4q-41 0 -67 24t-26 65v11q-68 -100 -176 -100q-68 0 -111.5 37.5t-43.5 102.5q0 61 44 104t126 57l134 22q75 12 75 76q0 36 -24.5 58t-68.5 22q-50 0 -85.5 -25t-49.5 -70l-88 20q17 68 77.5 114.5t145.5 46.5zM183 676q0 23 14.5 37.5 t37.5 14.5q24 0 38.5 -14.5t14.5 -37.5q0 -24 -14.5 -38.5t-38.5 -14.5q-23 0 -37.5 14.5t-14.5 38.5zM348 676q0 23 14.5 37.5t37.5 14.5q24 0 38.5 -14.5t14.5 -37.5q0 -24 -14.5 -38.5t-38.5 -14.5q-23 0 -37.5 14.5t-14.5 38.5z" />
<glyph unicode="&#xe5;" horiz-adv-x="530" d="M365 246l4 21q-25 -16 -68 -26q-13 -3 -35.5 -8t-34 -7.5t-29.5 -7t-28 -8.5t-23 -9.5t-19.5 -12t-13.5 -15t-9.5 -19t-2.5 -22.5q0 -29 21 -46.5t58 -17.5q61 0 112 45.5t68 132.5zM298 553q85 0 134 -43.5t49 -115.5q0 -29 -9 -79l-37 -206q-2 -14 -2 -17q0 -21 22 -21 q6 0 16 2l-4 -81q-14 -4 -31 -4q-41 0 -67 24t-26 65v11q-68 -100 -176 -100q-68 0 -111.5 37.5t-43.5 102.5q0 61 44 104t126 57l134 22q75 12 75 76q0 36 -24.5 58t-68.5 22q-50 0 -85.5 -25t-49.5 -70l-88 20q17 68 77.5 114.5t145.5 46.5zM203 693q0 48 34 81t81 33 t81 -33t34 -81t-34 -81t-81 -33t-81 33t-34 81zM264 693q0 -23 15.5 -39t38.5 -16t38.5 16t15.5 39t-16 39t-38 16q-23 0 -38.5 -16t-15.5 -39z" />
<glyph unicode="&#xe6;" horiz-adv-x="927" d="M298 553q120 0 163 -85q90 85 205 85q106 0 167.5 -66.5t61.5 -166.5q0 -43 -9 -76h-428q0 -83 39.5 -126t115.5 -43q56 0 95 26.5t59 67.5l91 -28q-30 -70 -93.5 -111.5t-151.5 -41.5q-168 0 -228 131q-77 -131 -212 -131q-73 0 -117 37t-44 103q0 62 44 105t126 56 l135 22q37 6 55.5 22t18.5 54q0 37 -24 58.5t-69 21.5q-104 0 -135 -97l-89 21q17 68 77.5 115t146.5 47zM471 319h331q0 66 -37.5 106.5t-99.5 40.5q-68 0 -120.5 -41.5t-73.5 -105.5zM367 246q2 14 4 21q-23 -16 -70 -26q-13 -3 -35.5 -8t-34 -7.5t-29.5 -7t-28 -8.5 t-23 -9.5t-19.5 -12t-13.5 -15t-9.5 -19t-2.5 -22.5q0 -29 21 -46.5t58 -17.5q61 0 112.5 45.5t69.5 132.5z" />
<glyph unicode="&#xe7;" horiz-adv-x="584" d="M228 -181q-57 0 -100 23l14 41q34 -16 73 -16q22 0 33 8t11 20q0 23 -31 23q-17 0 -39 -10l-21 27l54 60q-88 19 -137 82.5t-49 155.5q0 135 93.5 227.5t221.5 92.5q90 0 145.5 -41t77.5 -104l-86 -39q-40 96 -137 96q-88 0 -153.5 -66.5t-65.5 -165.5q0 -71 43.5 -114 t116.5 -43q111 0 176 115l80 -48q-39 -75 -105 -115t-151 -40q-20 0 -29 1l-27 -31q9 3 25 3q33 0 53.5 -18.5t20.5 -46.5q0 -35 -27 -56t-80 -21z" />
<glyph unicode="&#xe8;" horiz-adv-x="600" d="M144 319h331q0 69 -36.5 108t-101.5 39q-68 0 -120.5 -41.5t-72.5 -105.5zM560 244h-429v-12q0 -75 41.5 -116t114.5 -41q55 0 94 26.5t59 67.5l91 -27q-30 -69 -93 -111.5t-152 -42.5q-116 0 -183 65.5t-67 182.5q0 135 90.5 226t210.5 91q107 0 168.5 -66t61.5 -165 q0 -43 -7 -78zM361 720l41 -136h-66l-81 136h106z" />
<glyph unicode="&#xe9;" horiz-adv-x="600" d="M144 319h331q0 69 -36.5 108t-101.5 39q-68 0 -120.5 -41.5t-72.5 -105.5zM560 244h-429v-12q0 -75 41.5 -116t114.5 -41q55 0 94 26.5t59 67.5l91 -27q-30 -69 -93 -111.5t-152 -42.5q-116 0 -183 65.5t-67 182.5q0 135 90.5 226t210.5 91q107 0 168.5 -66t61.5 -165 q0 -43 -7 -78zM306 584l79 136h116l-119 -136h-76z" />
<glyph unicode="&#xea;" horiz-adv-x="600" d="M144 319h331q0 69 -36.5 108t-101.5 39q-68 0 -120.5 -41.5t-72.5 -105.5zM560 244h-429v-12q0 -75 41.5 -116t114.5 -41q55 0 94 26.5t59 67.5l91 -27q-30 -69 -93 -111.5t-152 -42.5q-116 0 -183 65.5t-67 182.5q0 135 90.5 226t210.5 91q107 0 168.5 -66t61.5 -165 q0 -43 -7 -78zM195 584l132 136h99l85 -136h-74l-64 71l-90 -71h-88z" />
<glyph unicode="&#xeb;" horiz-adv-x="600" d="M144 319h331q0 69 -36.5 108t-101.5 39q-68 0 -120.5 -41.5t-72.5 -105.5zM560 244h-429v-12q0 -75 41.5 -116t114.5 -41q55 0 94 26.5t59 67.5l91 -27q-30 -69 -93 -111.5t-152 -42.5q-116 0 -183 65.5t-67 182.5q0 135 90.5 226t210.5 91q107 0 168.5 -66t61.5 -165 q0 -43 -7 -78zM230 676q0 23 14.5 37.5t37.5 14.5q24 0 38.5 -14.5t14.5 -37.5q0 -24 -14.5 -38.5t-38.5 -14.5q-23 0 -37.5 14.5t-14.5 38.5zM395 676q0 23 14.5 37.5t37.5 14.5q24 0 38.5 -14.5t14.5 -37.5q0 -24 -14.5 -38.5t-38.5 -14.5q-23 0 -37.5 14.5t-14.5 38.5z " />
<glyph unicode="&#xec;" horiz-adv-x="232" d="M166 720l41 -136h-66l-81 136h106zM211 541l-95 -541h-94l95 541h94z" />
<glyph unicode="&#xed;" horiz-adv-x="232" d="M113 584l79 136h116l-119 -136h-76zM211 541l-95 -541h-94l95 541h94z" />
<glyph unicode="&#xee;" horiz-adv-x="232" d="M211 541l-95 -541h-94l95 541h94zM2 584l132 136h99l85 -136h-74l-64 71l-90 -71h-88z" />
<glyph unicode="&#xef;" horiz-adv-x="232" d="M39 676q0 23 14.5 37.5t37.5 14.5q24 0 38.5 -14.5t14.5 -37.5q0 -24 -14.5 -38.5t-38.5 -14.5q-23 0 -37.5 14.5t-14.5 38.5zM204 676q0 23 14.5 37.5t37.5 14.5q24 0 38.5 -14.5t14.5 -37.5q0 -24 -14.5 -38.5t-38.5 -14.5q-23 0 -37.5 14.5t-14.5 38.5zM211 541 l-95 -541h-94l95 541h94z" />
<glyph unicode="&#xf0;" horiz-adv-x="617" d="M340 426q-87 0 -147.5 -61t-60.5 -146q0 -65 40 -104t108 -39q80 0 141.5 60t61.5 145q0 65 -39.5 105t-103.5 40zM606 621l-127 -21l55 -129q26 -61 36 -102t10 -92q0 -115 -87 -202t-213 -87q-110 0 -178 64t-68 167q0 126 91.5 209t213.5 83q47 0 84 -13l-38 86 l-167 -27l-10 64l150 24l-33 75h103l25 -59l142 23z" />
<glyph unicode="&#xf1;" horiz-adv-x="565" d="M359 553q73 0 115.5 -46t42.5 -111q0 -44 -10 -100l-52 -296h-94l52 296q9 54 9 80q0 41 -24.5 65t-69.5 24q-130 0 -162 -182l-50 -283h-94l95 541h94l-14 -78q68 90 162 90zM342 624q-39 19 -56 19q-30 0 -33 -40l-58 7q1 51 26.5 79.5t65.5 28.5q29 0 75 -23 q39 -20 56 -20q28 0 33 41l58 -7q-1 -51 -26.5 -80t-65.5 -29q-27 0 -75 24z" />
<glyph unicode="&#xf2;" horiz-adv-x="638" d="M292 -12q-118 0 -187 67.5t-69 177.5q0 132 94 226t224 94q115 0 181.5 -68.5t66.5 -178.5q0 -135 -89.5 -226.5t-220.5 -91.5zM506 306q0 73 -41.5 116t-110.5 43q-89 0 -155 -67.5t-66 -164.5q0 -71 43 -114t116 -43q86 0 150 66.5t64 163.5zM370 720l41 -136h-66 l-81 136h106z" />
<glyph unicode="&#xf3;" horiz-adv-x="638" d="M292 -12q-118 0 -187 67.5t-69 177.5q0 132 94 226t224 94q115 0 181.5 -68.5t66.5 -178.5q0 -135 -89.5 -226.5t-220.5 -91.5zM506 306q0 73 -41.5 116t-110.5 43q-89 0 -155 -67.5t-66 -164.5q0 -71 43 -114t116 -43q86 0 150 66.5t64 163.5zM320 584l79 136h116 l-119 -136h-76z" />
<glyph unicode="&#xf4;" horiz-adv-x="638" d="M292 -12q-118 0 -187 67.5t-69 177.5q0 132 94 226t224 94q115 0 181.5 -68.5t66.5 -178.5q0 -135 -89.5 -226.5t-220.5 -91.5zM506 306q0 73 -41.5 116t-110.5 43q-89 0 -155 -67.5t-66 -164.5q0 -71 43 -114t116 -43q86 0 150 66.5t64 163.5zM204 584l132 136h99 l85 -136h-74l-64 71l-90 -71h-88z" />
<glyph unicode="&#xf5;" horiz-adv-x="638" d="M292 -12q-118 0 -187 67.5t-69 177.5q0 132 94 226t224 94q115 0 181.5 -68.5t66.5 -178.5q0 -135 -89.5 -226.5t-220.5 -91.5zM506 306q0 73 -41.5 116t-110.5 43q-89 0 -155 -67.5t-66 -164.5q0 -71 43 -114t116 -43q86 0 150 66.5t64 163.5zM369 624q-39 19 -56 19 q-30 0 -33 -40l-58 7q1 51 26.5 79.5t65.5 28.5q29 0 75 -23q39 -20 56 -20q28 0 33 41l58 -7q-1 -51 -26.5 -80t-65.5 -29q-27 0 -75 24z" />
<glyph unicode="&#xf6;" horiz-adv-x="638" d="M292 -12q-118 0 -187 67.5t-69 177.5q0 132 94 226t224 94q115 0 181.5 -68.5t66.5 -178.5q0 -135 -89.5 -226.5t-220.5 -91.5zM506 306q0 73 -41.5 116t-110.5 43q-89 0 -155 -67.5t-66 -164.5q0 -71 43 -114t116 -43q86 0 150 66.5t64 163.5zM244 676q0 23 14.5 37.5 t37.5 14.5q24 0 38.5 -14.5t14.5 -37.5q0 -24 -14.5 -38.5t-38.5 -14.5q-23 0 -37.5 14.5t-14.5 38.5zM409 676q0 23 14.5 37.5t37.5 14.5q24 0 38.5 -14.5t14.5 -37.5q0 -24 -14.5 -38.5t-38.5 -14.5q-23 0 -37.5 14.5t-14.5 38.5z" />
<glyph unicode="&#xf7;" d="M73 401h450v-82h-450v82zM247 535q0 22 14.5 36t36.5 14t36 -14t14 -36t-14 -36.5t-36 -14.5t-36.5 14t-14.5 37zM247 184q0 22 14.5 36t36.5 14t36 -14t14 -36t-14 -36.5t-36 -14.5t-36.5 14.5t-14.5 36.5z" />
<glyph unicode="&#xf8;" horiz-adv-x="664" d="M304 -11q-113 0 -182 61l-101 -86l-43 49l104 88q-34 57 -34 132q0 132 95 226t223 94q106 0 174 -63l104 90l43 -49l-107 -91q34 -56 34 -134q0 -134 -90.5 -225.5t-219.5 -91.5zM517 306q0 40 -13 70l-309 -264q41 -36 109 -36q85 0 149 66.5t64 163.5zM145 233 q0 -39 13 -68l309 264q-41 36 -101 36q-88 0 -154.5 -68t-66.5 -164z" />
<glyph unicode="&#xf9;" horiz-adv-x="565" d="M210 -12q-75 0 -118 46.5t-43 116.5q0 33 10 93l52 297h94l-52 -296q-10 -54 -10 -82q0 -41 24.5 -64.5t70.5 -23.5q62 0 104 46.5t58 135.5l50 284h94l-95 -541h-94l13 78q-67 -90 -158 -90zM334 720l41 -136h-66l-81 136h106z" />
<glyph unicode="&#xfa;" horiz-adv-x="565" d="M210 -12q-75 0 -118 46.5t-43 116.5q0 33 10 93l52 297h94l-52 -296q-10 -54 -10 -82q0 -41 24.5 -64.5t70.5 -23.5q62 0 104 46.5t58 135.5l50 284h94l-95 -541h-94l13 78q-67 -90 -158 -90zM279 584l79 136h116l-119 -136h-76z" />
<glyph unicode="&#xfb;" horiz-adv-x="565" d="M210 -12q-75 0 -118 46.5t-43 116.5q0 33 10 93l52 297h94l-52 -296q-10 -54 -10 -82q0 -41 24.5 -64.5t70.5 -23.5q62 0 104 46.5t58 135.5l50 284h94l-95 -541h-94l13 78q-67 -90 -158 -90zM167 584l132 136h99l85 -136h-74l-64 71l-90 -71h-88z" />
<glyph unicode="&#xfc;" horiz-adv-x="565" d="M210 -12q-75 0 -118 46.5t-43 116.5q0 33 10 93l52 297h94l-52 -296q-10 -54 -10 -82q0 -41 24.5 -64.5t70.5 -23.5q62 0 104 46.5t58 135.5l50 284h94l-95 -541h-94l13 78q-67 -90 -158 -90zM207 676q0 23 14.5 37.5t37.5 14.5q24 0 38.5 -14.5t14.5 -37.5 q0 -24 -14.5 -38.5t-38.5 -14.5q-23 0 -37.5 14.5t-14.5 38.5zM372 676q0 23 14.5 37.5t37.5 14.5q24 0 38.5 -14.5t14.5 -37.5q0 -24 -14.5 -38.5t-38.5 -14.5q-23 0 -37.5 14.5t-14.5 38.5z" />
<glyph unicode="&#xfd;" horiz-adv-x="550" d="M481 541h110l-427 -710h-111l129 205l-127 505h101l94 -396zM270 584l79 136h116l-119 -136h-76z" />
<glyph unicode="&#xfe;" horiz-adv-x="643" d="M508 302q0 74 -39.5 119t-105.5 45q-82 0 -144.5 -67.5t-62.5 -167.5q0 -71 41 -114t110 -43q82 0 141.5 65.5t59.5 162.5zM383 553q97 0 160 -70t63 -184q0 -129 -83 -220t-201 -91q-128 0 -189 106l-48 -263h-93l155 889h94l-46 -265q80 98 188 98z" />
<glyph unicode="&#xff;" horiz-adv-x="550" d="M481 541h110l-427 -710h-111l129 205l-127 505h101l94 -396zM198 676q0 23 14.5 37.5t37.5 14.5q24 0 38.5 -14.5t14.5 -37.5q0 -24 -14.5 -38.5t-38.5 -14.5q-23 0 -37.5 14.5t-14.5 38.5zM363 676q0 23 14.5 37.5t37.5 14.5q24 0 38.5 -14.5t14.5 -37.5 q0 -24 -14.5 -38.5t-38.5 -14.5q-23 0 -37.5 14.5t-14.5 38.5z" />
<glyph unicode="&#x13f;" horiz-adv-x="500" d="M26 0l126 720h99l-110 -629h299l-16 -91h-398zM332 380q0 26 16 41.5t41 15.5t41 -15.5t16 -41.5t-16 -41.5t-41 -15.5t-41 15.5t-16 41.5z" />
<glyph unicode="&#x140;" horiz-adv-x="346" d="M242 720l-126 -720h-94l126 720h94zM232 271q0 25 16 41t41 16t41 -16t16 -41t-16 -41t-41 -16t-41 16t-16 41z" />
<glyph unicode="&#x152;" horiz-adv-x="1132" d="M383 -11q-151 0 -241 88t-90 231q0 114 59.5 212.5t156 155t204.5 56.5q170 0 253 -130l21 118h410l-16 -91h-310l-37 -208h301l-15 -91h-302l-42 -239h319l-15 -91h-419l15 87q-106 -98 -252 -98zM687 410q0 104 -58 165.5t-157 61.5q-127 0 -221.5 -96.5t-94.5 -232.5 q0 -103 61.5 -164t165.5 -61q125 0 214.5 94t89.5 233z" />
<glyph unicode="&#x153;" horiz-adv-x="1061" d="M353 553q74 0 129.5 -31.5t85.5 -86.5q43 55 104.5 86.5t128.5 31.5q105 0 167 -65.5t62 -167.5q0 -41 -8 -76h-430v-13q0 -75 41.5 -115.5t114.5 -40.5q56 0 95 26.5t59 67.5l91 -28q-32 -69 -94.5 -111t-150.5 -42q-157 0 -219 114q-43 -53 -105.5 -83.5t-132.5 -30.5 q-118 0 -187 67.5t-69 177.5q0 132 95 226t223 94zM505 306q0 72 -42 115.5t-110 43.5q-88 0 -154.5 -68t-66.5 -164q0 -71 43 -114t116 -43q85 0 149.5 66.5t64.5 163.5zM606 319h331q0 69 -37 108t-100 39q-68 0 -120.5 -41.5t-73.5 -105.5z" />
<glyph unicode="&#x178;" horiz-adv-x="621" d="M326 402l248 318h118l-329 -418l-53 -302h-99l53 302l-177 418h104zM256 832q0 24 14.5 38.5t37.5 14.5q24 0 38.5 -14.5t14.5 -38.5q0 -23 -14.5 -37.5t-38.5 -14.5q-23 0 -37.5 14.5t-14.5 37.5zM421 832q0 24 14.5 38.5t37.5 14.5q24 0 38.5 -14.5t14.5 -38.5 q0 -23 -14.5 -37.5t-38.5 -14.5q-23 0 -37.5 14.5t-14.5 37.5z" />
<glyph unicode="&#x17f;" horiz-adv-x="262" d="M218 580l-102 -580h-94l105 594q12 64 53.5 101t106.5 37q37 0 66 -11l-14 -83q-26 6 -48 6q-61 0 -73 -64z" />
<glyph unicode="&#x2b0;" horiz-adv-x="439" d="M294 597q54 0 87.5 -35t33.5 -86q0 -30 -8 -77l-40 -219h-79l39 222q7 38 7 58q0 28 -17.5 45t-46.5 17q-65 0 -95 -62q-11 -22 -22 -84l-35 -196h-79l94 540h79l-31 -178q48 55 113 55z" />
<glyph unicode="&#x2b2;" horiz-adv-x="189" d="M189 588l-92 -517l-81 -18l94 535h79zM118 680q0 21 13 34t33 13q22 0 35 -13t13 -34t-13 -34t-35 -13q-20 0 -33 13t-13 34z" />
<glyph unicode="&#x2b7;" horiz-adv-x="651" d="M601 588h90l-208 -408h-81l-46 287l-152 -287h-82l-56 408h83l34 -286l150 286h85l43 -285z" />
<glyph unicode="&#x2b8;" horiz-adv-x="431" d="M381 588h94l-321 -533h-95l100 157l-95 376h86l66 -283z" />
<glyph unicode="&#x2c6;" horiz-adv-x="500" d="M80 584l132 136h99l85 -136h-74l-64 71l-90 -71h-88z" />
<glyph unicode="&#x2dc;" horiz-adv-x="500" d="M240 624q-39 19 -56 19q-30 0 -33 -40l-58 7q1 51 26.5 79.5t65.5 28.5q29 0 75 -23q39 -20 56 -20q28 0 33 41l58 -7q-1 -51 -26.5 -80t-65.5 -29q-27 0 -75 24z" />
<glyph unicode="&#x2e3;" horiz-adv-x="424" d="M168 588l74 -134l110 134h103l-174 -205l113 -203h-94l-82 146l-116 -146h-107l183 219l-104 189h94z" />
<glyph unicode="&#x2009;" horiz-adv-x="150" />
<glyph unicode="&#x2013;" horiz-adv-x="500" d="M-6 235l13 72h500l-13 -72h-500z" />
<glyph unicode="&#x2014;" horiz-adv-x="1000" d="M-6 235l13 72h1000l-13 -72h-1000z" />
<glyph unicode="&#x2018;" horiz-adv-x="235" d="M264 720l-62 -234h-114l119 234h57z" />
<glyph unicode="&#x2019;" horiz-adv-x="235" d="M87 486l63 234h113l-118 -234h-58z" />
<glyph unicode="&#x201a;" horiz-adv-x="235" d="M-25 -151l66 253h114l-122 -253h-58z" />
<glyph unicode="&#x201c;" horiz-adv-x="396" d="M425 720l-62 -234h-114l119 234h57zM264 720l-62 -234h-114l119 234h57z" />
<glyph unicode="&#x201d;" horiz-adv-x="396" d="M87 486l63 234h113l-118 -234h-58zM248 486l63 234h113l-118 -234h-58z" />
<glyph unicode="&#x201e;" horiz-adv-x="396" d="M-25 -151l66 253h114l-122 -253h-58zM136 -151l66 253h114l-122 -253h-58z" />
<glyph unicode="&#x2022;" horiz-adv-x="500" d="M100 376q0 77 48 128t121 51t121 -51t48 -128q0 -74 -48.5 -126t-120.5 -52q-73 0 -121 50.5t-48 127.5z" />
<glyph unicode="&#x2026;" horiz-adv-x="705" d="M16 50q0 28 17 45.5t46 17.5q28 0 45 -17.5t17 -45.5t-17 -45t-45 -17t-45.5 17t-17.5 45zM251 50q0 28 17.5 45.5t45.5 17.5t45 -17.5t17 -45.5t-17 -45t-45 -17t-45.5 17t-17.5 45zM486 50q0 28 17 45.5t46 17.5q28 0 45 -17.5t17 -45.5t-17 -45t-45 -17t-45.5 17 t-17.5 45z" />
<glyph unicode="&#x2039;" horiz-adv-x="282" d="M43 315l234 173l-20 -114l-151 -111l112 -111l-17 -98l-173 173z" />
<glyph unicode="&#x203a;" horiz-adv-x="282" d="M239 227l-234 -173l19 113l151 111l-111 111l17 99l173 -173z" />
<glyph unicode="&#x2044;" horiz-adv-x="302" d="M331 720h91l-418 -720h-92z" />
<glyph unicode="&#x2070;" horiz-adv-x="447" d="M58 367q0 52 10 104q23 122 82.5 190t136.5 68q69 0 113 -47q49 -52 49 -149q0 -47 -10 -107q-21 -121 -80.5 -188t-138.5 -67q-71 0 -115 47q-47 50 -47 149zM140 366q0 -58 21 -88.5t58 -30.5q45 0 81 48t55 135q11 48 11 103q0 58 -21 88.5t-58 30.5q-46 0 -81 -47.5 t-55 -136.5q-11 -48 -11 -102z" />
<glyph unicode="&#x2074;" horiz-adv-x="434" d="M324 601l-193 -215h155zM429 386l-13 -73h-63l-23 -133h-81l24 133h-239l14 82l291 325h86l-59 -334h63z" />
<glyph unicode="&#x2075;" horiz-adv-x="418" d="M258 537q62 0 105 -47t43 -122q0 -85 -56 -141t-142 -56q-68 0 -113.5 37t-59.5 99l72 26q25 -86 101 -86q52 0 84 36t32 85q0 44 -23.5 69t-62.5 25q-55 0 -101 -52l-65 24l76 286h284l-13 -77h-216l-39 -141q42 35 94 35z" />
<glyph unicode="&#x2076;" horiz-adv-x="435" d="M305 729q92 0 149 -83l-58 -48q-23 28 -43.5 41t-47.5 13q-46 0 -86 -43q-46 -49 -65 -142q52 59 118 59q65 0 106.5 -45t41.5 -114q0 -82 -56 -139t-138 -57q-90 0 -133 64q-34 50 -34 131q0 43 5 72q23 152 103 230q62 61 138 61zM340 367q0 37 -22.5 60.5t-58.5 23.5 q-45 0 -81 -35t-36 -86q0 -36 23.5 -60t60.5 -24q47 0 80.5 35.5t33.5 85.5z" />
<glyph unicode="&#x2077;" horiz-adv-x="412" d="M195 181h-99q26 130 98.5 248.5t172.5 213.5h-275l13 77h366l-12 -71q-209 -207 -264 -468z" />
<glyph unicode="&#x2078;" horiz-adv-x="427" d="M347 588q0 29 -19 47.5t-50 18.5q-39 0 -66.5 -27t-27.5 -63q0 -29 19.5 -47t50.5 -18q39 0 66 26.5t27 62.5zM321 347q0 35 -23.5 57.5t-60.5 22.5q-47 0 -79.5 -30.5t-32.5 -72.5q0 -34 24 -56t63 -22q46 0 77.5 30t31.5 71zM212 171q-76 0 -123 42t-47 110q0 53 31 91 t81 58q-48 35 -48 97q0 65 52 112.5t120 47.5q65 0 106 -40t41 -99q0 -89 -88 -131q65 -35 65 -115q0 -73 -55 -123t-135 -50z" />
<glyph unicode="&#x2079;" horiz-adv-x="435" d="M189 171q-92 0 -149 82l58 49q43 -55 91 -55q49 0 88 43q42 47 63 140q-50 -57 -118 -57q-66 0 -107.5 45t-41.5 115q0 80 57 138t137 58q85 0 126 -54t41 -140q0 -104 -30.5 -182.5t-75.5 -122.5q-60 -59 -139 -59zM154 533q0 -37 22 -61t58 -24q45 0 81 34.5t36 85.5 q0 37 -23 61t-61 24q-46 0 -79.5 -35.5t-33.5 -84.5z" />
<glyph unicode="&#x207a;" horiz-adv-x="443" d="M285 484h135v-69h-135v-136h-70v136h-136v69h136v137h70v-137z" />
<glyph unicode="&#x207c;" horiz-adv-x="443" d="M81 558h341v-70h-341v70zM81 411h341v-70h-341v70z" />
<glyph unicode="&#x207d;" horiz-adv-x="255" d="M77 281q0 231 159 439h79q-162 -213 -162 -449q0 -109 45 -216h-68q-53 108 -53 226z" />
<glyph unicode="&#x207e;" horiz-adv-x="255" d="M219 494q0 -232 -159 -439h-78q161 214 161 448q0 108 -44 217h67q53 -109 53 -226z" />
<glyph unicode="&#x207f;" horiz-adv-x="439" d="M294 597q53 0 87 -35t34 -86q0 -30 -8 -77l-40 -219h-79l39 222q7 38 7 58q0 28 -17.5 45t-46.5 17q-64 0 -95 -64q-13 -27 -23 -82l-34 -196h-79l71 408h80l-9 -47q48 56 113 56z" />
<glyph unicode="&#x2080;" horiz-adv-x="447" d="M-2 17q0 52 10 104q23 122 82.5 190t136.5 68q69 0 113 -47q49 -52 49 -149q0 -47 -10 -107q-21 -121 -80.5 -188t-138.5 -67q-71 0 -115 47q-47 50 -47 149zM80 16q0 -58 21 -88.5t58 -30.5q45 0 81 48t55 135q11 48 11 103q0 58 -21 88.5t-58 30.5q-46 0 -81 -47.5 t-55 -136.5q-11 -48 -11 -102z" />
<glyph unicode="&#x2081;" horiz-adv-x="287" d="M20 224l10 60h17q45 0 79.5 22t50.5 64h64l-95 -540h-82l70 394h-114z" />
<glyph unicode="&#x2082;" horiz-adv-x="432" d="M331 -94l-13 -76h-351l4 29q9 68 38.5 106.5t94.5 80.5l93 60q56 36 77.5 62t21.5 59t-20 53.5t-53 20.5q-68 0 -118 -89l-65 41q28 55 76.5 90.5t107.5 35.5q70 0 112 -42.5t42 -108.5q0 -56 -28.5 -96t-98.5 -83l-112 -70q-56 -35 -64 -73h256z" />
<glyph unicode="&#x2083;" horiz-adv-x="407" d="M140 -102q46 0 74 28t28 69q0 43 -25.5 62.5t-79.5 19.5h-33l13 72h19q133 0 133 86q0 29 -18 48t-49 19q-58 0 -100 -63l-58 48q62 92 158 92q65 0 105.5 -40t40.5 -100q0 -88 -87 -128q64 -35 64 -120q0 -77 -53 -123.5t-131 -46.5q-61 0 -104.5 28t-66.5 76l66 43 q37 -70 104 -70z" />
<glyph unicode="&#x2084;" horiz-adv-x="434" d="M264 251l-193 -215h155zM369 36l-13 -73h-63l-23 -133h-81l24 133h-239l14 82l291 325h86l-59 -334h63z" />
<glyph unicode="&#x2085;" horiz-adv-x="418" d="M198 187q62 0 105 -47t43 -122q0 -85 -56 -141t-142 -56q-68 0 -113.5 37t-59.5 99l72 26q25 -86 101 -86q52 0 84 36t32 85q0 44 -23.5 69t-62.5 25q-55 0 -101 -52l-65 24l76 286h284l-13 -77h-216l-39 -141q42 35 94 35z" />
<glyph unicode="&#x2086;" horiz-adv-x="435" d="M245 379q92 0 149 -83l-58 -48q-23 28 -43.5 41t-47.5 13q-46 0 -86 -43q-46 -49 -65 -142q52 59 118 59q65 0 106.5 -45t41.5 -114q0 -82 -56 -139t-138 -57q-90 0 -133 64q-34 50 -34 131q0 43 5 72q23 152 103 230q62 61 138 61zM280 17q0 37 -22.5 60.5t-58.5 23.5 q-45 0 -81 -35t-36 -86q0 -36 23.5 -60t60.5 -24q47 0 80.5 35.5t33.5 85.5z" />
<glyph unicode="&#x2087;" horiz-adv-x="412" d="M135 -169h-99q26 130 98.5 248.5t172.5 213.5h-275l13 77h366l-12 -71q-209 -207 -264 -468z" />
<glyph unicode="&#x2088;" horiz-adv-x="427" d="M287 238q0 29 -19 47.5t-50 18.5q-39 0 -66.5 -27t-27.5 -63q0 -29 19.5 -47t50.5 -18q39 0 66 26.5t27 62.5zM261 -3q0 35 -23.5 57.5t-60.5 22.5q-47 0 -79.5 -30.5t-32.5 -72.5q0 -34 24 -56t63 -22q46 0 77.5 30t31.5 71zM152 -179q-76 0 -123 42t-47 110q0 53 31 91 t81 58q-48 35 -48 97q0 65 52 112.5t120 47.5q65 0 106 -40t41 -99q0 -89 -88 -131q65 -35 65 -115q0 -73 -55 -123t-135 -50z" />
<glyph unicode="&#x2089;" horiz-adv-x="435" d="M129 -179q-92 0 -149 82l58 49q43 -55 91 -55q49 0 88 43q42 47 63 140q-50 -57 -118 -57q-66 0 -107.5 45t-41.5 115q0 80 57 138t137 58q85 0 126 -54t41 -140q0 -104 -30.5 -182.5t-75.5 -122.5q-60 -59 -139 -59zM94 183q0 -37 22 -61t58 -24q45 0 81 34.5t36 85.5 q0 37 -23 61t-61 24q-46 0 -79.5 -35.5t-33.5 -84.5z" />
<glyph unicode="&#x208d;" horiz-adv-x="255" d="M17 -69q0 231 159 439h79q-162 -213 -162 -449q0 -109 45 -216h-68q-53 108 -53 226z" />
<glyph unicode="&#x208e;" horiz-adv-x="255" d="M159 144q0 -232 -159 -439h-78q161 214 161 448q0 108 -44 217h67q53 -109 53 -226z" />
<glyph unicode="&#x20ac;" horiz-adv-x="825" d="M45 402l11 65h93q48 118 153.5 191.5t234.5 73.5q112 0 185 -54.5t103 -139.5l-89 -39q-59 138 -200 138q-89 0 -162.5 -46t-113.5 -124h296l-11 -65h-311q-10 -40 -12 -84h307l-11 -65h-291q16 -79 74.5 -124.5t147.5 -45.5q162 0 255 161l84 -47q-50 -99 -137.5 -153.5 t-201.5 -54.5q-135 0 -222.5 71.5t-104.5 192.5h-104l11 65h89q2 46 10 84h-83z" />
<glyph unicode="&#x2116;" horiz-adv-x="1210" d="M499 0l-283 557l-96 -557h-94l126 720h93l286 -562l98 562h94l-126 -720h-98zM963 171q-89 0 -142 51t-53 134q0 99 71.5 170t167.5 71q86 0 137 -52t51 -135q0 -102 -68 -170.5t-164 -68.5zM1114 410q0 51 -29.5 81.5t-77.5 30.5q-63 0 -110 -48.5t-47 -116.5 q0 -51 30.5 -81.5t81.5 -30.5q61 0 106.5 48t45.5 117z" />
<glyph unicode="&#x2122;" horiz-adv-x="631" d="M238 661l-44 -249h-63l44 249h-89l10 59h242l-10 -59h-90zM434 720l61 -148l114 148h68l-54 -308h-63l34 190l-88 -113h-45l-46 112l-33 -189h-61l54 308h59z" />
<glyph unicode="&#x2190;" horiz-adv-x="1000" d="M430 36l-430 323l430 316v-96l-269 -184h839v-72h-837l267 -188v-99z" />
<glyph unicode="&#x2191;" horiz-adv-x="1000" d="M181 425l323 430l316 -430h-96l-184 269v-839h-72v837l-188 -267h-99z" />
<glyph unicode="&#x2192;" horiz-adv-x="1000" d="M1000 359l-430 -323v99l267 188h-837v72h839l-269 184v96z" />
<glyph unicode="&#x2193;" horiz-adv-x="1000" d="M504 -145l-323 430h99l188 -267v837h72v-839l184 269h96z" />
<glyph unicode="&#x2196;" horiz-adv-x="1000" d="M225 179l-76 532l528 -80l-68 -68l-320 60l593 -593l-51 -51l-592 592l56 -322z" />
<glyph unicode="&#x2197;" horiz-adv-x="1000" d="M882 711l-76 -532l-70 70l56 322l-592 -592l-51 51l593 593l-320 -60l-68 68z" />
<glyph unicode="&#x2198;" horiz-adv-x="1000" d="M806 511l76 -532l-528 80l68 68l320 -60l-593 593l51 51l592 -592l-56 322z" />
<glyph unicode="&#x2199;" horiz-adv-x="1000" d="M149 -21l76 532l70 -70l-56 -322l592 592l51 -51l-593 -593l320 60l68 -68z" />
<glyph unicode="&#x25fc;" horiz-adv-x="540" d="M0 540h540v-540h-540v540z" />
<glyph unicode="&#xf6e1;" horiz-adv-x="184" d="M-56 -281l52 195h94l-92 -195h-54z" />
<glyph unicode="&#xf6e2;" horiz-adv-x="184" d="M4 69l52 195h94l-92 -195h-54z" />
<glyph unicode="&#xf6e5;" horiz-adv-x="184" d="M142 71l-14 -72h-157l14 72h157z" />
<glyph unicode="&#xf6e6;" horiz-adv-x="184" d="M202 421l-14 -72h-157l14 72h157z" />
<glyph unicode="&#xf6e7;" horiz-adv-x="184" d="M-24 -129q0 24 14 38t37 14t37.5 -14t14.5 -38q0 -22 -14.5 -36t-37.5 -14q-22 0 -36.5 14t-14.5 36z" />
<glyph unicode="&#xf6e8;" horiz-adv-x="184" d="M36 221q0 24 14 38t37 14t37.5 -14t14.5 -38q0 -22 -14.5 -36t-37.5 -14q-22 0 -36.5 14t-14.5 36z" />
<glyph unicode="&#xf6e9;" horiz-adv-x="413" d="M293 361l3 15q-17 -11 -44 -17q-10 -3 -29 -7.5t-29 -7t-25 -7.5t-23.5 -9.5t-17 -11.5t-12.5 -15.5t-4 -18.5q0 -42 53 -42q43 0 80 32.5t48 88.5zM247 597q66 0 103.5 -35t37.5 -90q0 -19 -7 -59l-25 -141q-2 -16 -2 -18q0 -12 12 -12q7 0 16 3l-5 -70q-9 -4 -27 -4 q-63 0 -74 64q-51 -64 -125 -64q-52 0 -85 28.5t-33 77.5q0 99 121 122l109 21q48 8 48 49q0 25 -16.5 40t-48.5 15q-71 0 -93 -71l-76 18q14 54 59.5 90t110.5 36z" />
<glyph unicode="&#xf6ea;" horiz-adv-x="493" d="M255 244q57 0 99 47t42 116q0 51 -28 83.5t-76 32.5q-57 0 -101.5 -46.5t-44.5 -118.5q0 -51 30.5 -82.5t78.5 -31.5zM478 406q0 -99 -63 -167t-149 -68q-94 0 -140 72l-11 -63h-79l95 540h79l-33 -192q52 69 129 69q74 0 123 -52.5t49 -138.5z" />
<glyph unicode="&#xf6eb;" horiz-adv-x="493" d="M133 360q0 -51 28 -83.5t75 -32.5q57 0 101.5 47.5t44.5 119.5q0 51 -29 82t-79 31q-57 0 -99 -47.5t-42 -116.5zM224 171q-76 0 -125 52t-49 138q0 100 63 168t150 68q92 0 140 -73l34 196h79l-95 -540h-79l8 49q-55 -58 -126 -58z" />
<glyph unicode="&#xf6ec;" horiz-adv-x="464" d="M145 424h228q-1 45 -25 72t-68 27q-45 0 -83 -28t-52 -71zM445 359h-314v-10q0 -46 28.5 -75.5t77.5 -29.5q37 0 66.5 20t45.5 52l75 -23q-24 -56 -73.5 -89t-111.5 -33q-86 0 -137 48t-51 132q0 105 68.5 175.5t158.5 70.5q81 0 127.5 -50t46.5 -127q0 -34 -7 -61z" />
<glyph unicode="&#xf6ed;" horiz-adv-x="189" d="M189 588l-72 -408h-79l72 408h79zM117 680q0 21 13 34t34 13t34 -13t13 -34t-13 -34t-34 -13t-34 13t-13 34z" />
<glyph unicode="&#xf6ee;" horiz-adv-x="189" d="M212 720l-95 -540h-79l95 540h79z" />
<glyph unicode="&#xf6ef;" horiz-adv-x="660" d="M290 597q37 0 63.5 -20.5t38.5 -51.5q54 72 126 72q53 0 84 -33.5t31 -82.5q0 -27 -8 -78l-39 -223h-80l42 233q6 36 6 52q0 26 -15 41.5t-42 15.5q-57 0 -87 -64q-13 -29 -21 -70l-36 -208h-79l41 234q6 38 6 52q0 24 -15.5 40t-41.5 16q-22 0 -39.5 -8t-30 -27.5 t-21 -38.5t-16.5 -55t-12.5 -61.5t-12.5 -74t-13 -77.5h-79l72 408h79l-8 -46q45 55 107 55z" />
<glyph unicode="&#xf6f0;" horiz-adv-x="493" d="M246 171q-89 0 -142 51t-53 134q0 99 71.5 170t167.5 71q86 0 137 -52t51 -135q0 -102 -68 -170.5t-164 -68.5zM397 410q0 51 -29.5 81.5t-77.5 30.5q-63 0 -110 -48.5t-47 -116.5q0 -51 30.5 -81.5t81.5 -30.5q61 0 106.5 48t45.5 117z" />
<glyph unicode="&#xf6f1;" horiz-adv-x="289" d="M324 594l-5 -81q-18 3 -35 3q-78 0 -115 -85q-11 -27 -23 -90l-28 -161h-79l72 408h78l-10 -56q49 65 119 65q10 0 26 -3z" />
<glyph unicode="&#xf6f2;" horiz-adv-x="347" d="M187 244q27 0 43.5 13.5t16.5 32.5q0 26 -36 46l-62 34q-71 39 -71 109q0 48 38.5 83t94.5 35q86 0 133 -76l-59 -45q-33 48 -74 48q-25 0 -40.5 -13.5t-15.5 -31.5q0 -26 35 -44l63 -34q71 -39 71 -111q0 -53 -37.5 -86t-100.5 -33q-118 0 -161 101l65 38 q17 -33 39 -49.5t58 -16.5z" />
<glyph unicode="&#xf6f3;" horiz-adv-x="265" d="M290 516h-76l-59 -336h-79l59 336h-76l13 72h76l14 80l82 17l-17 -97h76z" />
<glyph horiz-adv-x="572" d="M43 248q0 66 14 141q30 163 109 253t182 90q93 0 149 -62q62 -67 62 -198q0 -68 -14 -141q-31 -164 -108.5 -253.5t-182.5 -89.5q-94 0 -148 62q-63 70 -63 198zM143 244q0 -81 29 -123t82 -42q66 0 115.5 66t75.5 188q15 70 15 141q0 81 -29.5 124t-82.5 43 q-66 0 -114.5 -66t-75.5 -189q-15 -69 -15 -142z" />
<glyph horiz-adv-x="363" d="M77 535l12 69h16q135 0 183 116h73l-126 -720h-98l94 535h-154z" />
<glyph horiz-adv-x="543" d="M472 90l-15 -90h-462l5 36q11 84 49.5 135t115.5 101l134 87q79 52 109 88.5t30 86.5q0 48 -28.5 77t-76.5 29q-94 0 -165 -121l-76 48q36 75 101 120t143 45q90 0 145.5 -55t55.5 -143q0 -76 -37 -127.5t-130 -109.5l-154 -96q-86 -53 -97 -111h353z" />
<glyph horiz-adv-x="520" d="M231 80q63 0 104 39.5t41 99.5q0 117 -143 117h-47l15 84h26q89 0 136.5 32.5t47.5 91.5q0 42 -26.5 69.5t-70.5 27.5q-77 0 -142 -84l-66 57q86 118 210 118q86 0 137.5 -51.5t51.5 -130.5q0 -128 -127 -174q96 -42 96 -162q0 -100 -68 -163t-175 -63q-156 0 -225 131 l75 51q53 -90 150 -90z" />
<glyph horiz-adv-x="555" d="M409 584l-284 -317h228zM532 267l-15 -87h-84l-32 -180h-95l32 180h-326l17 100l395 440h103l-79 -453h84z" />
<glyph horiz-adv-x="534" d="M305 472q83 0 140 -61t57 -159q0 -113 -75.5 -188.5t-188.5 -75.5q-89 0 -147 47t-77 126l85 33q30 -115 138 -115q73 0 120 51t47 122q0 60 -33.5 96t-89.5 36q-75 0 -140 -70l-77 30l97 376h374l-15 -91h-294l-56 -213q64 56 135 56z" />
<glyph horiz-adv-x="557" d="M374 732q124 0 193 -104l-70 -57q-27 37 -55.5 54t-67.5 17q-65 0 -119 -55q-72 -75 -100 -227q70 98 172 98q85 0 141 -60t56 -151q0 -107 -75.5 -183t-182.5 -76q-124 0 -181 91q-40 63 -40 168q0 257 144 403q80 82 185 82zM427 248q0 53 -32 87t-84 34 q-65 0 -115 -50.5t-50 -120.5q0 -53 32 -86.5t88 -33.5q67 0 114 50t47 120z" />
<glyph horiz-adv-x="526" d="M91 630l15 90h484l-15 -85q-137 -136 -227.5 -289.5t-133.5 -345.5h-117q31 174 133 336.5t245 293.5h-384z" />
<glyph horiz-adv-x="546" d="M436 548q0 42 -28 69t-72 27q-59 0 -97 -38t-38 -90q0 -42 28 -69t73 -27q57 0 95.5 38.5t38.5 89.5zM401 221q0 50 -34 82t-87 32q-67 0 -113 -43t-46 -103q0 -49 34 -80.5t89 -31.5q70 0 113.5 42t43.5 102zM244 -12q-96 0 -157.5 56t-61.5 145q0 71 42 122.5t109 77.5 q-67 50 -67 132q0 88 67.5 149.5t159.5 61.5q85 0 138.5 -52.5t53.5 -129.5q0 -122 -121 -178q90 -45 90 -155q0 -99 -71 -164t-182 -65z" />
<glyph horiz-adv-x="557" d="M214 -12q-125 0 -193 104l70 57q27 -37 55.5 -54t67.5 -17q66 0 120 57q71 74 99 224q-69 -97 -172 -97q-85 0 -141 60t-56 150q0 108 76 184t182 76q125 0 181 -92q40 -64 40 -165q0 -141 -42.5 -244t-101.5 -163q-79 -80 -185 -80zM161 472q0 -54 32 -87.5t84 -33.5 q65 0 115 50t50 118q0 55 -32 89t-88 34q-66 0 -113.5 -50.5t-47.5 -119.5z" />
<glyph d="M257 79q73 0 126.5 71.5t53.5 179.5q0 74 -34 114t-93 40q-72 0 -126 -72t-54 -179q0 -74 34 -114t93 -40zM30 233q0 143 80.5 242.5t200.5 99.5q104 0 165 -68t61 -177q0 -142 -79.5 -242t-200.5 -100q-105 0 -166 68t-61 177z" />
<glyph d="M134 378l12 69h16q134 0 184 116h73l-99 -563h-98l66 378h-154z" />
<glyph d="M512 406q0 -65 -37.5 -107t-116.5 -75l-118 -49q-79 -33 -95 -85h324l-16 -90h-432l6 44q10 74 50 121.5t119 83.5l114 51q57 26 80 50t23 56q0 34 -23 55.5t-64 21.5q-90 0 -146 -105l-77 50q35 68 93 107.5t130 39.5q84 0 135 -48.5t51 -120.5z" />
<glyph horiz-adv-x="567" d="M230 -77q63 0 104 39.5t41 99.5q0 117 -143 117h-47l15 84h26q89 0 136.5 32.5t47.5 91.5q0 42 -26.5 69.5t-70.5 27.5q-77 0 -142 -84l-66 57q86 118 210 118q86 0 137.5 -51.5t51.5 -130.5q0 -128 -127 -174q96 -42 96 -162q0 -100 -68 -163t-175 -63q-156 0 -225 131 l75 51q53 -90 150 -90z" />
<glyph d="M384 424l-288 -338h229zM504 86l-14 -86h-85l-30 -169h-95l30 169h-325l17 100l398 463h104l-84 -477h84z" />
<glyph d="M293 315q83 0 140 -61t57 -159q0 -113 -75.5 -188.5t-188.5 -75.5q-89 0 -147 47t-77 126l85 33q30 -115 138 -115q73 0 120 51t47 122q0 60 -33.5 96t-89.5 36q-75 0 -140 -70l-77 30l97 376h374l-15 -91h-294l-56 -213q64 56 135 56z" />
<glyph d="M378 732q124 0 193 -104l-70 -57q-27 37 -55.5 54t-67.5 17q-66 0 -121 -56q-69 -73 -98 -226q70 98 172 98q85 0 141 -60t56 -151q0 -107 -75.5 -183t-182.5 -76q-125 0 -181 92q-40 64 -40 167q0 257 144 403q80 82 185 82zM431 248q0 53 -32 87t-84 34 q-65 0 -115 -50.5t-50 -120.5q0 -53 32 -86.5t88 -33.5q67 0 114 50t47 120z" />
<glyph d="M98 563h484l-15 -84q-138 -137 -230 -294.5t-133 -353.5h-118q32 177 134.5 343.5t243.5 297.5h-382z" />
<glyph d="M446 548q0 42 -28 69t-72 27q-56 0 -95.5 -38.5t-39.5 -90.5q0 -42 28 -68.5t73 -26.5q57 0 95.5 38.5t38.5 89.5zM411 221q0 50 -34 82t-87 32q-67 0 -113 -43t-46 -103q0 -49 34 -80.5t89 -31.5q67 0 112 42.5t45 101.5zM254 -12q-96 0 -157.5 56t-61.5 145 q0 71 42 122.5t109 77.5q-67 50 -67 131q0 87 69 149.5t158 62.5q85 0 138.5 -52.5t53.5 -129.5q0 -122 -121 -178q90 -45 90 -155q0 -97 -73.5 -163t-179.5 -66z" />
<glyph d="M190 -169q-124 0 -193 104l70 57q27 -37 55.5 -54t67.5 -17q67 0 121 57q69 73 98 224q-69 -97 -172 -97q-85 0 -141 60t-56 150q0 108 76 184t182 76q123 0 180 -89q41 -66 41 -168q0 -141 -42.5 -243.5t-101.5 -163.5q-78 -80 -185 -80zM137 315q0 -54 32 -87.5 t84 -33.5q65 0 115 50t50 118q0 55 -32 89t-88 34q-66 0 -113.5 -50.5t-47.5 -119.5z" />
<glyph horiz-adv-x="454" d="M287 522q-62 0 -108 -48t-46 -119q0 -50 30 -80t83 -30q76 0 125 89l67 -41q-66 -122 -194 -122q-89 0 -141 51.5t-52 132.5q0 100 71.5 171t166.5 71q128 0 171 -116l-72 -32q-17 37 -39.5 55t-61.5 18z" />
<glyph horiz-adv-x="265" d="M232 611l-4 -23h75l-12 -72h-76l-59 -336h-79l59 336h-76l12 72h76l6 36q8 48 41 76.5t84 28.5q31 0 54 -9l-14 -72q-24 6 -37 6q-43 0 -50 -43z" />
<glyph horiz-adv-x="487" d="M484 588l-66 -371q-14 -78 -68.5 -124t-141.5 -46q-75 0 -122 36t-57 91l77 14q22 -68 103 -68q112 0 136 131q-47 -58 -120 -58q-75 0 -122 48t-47 128q0 96 63.5 162t146.5 66q87 0 128 -70l11 61h79zM278 524q-57 0 -98.5 -45t-41.5 -111q0 -46 25.5 -74t70.5 -28 q57 0 100 46t43 109q0 45 -27.5 74t-71.5 29z" />
<glyph horiz-adv-x="427" d="M398 180h-95l-92 166l-75 -69l-18 -97h-79l95 540h79l-56 -322l193 190h111l-191 -185z" />
<glyph horiz-adv-x="493" d="M395 408q0 50 -28 82.5t-75 32.5q-57 0 -101.5 -47t-44.5 -119q0 -52 29 -82.5t79 -30.5q58 0 99.5 47t41.5 117zM307 597q74 0 122.5 -52.5t48.5 -139.5q0 -99 -62.5 -166.5t-149.5 -67.5q-94 0 -140 71l-33 -187h-79l94 533h79l-9 -53q55 62 129 62z" />
<glyph horiz-adv-x="493" d="M133 360q0 -51 28 -83.5t74 -32.5q57 0 102 47.5t45 119.5q0 51 -29 82t-79 31q-57 0 -99 -47.5t-42 -116.5zM224 171q-76 0 -125 52t-49 138q0 100 63.5 168t149.5 68q91 0 139 -73l12 64h79l-94 -533h-79l30 175q-54 -59 -126 -59z" />
<glyph horiz-adv-x="439" d="M183 171q-55 0 -89 35t-34 90q0 34 7 72l40 220h79l-39 -222q-7 -37 -7 -59q0 -29 17.5 -45.5t46.5 -16.5q23 0 40 6t30 22t21.5 34t17.5 53.5t15 67t16 87.5q8 47 13 73h79l-72 -408h-79l8 45q-49 -54 -110 -54z" />
<glyph horiz-adv-x="422" d="M374 588h91l-235 -408h-79l-87 408h83l60 -296z" />
<glyph horiz-adv-x="406" d="M82 516l13 72h330l-10 -62l-274 -275h235l-12 -71h-357l10 57l277 279h-212z" />
<glyph d="M281 340l130 130l58 -58l-130 -130l130 -130l-58 -58l-130 130l-130 -130l-58 58l130 130l-130 130l58 58z" />
<glyph d="M322 323h184v-82h-184v-184h-82v184h-184v82h184v184h82v-184z" />
<glyph d="M506 58l-450 197v53l450 197v-93l-320 -130l320 -130v-94z" />
<glyph d="M56 423h450v-82h-450v82zM56 223h450v-82h-450v82z" />
<glyph d="M506 255l-450 -197v94l320 130l-320 130v93l450 -197v-53z" />
<glyph d="M177 358q37 0 86 -23l62 -29q37 -18 58 -18q52 0 52 70l75 -6q0 -70 -35 -108t-90 -38q-37 0 -86 23l-62 29q-37 18 -58 18q-52 0 -52 -70l-75 6q0 70 35 108t90 38z" />
<glyph d="M322 132h184v-82h-450v82h184v138h-184v82h184v164h82v-164h184v-82h-184v-138z" />
<glyph d="M506 423v-282h-82v200h-368v82h450z" />
<glyph d="M56 323h450v-82h-450v82zM230 457q0 22 14.5 36t36.5 14t36 -14t14 -36t-14 -36.5t-36 -14.5q-23 0 -37 14t-14 37zM230 106q0 22 14.5 36t36.5 14t36 -14t14 -36t-14 -36.5t-36 -14.5q-23 0 -37 14.5t-14 36.5z" />
<glyph horiz-adv-x="235" d="M51 281q0 29 17.5 46t45.5 17t45 -17.5t17 -45.5t-17 -45t-45 -17t-45.5 17t-17.5 45z" />
<glyph horiz-adv-x="447" d="M58 367q0 52 10 104q23 122 82.5 190t136.5 68q69 0 113 -47q49 -52 49 -149q0 -47 -10 -107q-21 -121 -80.5 -188t-138.5 -67q-71 0 -115 47q-47 50 -47 149zM140 366q0 -58 21 -88.5t58 -30.5q45 0 81 48t55 135q11 48 11 103q0 58 -21 88.5t-58 30.5q-46 0 -81 -47.5 t-55 -136.5q-11 -48 -11 -102z" />
<glyph horiz-adv-x="287" d="M80 574l10 60h17q45 0 79.5 22t50.5 64h64l-95 -540h-82l70 394h-114z" />
<glyph horiz-adv-x="432" d="M391 256l-13 -76h-351l4 29q9 68 38.5 106.5t94.5 80.5l93 60q56 36 77.5 62t21.5 59t-20 53.5t-53 20.5q-68 0 -118 -89l-65 41q28 55 76.5 90.5t107.5 35.5q70 0 112 -42.5t42 -108.5q0 -56 -28.5 -96t-98.5 -83l-112 -70q-56 -35 -64 -73h256z" />
<glyph horiz-adv-x="407" d="M200 248q46 0 74 28t28 69q0 43 -25.5 62.5t-79.5 19.5h-33l13 72h19q133 0 133 86q0 29 -18 48t-49 19q-58 0 -100 -63l-58 48q62 92 158 92q65 0 105.5 -40t40.5 -100q0 -88 -87 -128q64 -35 64 -120q0 -77 -53 -123.5t-131 -46.5q-61 0 -104.5 28t-66.5 76l66 43 q37 -70 104 -70z" />
<glyph horiz-adv-x="434" d="M324 601l-193 -215h155zM429 386l-13 -73h-63l-23 -133h-81l24 133h-239l14 82l291 325h86l-59 -334h63z" />
<glyph horiz-adv-x="418" d="M258 537q62 0 105 -47t43 -122q0 -85 -56 -141t-142 -56q-68 0 -113.5 37t-59.5 99l72 26q25 -86 101 -86q52 0 84 36t32 85q0 44 -23.5 69t-62.5 25q-55 0 -101 -52l-65 24l76 286h284l-13 -77h-216l-39 -141q42 35 94 35z" />
<glyph horiz-adv-x="435" d="M305 729q92 0 149 -83l-58 -48q-23 28 -43.5 41t-47.5 13q-46 0 -86 -43q-46 -49 -65 -142q52 59 118 59q65 0 106.5 -45t41.5 -114q0 -82 -56 -139t-138 -57q-90 0 -133 64q-34 50 -34 131q0 43 5 72q23 152 103 230q62 61 138 61zM340 367q0 37 -22.5 60.5t-58.5 23.5 q-45 0 -81 -35t-36 -86q0 -36 23.5 -60t60.5 -24q47 0 80.5 35.5t33.5 85.5z" />
<glyph horiz-adv-x="412" d="M195 181h-99q26 130 98.5 248.5t172.5 213.5h-275l13 77h366l-12 -71q-209 -207 -264 -468z" />
<glyph horiz-adv-x="427" d="M347 588q0 29 -19 47.5t-50 18.5q-39 0 -66.5 -27t-27.5 -63q0 -29 19.5 -47t50.5 -18q39 0 66 26.5t27 62.5zM321 347q0 35 -23.5 57.5t-60.5 22.5q-47 0 -79.5 -30.5t-32.5 -72.5q0 -34 24 -56t63 -22q46 0 77.5 30t31.5 71zM212 171q-76 0 -123 42t-47 110q0 53 31 91 t81 58q-48 35 -48 97q0 65 52 112.5t120 47.5q65 0 106 -40t41 -99q0 -89 -88 -131q65 -35 65 -115q0 -73 -55 -123t-135 -50z" />
<glyph horiz-adv-x="435" d="M189 171q-92 0 -149 82l58 49q43 -55 91 -55q49 0 88 43q42 47 63 140q-50 -57 -118 -57q-66 0 -107.5 45t-41.5 115q0 80 57 138t137 58q85 0 126 -54t41 -140q0 -104 -30.5 -182.5t-75.5 -122.5q-60 -59 -139 -59zM154 533q0 -37 22 -61t58 -24q45 0 81 34.5t36 85.5 q0 37 -23 61t-61 24q-46 0 -79.5 -35.5t-33.5 -84.5z" />
<glyph d="M39 248q0 66 14 141q30 163 109 253t182 90q93 0 149 -62q62 -67 62 -198q0 -68 -14 -141q-31 -164 -108.5 -253.5t-182.5 -89.5q-94 0 -148 62q-63 70 -63 198zM441 333q13 67 15 120l-313 -267q20 -107 107 -107q66 0 115.5 66t75.5 188zM154 386q-13 -59 -15 -119 l312 266q-20 108 -107 108q-66 0 -114.5 -66t-75.5 -189z" />
<glyph horiz-adv-x="413" d="M293 361l3 15q-17 -11 -44 -17q-10 -3 -29 -7.5t-29 -7t-25 -7.5t-23.5 -9.5t-17 -11.5t-12.5 -15.5t-4 -18.5q0 -42 53 -42q43 0 80 32.5t48 88.5zM247 597q66 0 103.5 -35t37.5 -90q0 -19 -7 -59l-25 -141q-2 -16 -2 -18q0 -12 12 -12q7 0 16 3l-5 -70q-9 -4 -27 -4 q-63 0 -74 64q-51 -64 -125 -64q-52 0 -85 28.5t-33 77.5q0 99 121 122l109 21q48 8 48 49q0 25 -16.5 40t-48.5 15q-71 0 -93 -71l-76 18q14 54 59.5 90t110.5 36z" />
<glyph horiz-adv-x="493" d="M255 244q57 0 99 47t42 116q0 51 -28 83.5t-76 32.5q-57 0 -101.5 -46.5t-44.5 -118.5q0 -51 30.5 -82.5t78.5 -31.5zM478 406q0 -99 -63 -167t-149 -68q-94 0 -140 72l-11 -63h-79l95 540h79l-33 -192q52 69 129 69q74 0 123 -52.5t49 -138.5z" />
<glyph horiz-adv-x="454" d="M287 522q-62 0 -108 -48t-46 -119q0 -50 30 -80t83 -30q76 0 125 89l67 -41q-66 -122 -194 -122q-89 0 -141 51.5t-52 132.5q0 100 71.5 171t166.5 71q128 0 171 -116l-72 -32q-17 37 -39.5 55t-61.5 18z" />
<glyph horiz-adv-x="493" d="M133 360q0 -51 28 -83.5t75 -32.5q57 0 101.5 47.5t44.5 119.5q0 51 -29 82t-79 31q-57 0 -99 -47.5t-42 -116.5zM224 171q-76 0 -125 52t-49 138q0 100 63 168t150 68q92 0 140 -73l34 196h79l-95 -540h-79l8 49q-55 -58 -126 -58z" />
<glyph horiz-adv-x="464" d="M145 424h228q-1 45 -25 72t-68 27q-45 0 -83 -28t-52 -71zM445 359h-314v-10q0 -46 28.5 -75.5t77.5 -29.5q37 0 66.5 20t45.5 52l75 -23q-24 -56 -73.5 -89t-111.5 -33q-86 0 -137 48t-51 132q0 105 68.5 175.5t158.5 70.5q81 0 127.5 -50t46.5 -127q0 -34 -7 -61z" />
<glyph horiz-adv-x="265" d="M232 611l-4 -23h75l-12 -72h-76l-59 -336h-79l59 336h-76l12 72h76l6 36q8 48 41 76.5t84 28.5q31 0 54 -9l-14 -72q-24 6 -37 6q-43 0 -50 -43z" />
<glyph horiz-adv-x="487" d="M484 588l-66 -371q-14 -78 -68.5 -124t-141.5 -46q-75 0 -122 36t-57 91l77 14q22 -68 103 -68q112 0 136 131q-47 -58 -120 -58q-75 0 -122 48t-47 128q0 96 63.5 162t146.5 66q87 0 128 -70l11 61h79zM278 524q-57 0 -98.5 -45t-41.5 -111q0 -46 25.5 -74t70.5 -28 q57 0 100 46t43 109q0 45 -27.5 74t-71.5 29z" />
<glyph horiz-adv-x="439" d="M294 597q54 0 87.5 -35t33.5 -86q0 -30 -8 -77l-40 -219h-79l39 222q7 38 7 58q0 28 -17.5 45t-46.5 17q-65 0 -95 -62q-11 -22 -22 -84l-35 -196h-79l94 540h79l-31 -178q48 55 113 55z" />
<glyph horiz-adv-x="189" d="M189 588l-72 -408h-79l72 408h79zM117 680q0 21 13 34t34 13t34 -13t13 -34t-13 -34t-34 -13t-34 13t-13 34z" />
<glyph horiz-adv-x="189" d="M189 588l-92 -517l-81 -18l94 535h79zM118 680q0 21 13 34t33 13q22 0 35 -13t13 -34t-13 -34t-35 -13q-20 0 -33 13t-13 34z" />
<glyph horiz-adv-x="427" d="M398 180h-95l-92 166l-75 -69l-18 -97h-79l95 540h79l-56 -322l193 190h111l-191 -185z" />
<glyph horiz-adv-x="189" d="M212 720l-95 -540h-79l95 540h79z" />
<glyph horiz-adv-x="660" d="M290 597q37 0 63.5 -20.5t38.5 -51.5q54 72 126 72q53 0 84 -33.5t31 -82.5q0 -27 -8 -78l-39 -223h-80l42 233q6 36 6 52q0 26 -15 41.5t-42 15.5q-57 0 -87 -64q-13 -29 -21 -70l-36 -208h-79l41 234q6 38 6 52q0 24 -15.5 40t-41.5 16q-22 0 -39.5 -8t-30 -27.5 t-21 -38.5t-16.5 -55t-12.5 -61.5t-12.5 -74t-13 -77.5h-79l72 408h79l-8 -46q45 55 107 55z" />
<glyph horiz-adv-x="439" d="M294 597q53 0 87 -35t34 -86q0 -30 -8 -77l-40 -219h-79l39 222q7 38 7 58q0 28 -17.5 45t-46.5 17q-64 0 -95 -64q-13 -27 -23 -82l-34 -196h-79l71 408h80l-9 -47q48 56 113 56z" />
<glyph horiz-adv-x="493" d="M246 171q-89 0 -142 51t-53 134q0 99 71.5 170t167.5 71q86 0 137 -52t51 -135q0 -102 -68 -170.5t-164 -68.5zM397 410q0 51 -29.5 81.5t-77.5 30.5q-63 0 -110 -48.5t-47 -116.5q0 -51 30.5 -81.5t81.5 -30.5q61 0 106.5 48t45.5 117z" />
<glyph horiz-adv-x="493" d="M395 408q0 50 -28 82.5t-75 32.5q-57 0 -101.5 -47t-44.5 -119q0 -52 29 -82.5t79 -30.5q58 0 99.5 47t41.5 117zM307 597q74 0 122.5 -52.5t48.5 -139.5q0 -99 -62.5 -166.5t-149.5 -67.5q-94 0 -140 71l-33 -187h-79l94 533h79l-9 -53q55 62 129 62z" />
<glyph horiz-adv-x="493" d="M133 360q0 -51 28 -83.5t74 -32.5q57 0 102 47.5t45 119.5q0 51 -29 82t-79 31q-57 0 -99 -47.5t-42 -116.5zM224 171q-76 0 -125 52t-49 138q0 100 63.5 168t149.5 68q91 0 139 -73l12 64h79l-94 -533h-79l30 175q-54 -59 -126 -59z" />
<glyph horiz-adv-x="289" d="M324 594l-5 -81q-18 3 -35 3q-78 0 -115 -85q-11 -27 -23 -90l-28 -161h-79l72 408h78l-10 -56q49 65 119 65q10 0 26 -3z" />
<glyph horiz-adv-x="347" d="M187 244q27 0 43.5 13.5t16.5 32.5q0 26 -36 46l-62 34q-71 39 -71 109q0 48 38.5 83t94.5 35q86 0 133 -76l-59 -45q-33 48 -74 48q-25 0 -40.5 -13.5t-15.5 -31.5q0 -26 35 -44l63 -34q71 -39 71 -111q0 -53 -37.5 -86t-100.5 -33q-118 0 -161 101l65 38 q17 -33 39 -49.5t58 -16.5z" />
<glyph horiz-adv-x="265" d="M290 516h-76l-59 -336h-79l59 336h-76l13 72h76l14 80l82 17l-17 -97h76z" />
<glyph horiz-adv-x="439" d="M183 171q-55 0 -89 35t-34 90q0 34 7 72l40 220h79l-39 -222q-7 -37 -7 -59q0 -29 17.5 -45.5t46.5 -16.5q23 0 40 6t30 22t21.5 34t17.5 53.5t15 67t16 87.5q8 47 13 73h79l-72 -408h-79l8 45q-49 -54 -110 -54z" />
<glyph horiz-adv-x="422" d="M374 588h91l-235 -408h-79l-87 408h83l60 -296z" />
<glyph horiz-adv-x="651" d="M601 588h90l-208 -408h-81l-46 287l-152 -287h-82l-56 408h83l34 -286l150 286h85l43 -285z" />
<glyph horiz-adv-x="424" d="M168 588l74 -134l110 134h103l-174 -205l113 -203h-94l-82 146l-116 -146h-107l183 219l-104 189h94z" />
<glyph horiz-adv-x="431" d="M381 588h94l-321 -533h-95l100 157l-95 376h86l66 -283z" />
<glyph horiz-adv-x="406" d="M82 516l13 72h330l-10 -62l-274 -275h235l-12 -71h-357l10 57l277 279h-212z" />
<glyph horiz-adv-x="255" d="M77 281q0 231 159 439h79q-162 -213 -162 -449q0 -109 45 -216h-68q-53 108 -53 226z" />
<glyph horiz-adv-x="255" d="M219 494q0 -232 -159 -439h-78q161 214 161 448q0 108 -44 217h67q53 -109 53 -226z" />
<glyph horiz-adv-x="184" d="M202 421l-14 -72h-157l14 72h157z" />
<glyph horiz-adv-x="184" d="M4 69l52 195h94l-92 -195h-54z" />
<glyph horiz-adv-x="184" d="M36 221q0 24 14 38t37 14t37.5 -14t14.5 -38q0 -22 -14.5 -36t-37.5 -14q-22 0 -36.5 14t-14.5 36z" />
<glyph horiz-adv-x="443" d="M285 484h135v-69h-135v-136h-70v136h-136v69h136v137h70v-137z" />
<glyph horiz-adv-x="443" d="M81 558h341v-70h-341v70zM81 411h341v-70h-341v70z" />
<glyph horiz-adv-x="447" d="M33 187q0 52 10 104q23 122 82.5 190t136.5 68q69 0 113 -47q49 -52 49 -149q0 -47 -10 -107q-21 -121 -80.5 -188t-138.5 -67q-71 0 -115 47q-47 50 -47 149zM115 186q0 -58 21 -88.5t58 -30.5q45 0 81 48t55 135q11 48 11 103q0 58 -21 88.5t-58 30.5q-46 0 -81 -47.5 t-55 -136.5q-11 -48 -11 -102z" />
<glyph horiz-adv-x="287" d="M55 394l10 60h17q45 0 79.5 22t50.5 64h64l-95 -540h-82l70 394h-114z" />
<glyph horiz-adv-x="432" d="M366 76l-13 -76h-351l4 29q9 68 38.5 106.5t94.5 80.5l93 60q56 36 77.5 62t21.5 59t-20.5 53.5t-52.5 20.5q-68 0 -118 -89l-65 41q28 55 76.5 90.5t107.5 35.5q70 0 112 -42.5t42 -108.5q0 -56 -28.5 -96t-98.5 -83l-112 -70q-56 -35 -64 -73h256z" />
<glyph horiz-adv-x="407" d="M175 68q46 0 74 28t28 69q0 43 -25.5 62.5t-79.5 19.5h-33l13 72h19q133 0 133 86q0 29 -18 48t-49 19q-58 0 -100 -63l-58 48q62 92 158 92q65 0 105.5 -40t40.5 -100q0 -88 -87 -128q64 -35 64 -120q0 -77 -53 -123.5t-131 -46.5q-61 0 -104.5 28t-66.5 76l66 43 q37 -70 104 -70z" />
<glyph horiz-adv-x="434" d="M299 421l-193 -215h155zM404 206l-13 -73h-63l-23 -133h-81l24 133h-239l14 82l291 325h86l-59 -334h63z" />
<glyph horiz-adv-x="418" d="M233 357q62 0 105 -47t43 -122q0 -85 -56 -141t-142 -56q-68 0 -113.5 37t-59.5 99l72 26q25 -86 101 -86q52 0 84 36t32 85q0 44 -23.5 69t-62.5 25q-55 0 -101 -52l-65 24l76 286h284l-13 -77h-216l-39 -141q42 35 94 35z" />
<glyph horiz-adv-x="435" d="M280 549q92 0 149 -83l-58 -48q-23 28 -43.5 41t-47.5 13q-46 0 -86 -43q-46 -49 -65 -142q52 59 118 59q65 0 106.5 -45t41.5 -114q0 -82 -56 -139t-138 -57q-90 0 -133 64q-34 50 -34 131q0 43 5 72q23 152 103 230q62 61 138 61zM315 187q0 37 -22.5 60.5t-58.5 23.5 q-45 0 -81 -35t-36 -86q0 -36 23.5 -60t60.5 -24q47 0 80.5 35.5t33.5 85.5z" />
<glyph horiz-adv-x="412" d="M170 1h-99q26 130 98.5 248.5t172.5 213.5h-275l13 77h366l-12 -71q-209 -207 -264 -468z" />
<glyph horiz-adv-x="427" d="M322 408q0 29 -19 47.5t-50 18.5q-39 0 -66.5 -27t-27.5 -63q0 -29 19.5 -47t50.5 -18q39 0 66 26.5t27 62.5zM296 167q0 35 -23.5 57.5t-60.5 22.5q-47 0 -79.5 -30.5t-32.5 -72.5q0 -34 24 -56t63 -22q46 0 77.5 30t31.5 71zM187 -9q-76 0 -123 42t-47 110q0 53 31 91 t81 58q-48 35 -48 97q0 65 52 112.5t120 47.5q65 0 106 -40t41 -99q0 -89 -88 -131q65 -35 65 -115q0 -73 -55 -123t-135 -50z" />
<glyph horiz-adv-x="435" d="M164 -9q-92 0 -149 82l58 49q43 -55 91 -55q49 0 88 43q42 47 63 140q-50 -57 -118 -57q-66 0 -107.5 45t-41.5 115q0 80 57 138t137 58q85 0 126 -54t41 -140q0 -104 -30.5 -182.5t-75.5 -122.5q-60 -59 -139 -59zM129 353q0 -37 22 -61t58 -24q45 0 81 34.5t36 85.5 q0 37 -23 61t-61 24q-46 0 -79.5 -35.5t-33.5 -84.5z" />
<glyph horiz-adv-x="413" d="M233 11l3 15q-17 -11 -44 -17q-10 -3 -29 -7.5t-29 -7t-25 -7.5t-23.5 -9.5t-17 -11.5t-12.5 -15.5t-4 -18.5q0 -42 53 -42q43 0 80 32.5t48 88.5zM187 247q66 0 103.5 -35t37.5 -90q0 -19 -7 -59l-25 -141q-2 -16 -2 -18q0 -12 12 -12q7 0 16 3l-5 -70q-9 -4 -27 -4 q-63 0 -74 64q-51 -64 -125 -64q-52 0 -85 28.5t-33 77.5q0 99 121 122l109 21q48 8 48 49q0 25 -16.5 40t-48.5 15q-71 0 -93 -71l-76 18q14 54 59.5 90t110.5 36z" />
<glyph horiz-adv-x="493" d="M195 -106q57 0 99 47t42 116q0 51 -28 83.5t-76 32.5q-57 0 -101.5 -46.5t-44.5 -118.5q0 -51 30.5 -82.5t78.5 -31.5zM418 56q0 -99 -63 -167t-149 -68q-94 0 -140 72l-11 -63h-79l95 540h79l-33 -192q52 69 129 69q74 0 123 -52.5t49 -138.5z" />
<glyph horiz-adv-x="454" d="M227 172q-62 0 -108 -48t-46 -119q0 -50 30 -80t83 -30q76 0 125 89l67 -41q-66 -122 -194 -122q-89 0 -141 51.5t-52 132.5q0 100 71.5 171t166.5 71q128 0 171 -116l-72 -32q-17 37 -39.5 55t-61.5 18z" />
<glyph horiz-adv-x="493" d="M73 10q0 -51 28 -83.5t75 -32.5q57 0 101.5 47.5t44.5 119.5q0 51 -29 82t-79 31q-57 0 -99 -47.5t-42 -116.5zM164 -179q-76 0 -125 52t-49 138q0 100 63 168t150 68q92 0 140 -73l34 196h79l-95 -540h-79l8 49q-55 -58 -126 -58z" />
<glyph horiz-adv-x="464" d="M85 74h228q-1 45 -25 72t-68 27q-45 0 -83 -28t-52 -71zM385 9h-314v-10q0 -46 28.5 -75.5t77.5 -29.5q37 0 66.5 20t45.5 52l75 -23q-24 -56 -73.5 -89t-111.5 -33q-86 0 -137 48t-51 132q0 105 68.5 175.5t158.5 70.5q81 0 127.5 -50t46.5 -127q0 -34 -7 -61z" />
<glyph horiz-adv-x="265" d="M172 261l-4 -23h75l-12 -72h-76l-59 -336h-79l59 336h-76l12 72h76l6 36q8 48 41 76.5t84 28.5q31 0 54 -9l-14 -72q-24 6 -37 6q-43 0 -50 -43z" />
<glyph horiz-adv-x="487" d="M424 238l-66 -371q-14 -78 -68.5 -124t-141.5 -46q-75 0 -122 36t-57 91l77 14q22 -68 103 -68q112 0 136 131q-47 -58 -120 -58q-75 0 -122 48t-47 128q0 96 63.5 162t146.5 66q87 0 128 -70l11 61h79zM218 174q-57 0 -98.5 -45t-41.5 -111q0 -46 25.5 -74t70.5 -28 q57 0 100 46t43 109q0 45 -27.5 74t-71.5 29z" />
<glyph horiz-adv-x="439" d="M234 247q54 0 87.5 -35t33.5 -86q0 -30 -8 -77l-40 -219h-79l39 222q7 38 7 58q0 28 -17.5 45t-46.5 17q-65 0 -95 -62q-11 -22 -22 -84l-35 -196h-79l94 540h79l-31 -178q48 55 113 55z" />
<glyph horiz-adv-x="189" d="M129 238l-72 -408h-79l72 408h79zM57 330q0 21 13 34t34 13t34 -13t13 -34t-13 -34t-34 -13t-34 13t-13 34z" />
<glyph horiz-adv-x="189" d="M129 238l-92 -517l-81 -18l94 535h79zM58 330q0 21 13 34t33 13q22 0 35 -13t13 -34t-13 -34t-35 -13q-20 0 -33 13t-13 34z" />
<glyph horiz-adv-x="427" d="M338 -170h-95l-92 166l-75 -69l-18 -97h-79l95 540h79l-56 -322l193 190h111l-191 -185z" />
<glyph horiz-adv-x="189" d="M152 370l-95 -540h-79l95 540h79z" />
<glyph horiz-adv-x="660" d="M230 247q37 0 63.5 -20.5t38.5 -51.5q54 72 126 72q53 0 84 -33.5t31 -82.5q0 -27 -8 -78l-39 -223h-80l42 233q6 36 6 52q0 26 -15 41.5t-42 15.5q-57 0 -87 -64q-13 -29 -21 -70l-36 -208h-79l41 234q6 38 6 52q0 24 -15.5 40t-41.5 16q-22 0 -39.5 -8t-30 -27.5 t-21 -38.5t-16.5 -55t-12.5 -61.5t-12.5 -74t-13 -77.5h-79l72 408h79l-8 -46q45 55 107 55z" />
<glyph horiz-adv-x="439" d="M234 247q53 0 87 -35t34 -86q0 -30 -8 -77l-40 -219h-79l39 222q7 38 7 58q0 28 -17.5 45t-46.5 17q-64 0 -95 -64q-13 -27 -23 -82l-34 -196h-79l71 408h80l-9 -47q48 56 113 56z" />
<glyph horiz-adv-x="493" d="M186 -179q-89 0 -142 51t-53 134q0 99 71.5 170t167.5 71q86 0 137 -52t51 -135q0 -102 -68 -170.5t-164 -68.5zM337 60q0 51 -29.5 81.5t-77.5 30.5q-63 0 -110 -48.5t-47 -116.5q0 -51 30.5 -81.5t81.5 -30.5q61 0 106.5 48t45.5 117z" />
<glyph horiz-adv-x="493" d="M335 58q0 50 -28 82.5t-75 32.5q-57 0 -101.5 -47t-44.5 -119q0 -52 29 -82.5t79 -30.5q58 0 99.5 47t41.5 117zM247 247q74 0 122.5 -52.5t48.5 -139.5q0 -99 -62.5 -166.5t-149.5 -67.5q-94 0 -140 71l-33 -187h-79l94 533h79l-9 -53q55 62 129 62z" />
<glyph horiz-adv-x="493" d="M73 10q0 -51 28 -83.5t74 -32.5q57 0 102 47.5t45 119.5q0 51 -29 82t-79 31q-57 0 -99 -47.5t-42 -116.5zM164 -179q-76 0 -125 52t-49 138q0 100 63.5 168t149.5 68q91 0 139 -73l12 64h79l-94 -533h-79l30 175q-54 -59 -126 -59z" />
<glyph horiz-adv-x="289" d="M264 244l-5 -81q-18 3 -35 3q-78 0 -115 -85q-11 -27 -23 -90l-28 -161h-79l72 408h78l-10 -56q49 65 119 65q10 0 26 -3z" />
<glyph horiz-adv-x="347" d="M127 -106q27 0 43.5 13.5t16.5 32.5q0 26 -36 46l-62 34q-71 39 -71 109q0 48 38.5 83t94.5 35q86 0 133 -76l-59 -45q-33 48 -74 48q-25 0 -40.5 -13.5t-15.5 -31.5q0 -26 35 -44l63 -34q71 -39 71 -111q0 -53 -37.5 -86t-100.5 -33q-118 0 -161 101l65 38 q17 -33 39 -49.5t58 -16.5z" />
<glyph horiz-adv-x="265" d="M230 166h-76l-59 -336h-79l59 336h-76l13 72h76l14 80l82 17l-17 -97h76z" />
<glyph horiz-adv-x="439" d="M123 -179q-55 0 -89 35t-34 90q0 34 7 72l40 220h79l-39 -222q-7 -37 -7 -59q0 -29 17.5 -45.5t46.5 -16.5q23 0 40 6t30 22t21.5 34t17.5 53.5t15 67t16 87.5q8 47 13 73h79l-72 -408h-79l8 45q-49 -54 -110 -54z" />
<glyph horiz-adv-x="422" d="M314 238h91l-235 -408h-79l-87 408h83l60 -296z" />
<glyph horiz-adv-x="651" d="M541 238h90l-208 -408h-81l-46 287l-152 -287h-82l-56 408h83l34 -286l150 286h85l43 -285z" />
<glyph horiz-adv-x="424" d="M108 238l74 -134l110 134h103l-174 -205l113 -203h-94l-82 146l-116 -146h-107l183 219l-104 189h94z" />
<glyph horiz-adv-x="431" d="M321 238h94l-321 -533h-95l100 157l-95 376h86l66 -283z" />
<glyph horiz-adv-x="406" d="M22 166l13 72h330l-10 -62l-274 -275h235l-12 -71h-357l10 57l277 279h-212z" />
<glyph horiz-adv-x="235" d="M240 401l-15 -84h-200l15 84h200z" />
<glyph horiz-adv-x="235" d="M240 401l-15 -84h-200l15 84h200z" />
<glyph horiz-adv-x="500" d="M9 323l13 72h500l-13 -72h-500z" />
<glyph horiz-adv-x="1000" d="M9 323l13 72h1000l-13 -72h-1000z" />
<glyph horiz-adv-x="282" d="M58 403l234 173l-20 -114l-151 -111l112 -111l-17 -98l-173 173z" />
<glyph horiz-adv-x="282" d="M254 315l-234 -173l19 113l151 111l-111 111l17 99l173 -173z" />
<glyph horiz-adv-x="486" d="M58 403l234 173l-20 -114l-151 -111l112 -111l-17 -98l-173 173zM262 403l234 173l-19 -114l-151 -111l111 -111l-17 -98l-173 173z" />
<glyph horiz-adv-x="486" d="M458 315l-234 -173l20 113l151 111l-112 111l17 99l173 -173zM254 315l-234 -173l19 113l151 111l-111 111l17 99l173 -173z" />
<glyph horiz-adv-x="320" d="M87 216q0 316 213 592h91q-214 -280 -214 -605q0 -149 58 -284h-80q-68 138 -68 297z" />
<glyph horiz-adv-x="320" d="M266 511q0 -318 -213 -592h-91q213 278 213 604q0 149 -57 285h79q69 -141 69 -297z" />
<glyph horiz-adv-x="320" d="M121 -5h127l-13 -76h-209l156 889h209l-13 -76h-127z" />
<glyph horiz-adv-x="320" d="M-26 -5h127l130 737h-127l13 76h209l-156 -889h-208z" />
<glyph horiz-adv-x="320" d="M127 358q58 -21 58 -86q0 -20 -6 -55l-27 -152q-2 -14 -2 -20q0 -50 56 -50h42l-13 -76h-35q-61 0 -96 33.5t-35 86.5q0 26 7 61l25 138q3 18 3 34q0 29 -18 44t-62 15l12 65q55 0 78 23t31 70l33 186q12 65 51.5 99t98.5 34h63l-13 -76h-42q-65 0 -78 -70l-36 -197 q-8 -46 -30 -71.5t-65 -35.5z" />
<glyph horiz-adv-x="1557" d="M499 0l-283 557l-96 -557h-94l126 720h93l286 -562l98 562h94l-126 -720h-98zM963 171q-89 0 -142 51t-53 134q0 99 71.5 170t167.5 71q86 0 137 -52t51 -135q0 -102 -68 -170.5t-164 -68.5zM1114 410q0 51 -29.5 81.5t-77.5 30.5q-63 0 -110 -48.5t-47 -116.5 q0 -51 30.5 -81.5t81.5 -30.5q61 0 106.5 48t45.5 117zM1397 244q27 0 43.5 13.5t16.5 32.5q0 26 -36 46l-62 34q-71 39 -71 109q0 48 38.5 83t94.5 35q86 0 133 -76l-59 -45q-33 48 -74 48q-25 0 -40.5 -13.5t-15.5 -31.5q0 -26 35 -44l63 -34q71 -39 71 -111 q0 -53 -37.5 -86t-100.5 -33q-118 0 -161 101l65 38q17 -33 39 -49.5t58 -16.5z" />
<glyph horiz-adv-x="1058" d="M359 553q73 0 115.5 -46t42.5 -111q0 -44 -10 -100l-52 -296h-94l52 296q9 54 9 80q0 41 -24.5 65t-69.5 24q-130 0 -162 -182l-50 -283h-94l95 541h94l-14 -78q68 90 162 90zM811 171q-89 0 -142 51t-53 134q0 99 71.5 170t167.5 71q86 0 137 -52t51 -135 q0 -102 -68 -170.5t-164 -68.5zM962 410q0 51 -29.5 81.5t-77.5 30.5q-63 0 -110 -48.5t-47 -116.5q0 -51 30.5 -81.5t81.5 -30.5q61 0 106.5 48t45.5 117z" />
<glyph horiz-adv-x="1405" d="M359 553q73 0 115.5 -46t42.5 -111q0 -44 -10 -100l-52 -296h-94l52 296q9 54 9 80q0 41 -24.5 65t-69.5 24q-130 0 -162 -182l-50 -283h-94l95 541h94l-14 -78q68 90 162 90zM811 171q-89 0 -142 51t-53 134q0 99 71.5 170t167.5 71q86 0 137 -52t51 -135 q0 -102 -68 -170.5t-164 -68.5zM962 410q0 51 -29.5 81.5t-77.5 30.5q-63 0 -110 -48.5t-47 -116.5q0 -51 30.5 -81.5t81.5 -30.5q61 0 106.5 48t45.5 117zM1245 244q27 0 43.5 13.5t16.5 32.5q0 26 -36 46l-62 34q-71 39 -71 109q0 48 38.5 83t94.5 35q86 0 133 -76 l-59 -45q-33 48 -74 48q-25 0 -40.5 -13.5t-15.5 -31.5q0 -26 35 -44l63 -34q71 -39 71 -111q0 -53 -37.5 -86t-100.5 -33q-118 0 -161 101l65 38q17 -33 39 -49.5t58 -16.5z" />
<glyph horiz-adv-x="320" d="M226 369q-59 20 -59 86q0 15 7 54l26 153q2 14 2 20q0 50 -55 50h-42l13 76h35q60 0 95 -33t35 -87q0 -26 -6 -61l-25 -138q-4 -24 -4 -34q0 -60 80 -60l-11 -64q-55 0 -78.5 -23t-31.5 -70l-33 -187q-12 -65 -51.5 -98.5t-97.5 -33.5h-63l13 76h42q65 0 78 70l35 197 q8 45 30.5 70.5t65.5 36.5z" />
</font>
</defs>
</svg>
